<?xml version="1.0" encoding="utf-8"?>
<!-- Generator: Adobe Illustrator 26.0.1, SVG Export Plug-In . SVG Version: 6.00 Build 0)  -->
<svg version="1.1" xmlns="http://www.w3.org/2000/svg" xmlns:xlink="http://www.w3.org/1999/xlink" x="0px" y="0px"
	 viewBox="0 0 652.5 546" style="enable-background:new 0 0 652.5 546;" xml:space="preserve">
<style type="text/css">
	.st0{fill:#FFFFFF;stroke:#000000;stroke-width:1.0324;stroke-miterlimit:10;}
	.st1{fill:#846BFA;}
	.st2{fill:none;stroke:#000000;stroke-width:1.0324;stroke-linecap:round;stroke-linejoin:round;stroke-miterlimit:10;}
	.st3{fill:#FFFFFF;}
</style>
<g id="background">
	<g>
		<path class="st0" d="M648.4,27.7v490.6c0,12-9.7,21.7-21.7,21.7H25.8c-12,0-21.7-9.7-21.7-21.7V27.7c0-12,9.7-21.7,21.7-21.7
			h600.7C638.7,5.9,648.4,15.6,648.4,27.7z"/>
		<path class="st1" d="M648.4,27.7v21.5H4.3V27.7C4.3,15.6,14,5.9,26,5.9h600.7C638.7,5.9,648.4,15.6,648.4,27.7z"/>
		<path class="st2" d="M648.4,27.7v21.5H4.3V27.7C4.3,15.6,14,5.9,26,5.9h600.7C638.7,5.9,648.4,15.6,648.4,27.7z"/>
		<path class="st3" d="M583.5,27c0,4.2-3.4,7.6-7.6,7.6c-4.2,0-7.6-3.4-7.6-7.6s3.4-7.6,7.6-7.6C580.1,19.7,583.5,23,583.5,27z"/>
		<path d="M630.5,27c0,4.2-3.4,7.6-7.6,7.6s-7.6-3.4-7.6-7.6s3.4-7.6,7.6-7.6C627.1,19.7,630.5,23,630.5,27z"/>
		<path class="st3" d="M536.4,27c0,4.2-3.4,7.6-7.6,7.6s-7.6-3.4-7.6-7.6s3.4-7.6,7.6-7.6C533,19.7,536.4,23,536.4,27z"/>
	</g>
</g>
<g id="objects">
</g>
</svg>
