<?xml version="1.0" encoding="utf-8"?>
<!-- Generator: Adobe Illustrator 26.0.1, SVG Export Plug-In . SVG Version: 6.00 Build 0)  -->
<svg version="1.1" id="Layer_1" xmlns="http://www.w3.org/2000/svg" xmlns:xlink="http://www.w3.org/1999/xlink" x="0px" y="0px"
	 viewBox="0 0 132 109" style="enable-background:new 0 0 132 109;" xml:space="preserve">
<style type="text/css">
	.st0{fill:#E64545;stroke:#2B2E49;stroke-width:2.0413;stroke-linecap:round;stroke-linejoin:round;stroke-miterlimit:10;}
	.st1{fill:#FFFFFF;}
	.st2{fill:#2B2E49;}
	.st3{fill:#1AF0B3;stroke:#2B2E49;stroke-width:2.0413;stroke-linecap:round;stroke-linejoin:round;stroke-miterlimit:10;}
	.st4{fill:#C4C4C4;}
	.st5{fill:none;stroke:#2B2E49;stroke-width:2.0413;stroke-linecap:round;stroke-linejoin:round;stroke-miterlimit:10;}
	.st6{fill:#FFFFFF;stroke:#000000;stroke-width:1.1657;stroke-linecap:round;stroke-linejoin:round;stroke-miterlimit:10;}
	.st7{fill:#1F1F1F;}
	.st8{fill:none;stroke:#000000;stroke-width:1.1657;stroke-linecap:round;stroke-linejoin:round;stroke-miterlimit:10;}
	.st9{fill:#846BFA;}
</style>
<g>
	<path class="st0" d="M112.6,83.2H29.5c-2.4,0-4.9,0.9-6.8,2.8c-1.9,1.9-2.8,4.3-2.8,6.8v2.5c0,2.4,0.9,4.9,2.8,6.8
		c1.9,1.9,4.3,2.8,6.8,2.8h83.1V83.2z"/>
	<rect x="34.5" y="88.6" class="st1" width="84.8" height="10.8"/>
	<path class="st2" d="M119.2,100.8H34.5c-0.8,0-1.4-0.6-1.4-1.4V88.6c0-0.8,0.6-1.4,1.4-1.4h84.8c0.8,0,1.4,0.6,1.4,1.4v10.8
		C120.7,100.2,120,100.8,119.2,100.8z M35.9,98h81.9v-8H35.9V98z"/>
	<path class="st3" d="M33.2,61.5h83.1c2.4,0,4.9,0.9,6.8,2.8c1.9,1.9,2.8,4.3,2.8,6.8v2.5c0,2.4-0.9,4.9-2.8,6.8
		c-1.9,1.9-4.3,2.8-6.8,2.8H33.2V61.5z"/>
	<rect x="26.5" y="66.9" class="st1" width="84.8" height="10.8"/>
	<rect x="99.5" y="66.8" class="st4" width="11.8" height="11"/>
	<path class="st2" d="M111.3,79.2H26.5c-0.8,0-1.4-0.6-1.4-1.4V66.9c0-0.8,0.6-1.4,1.4-1.4h84.8c0.8,0,1.4,0.6,1.4,1.4v10.8
		C112.8,78.5,112.1,79.2,111.3,79.2z M28,76.3h81.9v-8H28V76.3z"/>
	<line class="st5" x1="100.4" y1="72.3" x2="26.5" y2="72.3"/>
</g>
<g>
	<g>
		<rect x="55.6" y="6.8" class="st6" width="41.1" height="15.8"/>
		<g>
			<g>
				<path class="st7" d="M52.4,20V9.4c0-2.7,2.2-4.9,4.9-4.9H98c1,0,1.9,0.9,1.9,1.9S99,8.3,98,8.3H57.3c-0.6,0-1.1,0.5-1.1,1.1V20
					c0,0.6,0.5,1.1,1.1,1.1H98c1,0,1.9,0.9,1.9,1.9S99,24.9,98,24.9H57.3C54.6,24.9,52.4,22.7,52.4,20z"/>
			</g>
		</g>
		<g>
			<path class="st8" d="M52.4,20V9.4c0-2.7,2.2-4.9,4.9-4.9H98c1,0,1.9,0.9,1.9,1.9S99,8.3,98,8.3H57.3c-0.6,0-1.1,0.5-1.1,1.1V20
				c0,0.6,0.5,1.1,1.1,1.1H98c1,0,1.9,0.9,1.9,1.9S99,24.9,98,24.9H57.3C54.6,24.9,52.4,22.7,52.4,20z"/>
		</g>
		<line class="st8" x1="77.8" y1="11.7" x2="54.7" y2="11.7"/>
		<line class="st8" x1="80.7" y1="16.5" x2="54.7" y2="16.5"/>
	</g>
	<g>
		<rect x="9.3" y="29" class="st1" width="86.7" height="28.6"/>
		<rect x="9.3" y="29" class="st8" width="86.7" height="28.6"/>
		<line class="st8" x1="58.5" y1="38.7" x2="96.1" y2="38.7"/>
		<line class="st8" x1="48" y1="47.7" x2="96.1" y2="47.7"/>
		<g>
			<g>
				<path class="st9" d="M3.7,57.4c0-1.5,1.3-2.8,2.8-2.8h85.9c0.4,0,0.8-0.3,0.8-0.8V31.9c0-0.4-0.3-0.8-0.8-0.8H6.6
					c-1.5,0-2.8-1.3-2.8-2.8s1.3-2.8,2.8-2.8h85.9c3.5,0,6.5,2.9,6.5,6.5v21.9c0,3.5-2.9,6.5-6.5,6.5H6.6C5,60.3,3.7,59,3.7,57.4z"
					/>
			</g>
		</g>
		<g>
			<path class="st8" d="M3.7,57.4c0-1.5,1.3-2.8,2.8-2.8h85.9c0.4,0,0.8-0.3,0.8-0.8V31.9c0-0.4-0.3-0.8-0.8-0.8H6.6
				c-1.5,0-2.8-1.3-2.8-2.8s1.3-2.8,2.8-2.8h85.9c3.5,0,6.5,2.9,6.5,6.5v21.9c0,3.5-2.9,6.5-6.5,6.5H6.6C5,60.3,3.7,59,3.7,57.4z"/>
		</g>
	</g>
</g>
</svg>
