<?xml version="1.0" encoding="utf-8"?>
<!-- Generator: Adobe Illustrator 26.0.1, SVG Export Plug-In . SVG Version: 6.00 Build 0)  -->
<svg version="1.1" id="Layer_1" xmlns="http://www.w3.org/2000/svg" xmlns:xlink="http://www.w3.org/1999/xlink" x="0px" y="0px"
	 viewBox="0 0 476.9 332.8" style="enable-background:new 0 0 476.9 332.8;" xml:space="preserve">
<style type="text/css">
	.st0{fill:#FFFFFF;stroke:#000000;stroke-width:0.7382;stroke-miterlimit:10;}
	.st1{fill:#846BFA;}
	.st2{fill:none;stroke:#000000;stroke-width:0.7382;stroke-linecap:round;stroke-linejoin:round;stroke-miterlimit:10;}
	.st3{fill:#FFFFFF;}
</style>
<g>
	<path class="st0" d="M469.6,21.3v288.4c0,8.6-6.9,15.5-15.5,15.5H24.4c-8.6,0-15.5-6.9-15.5-15.5V21.3c0-8.6,6.9-15.5,15.5-15.5
		h429.5C462.6,5.8,469.6,12.8,469.6,21.3z"/>
	<path class="st1" d="M469.6,21.3v15.4H9V21.3c0-8.6,6.9-15.5,15.5-15.5H454C462.6,5.8,469.6,12.8,469.6,21.3z"/>
	<path class="st2" d="M469.6,21.3v15.4H9V21.3c0-8.6,6.9-15.5,15.5-15.5H454C462.6,5.8,469.6,12.8,469.6,21.3z"/>
	<path class="st3" d="M423.1,20.9c0,3-2.4,5.4-5.4,5.4s-5.4-2.4-5.4-5.4s2.4-5.4,5.4-5.4C420.7,15.6,423.1,18,423.1,20.9z"/>
	<path d="M456.8,20.9c0,3-2.4,5.4-5.4,5.4s-5.5-2.4-5.5-5.4s2.4-5.4,5.4-5.4C454.3,15.6,456.8,18,456.8,20.9z"/>
	<path class="st3" d="M389.5,20.9c0,3-2.4,5.4-5.4,5.4s-5.4-2.4-5.4-5.4s2.4-5.4,5.4-5.4C387.1,15.6,389.5,18,389.5,20.9z"/>
</g>
</svg>
