<?xml version="1.0" encoding="utf-8"?>
<!-- Generator: Adobe Illustrator 26.0.1, SVG Export Plug-In . SVG Version: 6.00 Build 0)  -->
<svg version="1.1" id="Layer_1" xmlns="http://www.w3.org/2000/svg" xmlns:xlink="http://www.w3.org/1999/xlink" x="0px" y="0px"
	 viewBox="0 0 995.5 435.8" style="enable-background:new 0 0 995.5 435.8;" xml:space="preserve">
<style type="text/css">
	.st0{fill:#FFFFFF;stroke:#000000;stroke-width:0.9502;stroke-miterlimit:10;}
	.st1{fill:#DB7294;stroke:#000000;stroke-width:0.9502;stroke-miterlimit:10;}
	.st2{fill:#EEDA36;stroke:#000000;stroke-width:0.9502;stroke-miterlimit:10;}
	.st3{fill:#1A71B9;}
	.st4{fill:none;stroke:#000000;stroke-width:0.9502;stroke-miterlimit:10;}
	.st5{fill:#93FF7F;}
	.st6{fill:#CCFFAA;}
	.st7{fill:#EEDA36;}
	.st8{fill:#9E88E5;}
	.st9{fill:#FFFFFF;}
	.st10{fill:#DB7294;}
	.st11{fill:none;stroke:#000000;stroke-width:1.9005;stroke-miterlimit:10;}
	.st12{fill:#E4B0C8;}
	.st13{fill:#141414;}
	.st14{fill:#F7F6F6;}
	.st15{fill:none;stroke:#672ED6;stroke-width:0.9502;stroke-miterlimit:10;}
	.st16{fill:#D96980;}
	.st17{fill:#090909;}
	.st18{fill:none;stroke:#000000;stroke-width:0.9287;stroke-miterlimit:10;}
	.st19{fill:#FFFFFF;stroke:#000000;stroke-width:0.9287;stroke-miterlimit:10;}
	.st20{fill:#672ED6;}
	.st21{fill:#672ED6;stroke:#000000;stroke-width:0.9287;stroke-miterlimit:10;}
	.st22{fill:none;stroke:#000000;stroke-width:1.8575;stroke-miterlimit:10;}
	.st23{fill:#672ED6;stroke:#211F21;stroke-width:0.9287;stroke-miterlimit:10;}
	.st24{fill:#DB7294;stroke:#000000;stroke-width:0.9287;stroke-miterlimit:10;}
	.st25{fill:none;stroke:#000000;stroke-width:0.9287;}
	.st26{font-family:'Montserrat-ExtraBold';}
	.st27{font-size:29.8761px;}
</style>
<g id="OBJECTS_00000137103988822217593580000000392841142784365471_">
	<g>
		<g>
			<g>
				<path class="st0" d="M691.4,250.9h220.1c13.2,0,24-10.7,24-23.9V73.3c0-13.2-10.8-23.9-24-23.9H691.4c-13.2,0-24,10.7-24,23.9
					v153.8C667.5,240.3,678.2,250.9,691.4,250.9z"/>
				<g>
					<g>
						<path class="st1" d="M693.6,67.9c0,2.6-2,4.6-4.6,4.6c-2.5,0-4.6-2.1-4.6-4.6c0-2.6,2-4.6,4.6-4.6S693.6,65.3,693.6,67.9z"/>
						<path class="st2" d="M711.7,67.9c0,2.6-2,4.6-4.6,4.6c-2.5,0-4.6-2.1-4.6-4.6c0-2.6,2-4.6,4.6-4.6S711.7,65.3,711.7,67.9z"/>
						<ellipse class="st3" cx="725.2" cy="67.9" rx="4.6" ry="4.6"/>
					</g>
					<line class="st4" x1="668.1" y1="83.9" x2="935.5" y2="83.9"/>
				</g>
			</g>
			<g>
				<g>
					<path class="st5" d="M718.5,116.9V95.5c-11.9,0-21.5,9.6-21.5,21.4c0,11.9,9.6,21.4,21.5,21.4s21.5-9.6,21.5-21.4
						c0-1.5-0.2-3-0.5-4.6L718.5,116.9z"/>
					<path class="st6" d="M742.2,108.6c-2.1-9.7-10.7-16.9-20.9-16.9v21.5L742.2,108.6z"/>
				</g>
				<g>
					<g>
						<path class="st7" d="M693.9,152.8h-1.8c-1.2,0-2.2-0.9-2.2-2.2v-1.8c0-1.2,1-2.2,2.2-2.2h1.8c1.2,0,2.2,0.9,2.2,2.2v1.8
							C696.1,151.7,695.1,152.8,693.9,152.8z"/>
						<path class="st7" d="M693.9,162.6h-1.8c-1.2,0-2.2-0.9-2.2-2.2v-1.8c0-1.2,1-2.2,2.2-2.2h1.8c1.2,0,2.2,0.9,2.2,2.2v1.8
							C696.1,161.6,695.1,162.6,693.9,162.6z"/>
						<path class="st7" d="M693.9,172.5h-1.8c-1.2,0-2.2-0.9-2.2-2.2v-1.8c0-1.2,1-2.2,2.2-2.2h1.8c1.2,0,2.2,0.9,2.2,2.2v1.8
							C696.1,171.4,695.1,172.5,693.9,172.5z"/>
					</g>
					<g>
						<path class="st8" d="M744.9,151.5h-41.5c-0.9,0-1.5-0.7-1.5-1.5l0,0c0-0.9,0.7-1.5,1.5-1.5h41.5c0.9,0,1.5,0.7,1.5,1.5l0,0
							C746.4,150.9,745.8,151.5,744.9,151.5z"/>
						<path class="st8" d="M740.4,161h-37c-0.9,0-1.5-0.7-1.5-1.5l0,0c0-0.9,0.7-1.5,1.5-1.5h37c0.9,0,1.5,0.7,1.5,1.5l0,0
							C742,160.3,741.3,161,740.4,161z"/>
						<path class="st8" d="M753,170.5h-49.6c-0.9,0-1.5-0.7-1.5-1.5l0,0c0-0.9,0.7-1.5,1.5-1.5H753c0.9,0,1.5,0.7,1.5,1.5l0,0
							C754.5,169.8,753.9,170.5,753,170.5z"/>
					</g>
					<g>
						<path class="st8" d="M777.4,181.4h-84.7c-0.9,0-1.5-0.7-1.5-1.5l0,0c0-0.9,0.7-1.5,1.5-1.5h84.7c0.9,0,1.5,0.7,1.5,1.5l0,0
							C778.9,180.7,778.2,181.4,777.4,181.4z"/>
						<path class="st8" d="M777.4,189.4h-84.7c-0.9,0-1.5-0.7-1.5-1.5l0,0c0-0.9,0.7-1.5,1.5-1.5h84.7c0.9,0,1.5,0.7,1.5,1.5l0,0
							C778.9,188.7,778.2,189.4,777.4,189.4z"/>
						<g>
							<path class="st8" d="M777.4,197.8h-84.7c-0.9,0-1.5-0.7-1.5-1.5l0,0c0-0.9,0.7-1.5,1.5-1.5h84.7c0.9,0,1.5,0.7,1.5,1.5l0,0
								C778.9,197.1,778.2,197.8,777.4,197.8z"/>
							<path class="st8" d="M777.4,205.8h-84.7c-0.9,0-1.5-0.7-1.5-1.5l0,0c0-0.9,0.7-1.5,1.5-1.5h84.7c0.9,0,1.5,0.7,1.5,1.5l0,0
								C778.9,205.1,778.2,205.8,777.4,205.8z"/>
						</g>
					</g>
				</g>
			</g>
			<g>
				<line class="st4" x1="689.8" y1="217.1" x2="923.8" y2="217.1"/>
				<g>
					<g>
						<g>
							<path class="st9" d="M740.5,127.6c0,0-7.3-6.3-5.9-8.6c1.4-2.4,3.5-0.6,3.5-0.6s-2.2-1.8-0.9-3.2s2.8-0.7,2.8-0.7
								s-1.3-2.8,0.5-3.4c1.8-0.7,4.2,0.3,4.2,0.3s-0.7-2.2-0.5-2.9c0.2-0.8,1.4-2.2,4.8-0.9c3.3,1.3,10.1,6.4,12.4,8
								c2.3,1.6,4.7,4.9,4.9,4s2.1-6.7,4.8-8.2c2.6-1.4,3.5-1.6,3.5,1.8c-0.1,3.4-1.5,12.6,2,20.1c3.5,7.5,4.5,12.2,8.4,18.5
								c4,6.3,5.8,9.3,5.8,9.3l-24.3,14.4c0,0-16.4-34.3-16.6-34.6C749.8,140.7,744.2,131.4,740.5,127.6z"/>
							<g>
								<path class="st4" d="M737.4,118.1c0,0-2.1-4.7,2.9-3.5s11,6.8,14,9.8"/>
								<path class="st4" d="M758.3,135.1c0,0-1-5.9,7.3-7c0,0-1.3-12.3,5.1-16.7c6.6-4.5,1.4,8.6,4.1,17.5
									c2.7,8.8,5.9,17.4,9.3,22.3c3.4,4.9,6.4,10.1,6.4,10.1l-24.4,14.3c0,0-5.8-12.3-14.8-31.5c-8.9-19.2-19-21-16.9-25
									c2.7-5,14.4,9.4,14.4,9.4"/>
								<path class="st4" d="M740.3,114.7c0,0-2.1-3.5,1.2-3.9c0.6-0.1,1.2,0,2,0.3c3.9,1,10,5.3,14.2,9.7"/>
								<path class="st4" d="M766,120.4c0,0-8.1-10.1-18.7-13.1c-3.8-1-4.2,2.8-0.6,4.9"/>
							</g>
						</g>
						<g>
							<path class="st0" d="M761.2,165.8l24.1-13.8c0,0,25.1,41.7,55.6,52.7l-36.3,13.8l-29.2-1.9
								C775.4,216.6,765.6,191.2,761.2,165.8z"/>
							<path class="st5" d="M762.1,166.1c0.8,4.6,1.8,9.3,2.9,13.8l28.9-14.4c-5.5-7.4-8.8-12.9-8.8-12.9L762.1,166.1z"/>
							<g>
								<polygon class="st5" points="774.6,179.3 772.2,184.3 769.9,189.4 775.4,188.9 781,188.5 777.8,183.9 								"/>
								<polygon class="st5" points="793.8,172 791.4,177 789,182.1 794.5,181.6 800.1,181.1 797,176.6 								"/>
								<polygon class="st5" points="789.6,189.8 787.2,194.9 784.8,199.9 790.4,199.4 795.9,199 792.8,194.4 								"/>
								<polygon class="st10" points="807.7,192.4 805.4,197.4 803,202.5 808.5,202 814.1,201.6 810.9,197 								"/>
								<polygon class="st5" points="782.2,204.1 779.9,209.1 777.4,214.1 783,213.7 788.5,213.3 785.4,208.7 								"/>
								<polygon class="st10" points="801.3,207.4 798.9,212.4 796.5,217.4 802,217.1 807.7,216.6 804.4,212 								"/>
							</g>
						</g>
					</g>
					<g>
						<g>
							<path class="st9" d="M881.1,176.8c0,0,7.3,19.2-19.5,25.9s-58.3,5.6-58.3,5.6s-3.2,0-3-8.3s-0.2-24.9,10.6-43.1
								s17.5-24.9,22.9-27C839.4,127.9,880.2,149.1,881.1,176.8z"/>
							<g>
								<polygon class="st5" points="858.5,170.5 855.6,175.3 852.9,180.3 858.5,180.3 864.1,180.3 861.3,175.3 								"/>
								<polygon class="st5" points="847.9,146.5 845.2,151.3 842.3,156.2 847.9,156.2 853.5,156.2 850.8,151.3 								"/>
								<polygon class="st5" points="830.3,165.7 827.5,170.5 824.7,175.3 830.3,175.3 836,175.3 833.2,170.5 								"/>
								<polygon class="st5" points="840.6,185.9 837.7,190.7 835,195.5 840.6,195.5 846.2,195.5 843.4,190.7 								"/>
								<polygon class="st5" points="810.9,183.7 808,188.5 805.3,193.4 810.9,193.4 816.5,193.4 813.7,188.5 								"/>
								<polygon class="st5" points="823.1,145.6 820.2,150.5 817.4,155.3 823.1,155.3 828.7,155.3 825.8,150.5 								"/>
							</g>
							<path class="st4" d="M831.9,130c0,0-36.8,31.1-30.9,77.1"/>
						</g>
						<g>
							<path class="st9" d="M848.3,128.4c0,0,8.8,0.1,16.9,3c8.2,2.9,20.8,7.1,34,19.9c0,0,19.2,18.8,20.8,35.3s-0.2,26.5-21,37.5
								c0,0-15.2,5.9-32.2,2.8c-16.9-3.1-31.4-7-42.2-5.7s-15.1,1.4-20.8,6.8s-10.4,10.1-10.4,10.1s-1.4,2-3,1.9s-1.3-1.3-1.1-2.2
								c0.3-0.9,1.3-2.9-0.9-0.9c-2.2,2.1-3.1,3.1-4.4,3c-1.2-0.1-1.1-2.1-0.9-3.4c0.3-1.3,0.9-3.3,0.9-3.3s0.3-1.5-1.8,0.9
								c-2.1,2.5-3.5,3-4.5,2.4c-1-0.7-0.7-3.3,0-4.8s2.6-4.9,2.6-4.9s-2.2,1.4-3.2,1.9s-3-1.2-2.4-3.2c0.7-2.1,5.6-11.8,16.3-17
								s20.9-8.5,32.2-9.6c11.2-1,22.1-1.3,30.7-2.2c8.7-0.9,16.5-2.8,19.5-4.8s8-4.9,3.9-14.2c-4.1-9.4-12.9-19.1-12.9-19.1
								l-14-15.3L848.3,128.4z"/>
							<g>
								<polygon class="st5" points="868.8,195.5 865.9,200.5 863.1,205.3 868.8,205.3 874.4,205.3 871.5,200.5 								"/>
								<polygon class="st5" points="856.8,208.3 853.9,213.3 851.1,218.1 856.8,218.1 862.4,218.1 859.5,213.3 								"/>
								<polygon class="st5" points="882.3,213.3 879.4,218.1 876.7,223 882.3,223 887.9,223 885.1,218.1 								"/>
								<polygon class="st5" points="889.6,185.9 886.9,190.7 884,195.5 889.6,195.5 895.3,195.5 892.5,190.7 								"/>
								<polygon class="st5" points="906.9,172 904.2,176.8 901.3,181.7 906.9,181.7 912.7,181.7 909.8,176.8 								"/>
								<polygon class="st5" points="882.3,160.7 879.4,165.7 876.7,170.5 882.3,170.5 887.9,170.5 885.1,165.7 								"/>
								<polygon class="st5" points="897,150.5 894.2,155.3 891.4,160.2 897,160.2 902.7,160.2 899.9,155.3 								"/>
								<polygon class="st5" points="875.5,139.7 872.7,144.5 869.8,149.3 875.5,149.3 881.1,149.3 878.3,144.5 								"/>
								<polygon class="st5" points="906.9,200.1 904.2,204.9 901.3,209.9 906.9,209.9 912.7,209.9 909.8,204.9 								"/>
							</g>
							<path class="st5" d="M846.2,209.1v-10.3c0,0,0.2-1.3-0.7-1.2c-1,0.1-8,0.7-10.2,0.7c-2.2-0.1-3.7,0.1-3.7,0.1
								s-1.5,0.2-1.3,0.8c0.1,0.6,0.7,15.5,0.7,15.5v5l0.3,1c0,0-0.1,0.6,0.6,0.6c0.7,0.1,4.8,0.4,4.8,0.4l5.5,0.8
								c0,0,4.1,0.8,4.1,0.1C846.2,221.8,846.2,209.1,846.2,209.1z"/>
							<g>
								<line class="st4" x1="830.3" y1="198.3" x2="831.2" y2="220.9"/>
								<line class="st4" x1="846.2" y1="197.5" x2="846.2" y2="222.9"/>
							</g>
							<g>
								<path class="st4" d="M851.3,128.4c0,0,30.8,2.6,52.5,27.8c21.6,25.2,22.6,50.5,3.1,63.6c-19.4,13.2-45.8,6.1-57,3.8
									c-11.7-2.4-33.6-5.2-43.3,2.1c-9.7,7.3-14.6,15.9-16.9,14c-2.4-1.9,5-10.9,5-10.9s-8.1,12-10.7,11.2
									c-2.6-0.9,0.8-8.9,0.8-8.9"/>
								<path class="st4" d="M861.3,155.3c0,0,20.8,21,16.9,32.1c-4,11.1-49.5,10.9-49.5,10.9s-30.8,2-45.6,15.7
									c0,0-10,8.8-8.3,13.4s7.3-3.4,7.3-3.4"/>
								<path class="st4" d="M784.8,220.9c0,0-8.8,9.8-7.3,14.4c1.3,4.6,7.3-3.9,11.3-9.4"/>
							</g>
						</g>
						<g>
							<path class="st11" d="M859.6,103.1c0,3.7-3,6.7-6.8,6.7s-6.8-3-6.8-6.7s3-6.7,6.8-6.7S859.6,99.4,859.6,103.1z"/>
							<g>
								<path class="st0" d="M830.1,82.3h8.5c5.6,0,10.3,5.2,10.3,11.7v13.2c0,0.4,0,0.8-0.1,1.1c0.1,0.4,0.2,0.8,0.2,1.2v8v0.5v8
									c0,2.9-2.4,5.3-5.3,5.3h-3.3c-3,0-5.3-2.4-5.3-5.3v-7.1h-5c-5.6,0-10.3-5.2-10.3-11.7V94C819.8,87.5,824.5,82.3,830.1,82.3z
									"/>
								<g>
									<path d="M846.7,102.9l-1.5-10.3c0,0-28.6,3.6-37.9-10.2c-9.2-13.8,0.5-19.3,5.1-18.5c4.7,0.8,10.2,7.5,10.2,7.5
										s-4.4-6,0-6.9s9.2,3.6,11.7,8.3c0,0,18.8-1.7,25.2,9.6c6.4,11.4,1.2,19.4-10.5,31.1l-0.8-6.5L846.7,102.9z"/>
									<ellipse cx="866.3" cy="69.8" rx="10.4" ry="10.3"/>
								</g>
								<g>
									<g>
										<path class="st12" d="M844.1,104.9c0,2.7-2.2,4.8-4.9,4.8s-4.9-2.2-4.9-4.8c0-2.7,2.2-4.8,4.9-4.8
											C841.9,100,844.1,102.2,844.1,104.9z"/>
										<path class="st12" d="M821.2,101c-0.3,0-0.6,0-0.9,0.1v5c0,0.8-0.1,1.5,0.1,2.2c0.2,0,0.6,0.1,0.8,0.1
											c2.1,0,3.7-1.6,3.7-3.7C824.9,102.6,823.2,101,821.2,101z"/>
									</g>
									<g>
										<g>
											<path class="st13" d="M835.3,98c0,0.9-0.8,1.7-1.7,1.7c-1,0-1.7-0.8-1.7-1.7s0.8-1.7,1.7-1.7S835.3,97.1,835.3,98z"/>
											<ellipse class="st13" cx="822.4" cy="97.8" rx="1.5" ry="1.5"/>
										</g>
										<g>
											<path class="st14" d="M825.5,104.9c0,0,0.9,2.6,2.8,2.8c1.8,0.2,3.3-1.9,3.4-3.4L825.5,104.9z"/>
											<g>
												<path class="st13" d="M825.1,105c0.3,0.9,1,1.9,1.7,2.5c1.4,1,3.2,0.6,4.3-0.8c0.6-0.8,1-1.7,1-2.7
													c0-0.3-0.3-0.6-0.6-0.6c-1.8,0.2-3.5,0.5-5.3,0.7c-0.3,0-0.5,0.1-0.8,0.1s-0.6,0.2-0.6,0.6c0,0.3,0.3,0.6,0.6,0.6
													c1.8-0.2,3.5-0.5,5.3-0.7c0.3,0,0.5-0.1,0.8-0.1c-0.2-0.2-0.4-0.4-0.6-0.6c-0.1,1.2-1,2.6-2.2,2.8
													c-1.1,0.3-2-0.6-2.5-1.5c-0.1-0.2-0.2-0.4-0.3-0.6c0-0.1,0,0.1,0,0v-0.1v-0.1C825.8,104.1,824.9,104.4,825.1,105z"/>
											</g>
										</g>
										<g>
											<ellipse class="st15" cx="836.3" cy="97.1" rx="6.1" ry="6.7"/>
											<ellipse class="st15" cx="821.2" cy="96.2" rx="5" ry="6.1"/>
											<polygon class="st16" points="828.1,96.3 828.1,102.2 825.1,100.3 											"/>
											<path class="st15" d="M826,98c0,0,2.5-1,4.2,0.5"/>
										</g>
									</g>
								</g>
								<g>
									<path class="st9" d="M859.6,103.1c0,3.7-3,6.7-6.8,6.7s-6.8-3-6.8-6.7s3-6.7,6.8-6.7S859.6,99.4,859.6,103.1z"/>
									<g>
										<g>
											<path class="st17" d="M849.8,103.9c0-0.2,0-0.3,0-0.5c0-0.1,0-0.1,0-0.2v-0.1c0-0.2,0,0.2,0,0s0.1-0.4,0.1-0.6
												c0-0.1,0.1-0.2,0.1-0.3s0-0.1,0.1-0.2v-0.1c0-0.1,0,0,0,0c0.1-0.1,0.1-0.2,0.2-0.3c0.1-0.1,0.1-0.2,0.2-0.3
												c0,0,0,0,0-0.1c0.1-0.1,0,0,0,0l0.1-0.1c0.1-0.1,0.2-0.2,0.3-0.3c0,0,0,0,0.1,0c0.1-0.1,0,0,0,0s0.1-0.1,0.2-0.1
												c0.1-0.1,0.3-0.2,0.4-0.2c0,0,0.1-0.1,0,0c-0.1,0,0.1,0,0.1,0c0.1,0,0.2-0.1,0.3-0.1s0.2,0,0.3-0.1c0.1,0,0.4-0.1,0.2,0
												c0.5-0.1,0.9,0,1.3,0c0.4,0,0.7-0.3,0.7-0.7s-0.3-0.6-0.7-0.7c-1.4-0.2-3,0.2-4,1.3c-0.7,0.8-1,1.8-1,2.8
												c0,0.2,0,0.4,0,0.6c0,0.4,0.3,0.7,0.7,0.7C849.5,104.6,849.8,104.3,849.8,103.9L849.8,103.9z"/>
										</g>
									</g>
								</g>
								<path class="st5" d="M835.2,137.3h14.2c3,0,5.6-2.5,5.6-5.6v-1.6c0-3-2.5-5.6-5.6-5.6h-14.2c-3,0-5.6,2.5-5.6,5.6v1.6
									C829.6,134.8,832.1,137.3,835.2,137.3z"/>
							</g>
						</g>
					</g>
				</g>
			</g>
		</g>
		<g>
			<g>
				<path class="st0" d="M623,94.2h47.5c6.1,0,10.9,4.9,10.9,10.9v19.3v6.7v21.2l-11.1-10.1H623c-6.1,0-10.9-4.9-10.9-10.9v-26.1
					C612,99.2,616.9,94.2,623,94.2z"/>
				<g>
					<path class="st0" d="M657.5,119.1c0,2.7,2.1,4.7,4.8,4.7s4.8-2.1,4.8-4.7c0-2.7-2.1-4.7-4.8-4.7
						C659.7,114.3,657.5,116.5,657.5,119.1z"/>
					<path class="st0" d="M641,119.1c0,2.7,2.1,4.7,4.8,4.7s4.8-2.1,4.8-4.7c0-2.7-2.1-4.7-4.8-4.7S641,116.5,641,119.1z"/>
					<path class="st0" d="M624.3,119.1c0,2.7,2.1,4.7,4.8,4.7s4.8-2.1,4.8-4.7c0-2.7-2.1-4.7-4.8-4.7
						C626.5,114.3,624.3,116.5,624.3,119.1z"/>
				</g>
			</g>
			<g>
				<g>
					<path class="st2" d="M927.8,90.2c-0.9-4.7-3.5-7.8-6.5-9.7c-5-3.3-11.7-3.3-16.8,0c-3,1.9-5.6,5-6.5,9.7
						c-1.5,8.6,6.1,13.4,7.5,15.1c0,0,1,0.8,1.4,1.7c0.1,0.2,0.3,0.9,0.4,2h5.5h5.5c0.2-1,0.3-1.7,0.4-2c0.5-0.9,1.4-1.7,1.4-1.7
						C921.7,103.4,929.4,98.8,927.8,90.2z"/>
					<g>
						<path class="st9" d="M910.7,109.9c0,0,0-8.3-0.6-9.4c-0.6-1.1-3.4-5.3-3.9-6.2c-0.5-0.9,0.5-1.9,1.2-0.6
							c0.7,1.1,3.3,4.8,3.9,6.4c0.6,1.5,1.1,10.1,1.1,10.1L910.7,109.9z"/>
						<path class="st9" d="M915.2,109.9c0,0,0-8.3,0.6-9.4c0.6-1.1,3.4-5.3,3.9-6.2c0.5-0.9-0.5-1.9-1.2-0.6
							c-0.7,1.1-3.3,4.8-3.9,6.4c-0.6,1.5-1.1,10.1-1.1,10.1L915.2,109.9z"/>
						<g>
							<path class="st9" d="M919.2,94c-1.1,0.5-3,0.6-4.5,0.2l0,0c-1.1,0.9-2.8,0.6-4-0.4c-1.5,0.6-3.5,0.7-3.8,0.7v-0.8
								c0.9,0,2.2-0.2,3.1-0.5c-0.9-0.9-1-1.8-0.5-2.5c0.7-0.9,1.5-0.8,2.1-0.4c0.7,0.5,1,1.6,0.4,2.5c-0.1,0.2-0.3,0.4-0.6,0.6
								c0.8,0.5,1.6,0.7,2.3,0.4c-0.3-0.2-0.5-0.3-0.6-0.5c-0.3-0.3-0.6-0.9,0.1-1.8c0.4-0.6,1-0.9,1.4-0.8c0.5,0.1,0.9,0.6,1,1.1
								c0.1,0.6-0.1,1.1-0.4,1.6c1.1,0.3,2.6,0.2,3.5-0.2L919.2,94z M914.3,91.8c-0.1,0.1-0.2,0.2-0.3,0.3c-0.3,0.4-0.2,0.7-0.1,0.9
								c0.2,0.2,0.4,0.4,0.8,0.5c0.4-0.4,0.6-0.8,0.5-1.2c-0.1-0.3-0.2-0.5-0.5-0.6C914.6,91.6,914.4,91.6,914.3,91.8z M910.9,93
								c0.3-0.1,0.5-0.3,0.6-0.5c0.4-0.6,0.2-1.1-0.2-1.4c-0.3-0.3-0.7-0.2-1,0.2c-0.3,0.4,0,1,0.5,1.5
								C910.8,92.8,910.8,92.9,910.9,93z"/>
						</g>
					</g>
					<g>
						<path class="st0" d="M912.9,108.1c-3,0-5.5-0.8-6-1c0,0.1,0.1,0.1,0.1,0.2c0.4,0.9,0.9,7.7,2,10.2c0.2,0.5,0.4,0.8,0.7,0.9
							c0.6,0.4,1.9,0.9,3.2,0.8c1.3,0.1,2.7-0.4,3.2-0.8c0.2-0.2,0.5-0.5,0.7-0.9c1-2.7,1.6-9.5,2-10.2c0-0.1,0.1-0.1,0.1-0.2
							C918.5,107.3,915.9,108.1,912.9,108.1z"/>
						<path d="M912.9,111.1c1.7,0,3.6-0.2,5.3-0.8c0.1-0.9,0.2-1.5,0.3-2.1c-3.6,1.3-7.6,1.3-11.2,0c0.1,0.6,0.2,1.3,0.3,2.1
							C909.3,110.9,911.2,111.1,912.9,111.1z"/>
						<path d="M912.9,114.6c1.5,0,3.2-0.2,4.8-0.6c0.1-0.7,0.2-1.4,0.3-2.1c-3.3,1.1-6.9,1.1-10.2,0c0.1,0.7,0.2,1.4,0.3,2.1
							C909.7,114.4,911.4,114.6,912.9,114.6z"/>
						<path d="M908.5,115.7c0.2,0.8,0.4,1.3,0.6,1.9c0,0.1,0.1,0.2,0.1,0.2c1.2,0.3,2.6,0.4,3.8,0.4s2.6-0.1,3.8-0.4
							c0-0.1,0.1-0.1,0.1-0.2c0.2-0.5,0.4-1.1,0.6-1.9C914.5,116.5,911.4,116.5,908.5,115.7z"/>
					</g>
				</g>
				<g>
					<path class="st0" d="M913.2,73.6L913.2,73.6c-1,0-1.6-0.7-1.6-1.6v-7.4c0-0.9,0.7-1.6,1.6-1.6l0,0c0.9,0,1.6,0.7,1.6,1.6V72
						C914.8,72.9,914.1,73.6,913.2,73.6z"/>
					<path class="st0" d="M924.7,75.6L924.7,75.6c-0.8-0.5-1-1.4-0.7-2.2l3.5-6.5c0.4-0.8,1.3-1,2.2-0.7l0,0c0.8,0.4,1,1.3,0.7,2.2
						l-3.5,6.5C926.4,75.7,925.4,76,924.7,75.6z"/>
					<path class="st0" d="M901.8,75.6L901.8,75.6c0.8-0.5,1-1.4,0.7-2.2l-3.5-6.5c-0.4-0.8-1.3-1-2.2-0.7l0,0
						c-0.8,0.4-1,1.3-0.7,2.2l3.5,6.5C900,75.7,901,76,901.8,75.6z"/>
					<path class="st0" d="M893.3,84.3L893.3,84.3c-0.2,0.9-1,1.4-1.9,1.2l-7.3-1.5c-0.9-0.2-1.4-1-1.2-1.9l0,0
						c0.2-0.9,1-1.4,1.9-1.2l7.3,1.5C893,82.7,893.5,83.4,893.3,84.3z"/>
					<path class="st0" d="M893,96.1L893,96.1c-0.3-0.9-1.1-1.3-2-1.1l-7.1,2.1c-0.9,0.3-1.3,1.1-1,2l0,0c0.3,0.9,1.1,1.3,2,1L892,98
						C892.7,97.9,893.1,97,893,96.1z"/>
					<path class="st0" d="M933.1,84.3L933.1,84.3c0.2,0.9,1,1.4,1.9,1.2l7.3-1.5c0.9-0.2,1.4-1,1.2-1.9l0,0c-0.2-0.9-1-1.4-1.9-1.2
						l-7.3,1.5C933.5,82.7,932.9,83.4,933.1,84.3z"/>
					<path class="st0" d="M933.5,96.1L933.5,96.1c0.3-0.9,1.1-1.3,2-1.1l7.1,2.1c0.9,0.3,1.3,1.1,1,2l0,0c-0.3,0.9-1.1,1.3-2,1
						l-7.1-2.1C933.8,97.9,933.2,97,933.5,96.1z"/>
				</g>
			</g>
		</g>
	</g>
</g>
<g>
	<g>
		<line class="st18" x1="545.7" y1="366.7" x2="945.4" y2="366.7"/>
		<g>
			<rect x="644.8" y="362.6" class="st19" width="86.2" height="18.3"/>
			<g>
				<g>
					<path class="st19" d="M668.8,248.8c0,0,7.1,4.6,16.4,15.7c11.8,13.9,27.2,35.4,36.8,40.7c21.7,11.9,56.9,13.7,56.9,13.7
						l-16.4,33.3l-78.5-10L668.8,248.8z"/>
					<g>
						<path class="st20" d="M713.9,326.8L713.9,326.8c-1.6,0.3-3.2-0.9-3.5-2.6l-1.8-9.7c-0.3-1.7,0.7-3.4,2.4-3.7l0,0
							c1.6-0.3,3.2,0.9,3.5,2.6l1.8,9.7C716.6,324.9,715.6,326.5,713.9,326.8z"/>
						<path class="st20" d="M699,300.4L699,300.4c-1.6,0.3-3.2-0.9-3.5-2.6l-1.8-9.7c-0.3-1.7,0.7-3.4,2.4-3.7l0,0
							c1.6-0.3,3.2,0.9,3.5,2.6l1.8,9.7C701.7,298.4,700.7,300.1,699,300.4z"/>
						<path class="st20" d="M726.4,343.8L726.4,343.8c-1.6,0.3-3.2-0.9-3.5-2.6l-1.8-9.7c-0.3-1.7,0.7-3.4,2.4-3.7l0,0
							c1.6-0.3,3.2,0.9,3.5,2.6l1.8,9.7C729.1,341.9,728,343.5,726.4,343.8z"/>
						<path class="st20" d="M736.2,332.1L736.2,332.1c-1.6,0.3-3.2-0.9-3.5-2.6l-1.8-9.7c-0.3-1.7,0.7-3.4,2.4-3.7l0,0
							c1.6-0.3,3.2,0.9,3.5,2.6l1.8,9.7C738.9,330.2,737.8,331.8,736.2,332.1z"/>
						<path class="st20" d="M752.2,348.9L752.2,348.9c-1.6,0.3-3.2-0.9-3.5-2.6l-1.8-9.7c-0.3-1.7,0.7-3.4,2.4-3.7l0,0
							c1.6-0.3,3.2,0.9,3.5,2.6l1.8,9.7C754.9,346.9,753.8,348.6,752.2,348.9z"/>
						<path class="st20" d="M763.8,335.7L763.8,335.7c-1.6,0.3-3.2-0.9-3.5-2.6l-1.8-9.7c-0.3-1.7,0.7-3.4,2.4-3.7l0,0
							c1.6-0.3,3.2,0.9,3.5,2.6l1.8,9.7C766.5,333.7,765.4,335.4,763.8,335.7z"/>
					</g>
				</g>
				<g>
					<path class="st19" d="M653.4,247.3c0,0,22.7-11.3,42.7,41.6c14,36.8,9.4,63.1,9.4,63.1l-114.4-1.4
						C591.1,350.7,613,261.9,653.4,247.3z"/>
					<g>
						<path class="st20" d="M638.1,331.7L638.1,331.7c-1.6,0.3-3.2-0.9-3.5-2.6l-1.8-9.7c-0.3-1.7,0.7-3.4,2.4-3.7l0,0
							c1.6-0.3,3.2,0.9,3.5,2.6l1.8,9.7C640.8,329.7,639.8,331.4,638.1,331.7z"/>
						<path class="st20" d="M657.8,317.9L657.8,317.9c-1.6,0.3-3.2-0.9-3.5-2.6l-1.8-9.7c-0.3-1.7,0.7-3.4,2.4-3.7l0,0
							c1.6-0.3,3.2,0.9,3.5,2.6l1.8,9.7C660.5,315.9,659.5,317.6,657.8,317.9z"/>
						<path class="st20" d="M675.5,334.8L675.5,334.8c-1.6,0.3-3.2-0.9-3.5-2.6l-1.8-9.7c-0.3-1.7,0.7-3.4,2.4-3.7l0,0
							c1.6-0.3,3.2,0.9,3.5,2.6l1.8,9.7C678.2,332.9,677.1,334.5,675.5,334.8z"/>
						<path class="st20" d="M691.3,314.3L691.3,314.3c-1.6,0.3-3.2-0.9-3.5-2.6L686,302c-0.3-1.7,0.7-3.4,2.4-3.7l0,0
							c1.6-0.3,3.2,0.9,3.5,2.6l1.8,9.7C694,312.3,693,314,691.3,314.3z"/>
						<path class="st20" d="M674.3,297.6L674.3,297.6c-1.6,0.3-3.2-0.9-3.5-2.6l-1.8-9.7c-0.3-1.7,0.7-3.4,2.4-3.7l0,0
							c1.6-0.3,3.2,0.9,3.5,2.6l1.8,9.7C677,295.7,675.9,297.3,674.3,297.6z"/>
						<path class="st20" d="M656.7,277.9L656.7,277.9c-1.6,0.3-3.2-0.9-3.5-2.6l-1.8-9.7c-0.3-1.7,0.7-3.4,2.4-3.7l0,0
							c1.6-0.3,3.2,0.9,3.5,2.6l1.8,9.7C659.4,275.9,658.3,277.6,656.7,277.9z"/>
						<path class="st20" d="M673.8,269.9L673.8,269.9c-1.6,0.3-3.2-0.9-3.5-2.6l-1.8-9.7c-0.3-1.7,0.7-3.4,2.4-3.7l0,0
							c1.6-0.3,3.2,0.9,3.5,2.6l1.8,9.7C676.5,267.9,675.5,269.6,673.8,269.9z"/>
						<path class="st20" d="M701,343.2L701,343.2c-1.6,0.3-3.2-0.9-3.5-2.6l-1.8-9.7c-0.3-1.7,0.7-3.4,2.4-3.7l0,0
							c1.6-0.3,3.2,0.9,3.5,2.6l1.8,9.7C703.7,341.3,702.6,342.9,701,343.2z"/>
						<path class="st20" d="M641.4,296.6L641.4,296.6c-1.6,0.3-3.2-0.9-3.5-2.6l-1.8-9.7c-0.3-1.7,0.7-3.4,2.4-3.7l0,0
							c1.6-0.3,3.2,0.9,3.5,2.6l1.8,9.7C644.1,294.7,643,296.3,641.4,296.6z"/>
					</g>
				</g>
				<g>
					<g>
						<path class="st9" d="M658,330.7l-4.2,34.9c0,0,25.5-1.2,39.5,0.6c14,1.8,22.6,2.9,22.6,2.9s4.6,0,4.1-2.7
							c-0.6-2.7-0.5-2.2,1.7-1.6s5.4-0.8,5.6-2.5c0.2-1.8-0.7-3.9-0.7-3.9s2.8,0.5,4.4,0.4c1.5-0.2,6.1-2.3,5.6-4.5
							s-2.3-10.4-27.8-16.6C683.2,331.3,658,330.7,658,330.7z"/>
						<g>
							<path class="st18" d="M652,365.7c0,0,32.4-2.3,59.1,2.9c2.3,0.4,11.1,1.8,8.4-3.7c-2.6-5.6-15.9-8.6-22.3-9.4"/>
							<path class="st18" d="M699.5,344.6c0,0,7.8,1.6,14,4.7c4.6,2.2,9.1,5.1,11.6,7.4c5.7,5.1,0.4,10.2-6.1,7.4"/>
							<path class="st18" d="M656.4,330.7c0,0,33.4,0.1,61.7,9.6c28.2,9.5,18.8,22.3,8.1,17.3"/>
						</g>
					</g>
					<path class="st9" d="M651.9,248.5c0,0-43-1.2-75.6,47.3s-28.6,98.1,42.5,81.8c9.9-2.3,39.3-11.1,39.3-11.1l3.5-36.9
						c0,0-33.2-2.8-56.2-4.1L651.9,248.5z"/>
					<g>
						<path class="st21" d="M639.1,372.2c9.8-2.8,19-5.6,19-5.6l3.5-36.9c0,0-7.5-0.6-17.9-1.4L639.1,372.2z"/>
						<g>
							<line class="st18" x1="643" y1="335.3" x2="661" y2="336.5"/>
							<line class="st18" x1="642" y1="344.5" x2="659.8" y2="344.6"/>
							<line class="st18" x1="641.1" y1="353.7" x2="659.6" y2="352.4"/>
							<line class="st18" x1="640" y1="362.6" x2="658.6" y2="359.4"/>
						</g>
					</g>
					<g>
						<path class="st18" d="M651.9,248.5c0,0-43-1.2-75.6,47.3s-28.6,98.1,42.5,81.8c9.9-2.3,39.3-11.1,39.3-11.1l3.5-36.9
							c0,0-33.2-2.8-56.2-4.1"/>
						<line class="st18" x1="617.3" y1="326.3" x2="628.4" y2="305"/>
					</g>
					<g>
						<path class="st20" d="M581.7,336.2L581.7,336.2c-1.6,0.3-3.2-0.9-3.5-2.6l-1.8-9.7c-0.3-1.7,0.7-3.4,2.4-3.7l0,0
							c1.6-0.3,3.2,0.9,3.5,2.6l1.8,9.7C584.4,334.3,583.3,335.9,581.7,336.2z"/>
						<path class="st20" d="M572.1,366.7L572.1,366.7c-1.6,0.3-3.2-0.9-3.5-2.6l-1.8-9.7c-0.3-1.7,0.7-3.4,2.4-3.7l0,0
							c1.6-0.3,3.2,0.9,3.5,2.6l1.8,9.7C574.8,364.7,573.7,366.4,572.1,366.7z"/>
						<path class="st20" d="M600.3,370.5L600.3,370.5c-1.6,0.3-3.2-0.9-3.5-2.6l-1.8-9.7c-0.3-1.7,0.7-3.4,2.4-3.7l0,0
							c1.6-0.3,3.2,0.9,3.5,2.6l1.8,9.7C603,368.6,601.9,370.2,600.3,370.5z"/>
						<path class="st20" d="M615.3,346.7L615.3,346.7c-1.6,0.3-3.2-0.9-3.5-2.6l-1.8-9.7c-0.3-1.7,0.7-3.4,2.4-3.7l0,0
							c1.6-0.3,3.2,0.9,3.5,2.6l1.8,9.7C618,344.7,616.9,346.4,615.3,346.7z"/>
						<path class="st20" d="M609,317.9L609,317.9c-1.6,0.3-3.2-0.9-3.5-2.6l-1.8-9.7c-0.3-1.7,0.7-3.4,2.4-3.7l0,0
							c1.6-0.3,3.2,0.9,3.5,2.6l1.8,9.7C611.7,315.9,610.6,317.6,609,317.9z"/>
						<path class="st20" d="M620.6,293.9L620.6,293.9c-1.6,0.3-3.2-0.9-3.5-2.6l-1.8-9.7c-0.3-1.7,0.7-3.4,2.4-3.7l0,0
							c1.6-0.3,3.2,0.9,3.5,2.6l1.8,9.7C623.3,292,622.2,293.6,620.6,293.9z"/>
						<path class="st20" d="M636.1,269.9L636.1,269.9c-1.6,0.3-3.2-0.9-3.5-2.6l-1.8-9.7c-0.3-1.7,0.7-3.4,2.4-3.7l0,0
							c1.6-0.3,3.2,0.9,3.5,2.6l1.8,9.7C638.8,267.9,637.8,269.6,636.1,269.9z"/>
						<path class="st20" d="M590.9,301.9L590.9,301.9c-1.6,0.3-3.2-0.9-3.5-2.6l-1.8-9.7c-0.3-1.7,0.7-3.4,2.4-3.7l0,0
							c1.6-0.3,3.2,0.9,3.5,2.6l1.8,9.7C593.6,300,592.5,301.6,590.9,301.9z"/>
						<path class="st20" d="M632.2,366.7L632.2,366.7c-1.6,0.3-3.2-0.9-3.5-2.6l-1.8-9.7c-0.3-1.7,0.7-3.4,2.4-3.7l0,0
							c1.6-0.3,3.2,0.9,3.5,2.6l1.8,9.7C634.9,364.7,633.9,366.4,632.2,366.7z"/>
					</g>
				</g>
				<g>
					<path class="st22" d="M637.5,216.8c0,4.2,3.4,7.6,7.7,7.6s7.7-3.4,7.7-7.6c0-4.2-3.4-7.6-7.7-7.6S637.5,212.6,637.5,216.8z"/>
					<path class="st23" d="M668.5,247.5c0,3.5-4.9,6.4-11,6.4s-11-2.9-11-6.4s4.9-6.4,11-6.4S668.5,243.9,668.5,247.5z"/>
					<path class="st19" d="M671,193.1h-9.7c-6.4,0-11.7,6-11.7,13.3v15c0,0.4,0,0.8,0.1,1.3c-0.1,0.4-0.2,0.9-0.2,1.4v9.1v0.5v9.1
						c0,3.3,2.7,6,6,6h3.8c3.3,0,6-2.7,6-6v-8.1h5.6c6.4,0,11.7-6,11.7-13.3v-15C682.7,199.1,677.5,193.1,671,193.1z"/>
					<g>
						<g>
							<path class="st13" d="M663.4,211.3c0,1.2,1,2.2,2.2,2.2s2.2-1,2.2-2.2s-1-2.2-2.2-2.2C664.3,209.1,663.4,210.1,663.4,211.3z"
								/>
							<path class="st13" d="M677.6,211c0,1,0.8,1.9,1.9,1.9c1,0,1.9-0.8,1.9-1.9c0-1-0.8-1.9-1.9-1.9
								C678.5,209.1,677.6,210,677.6,211z"/>
						</g>
						<g>
							<path class="st14" d="M675.6,219.9c0,0-1.1,3.2-3.4,3.4c-2.3,0.2-4.1-2.3-4.3-4.4L675.6,219.9z"/>
							<g>
								<path class="st13" d="M675.1,219.8c0,0.1-0.1,0.2-0.1,0.2c0-0.1-0.1,0.1-0.1,0.2c-0.1,0.1-0.1,0.2-0.2,0.4
									c-0.3,0.6-0.7,1.1-1.2,1.5c-0.5,0.5-1.3,0.8-2,0.7c-0.8-0.1-1.5-0.6-2-1.3c-0.6-0.7-1-1.6-1.1-2.6c-0.2,0.2-0.3,0.3-0.5,0.5
									c2.2,0.3,4.5,0.5,6.7,0.8c0.3,0,0.6,0.1,1,0.1c0.3,0,0.5-0.3,0.5-0.5c0-0.3-0.2-0.5-0.5-0.5c-2.2-0.3-4.5-0.5-6.7-0.8
									c-0.3,0-0.6-0.1-1-0.1c-0.3,0-0.5,0.3-0.5,0.5c0.1,2,1.5,4.1,3.5,4.7c1.9,0.6,3.6-0.6,4.5-2.2c0.3-0.4,0.5-0.9,0.7-1.4
									C676.3,219.4,675.3,219.2,675.1,219.8z"/>
							</g>
						</g>
						<g>
							<path class="st12" d="M655.8,219.3c0,3,2.4,5.4,5.4,5.4s5.4-2.4,5.4-5.4s-2.4-5.4-5.4-5.4
								C658.2,213.9,655.8,216.3,655.8,219.3z"/>
							<path class="st12" d="M681.3,215.7c0.3,0,0.6,0,1,0.1v5.6c0,0.8,0,1.7-0.2,2.4c-0.2,0-0.5,0.1-0.8,0.1
								c-2.3,0-4.1-1.8-4.1-4.1C677.1,217.5,679,215.7,681.3,215.7z"/>
						</g>
						<polygon class="st16" points="673.1,209.1 672.7,216.6 676.2,214.4 						"/>
					</g>
					<path d="M652.2,216.6l1.8-11.7c0,0,32.5,4.1,43-11.7s-0.5-22-5.9-21.1s-11.6,8.6-11.6,8.6s5-6.8,0-7.9
						c-5-1.1-10.5,4.1-13.4,9.5c0,0-21.4-2-28.7,11c-7.2,13-1.4,22.2,11.9,35.5l0.9-7.5L652.2,216.6z"/>
					<g>
						<path class="st9" d="M637.5,216.8c0,4.2,3.4,7.6,7.7,7.6s7.7-3.4,7.7-7.6c0-4.2-3.4-7.6-7.7-7.6S637.5,212.6,637.5,216.8z"/>
						<g>
							<g>
								<path class="st17" d="M650,217.8c0-0.6-0.1-1.3-0.2-1.9c-0.3-1.2-1.1-2.3-2.3-2.9c-1-0.4-2-0.5-3.1-0.4
									c-0.3,0-0.6,0.3-0.6,0.6s0.3,0.7,0.6,0.6c0.5,0,0.9-0.1,1.4,0h0.1c-0.2,0,0,0,0,0c0.1,0,0.2,0,0.3,0.1
									c0.2,0,0.4,0.1,0.5,0.2h0.1c-0.2-0.1,0,0,0,0c0.1,0,0.1,0.1,0.2,0.1c0.1,0.1,0.3,0.2,0.4,0.3c-0.2-0.1,0,0,0.1,0.1
									c0.1,0,0.1,0.1,0.1,0.1c0.1,0.1,0.2,0.2,0.3,0.3c-0.1-0.2,0,0,0,0.1s0.1,0.1,0.1,0.2c0.1,0.1,0.1,0.2,0.2,0.4
									c0,0.1,0.1,0.1,0.1,0.2c0,0.1-0.1-0.2,0,0v0.1c0,0.1,0.1,0.2,0.1,0.4c0.1,0.2,0.1,0.4,0.2,0.6v0.1c0,0.2,0-0.2,0,0
									c0,0.1,0,0.2,0,0.3c0,0.2,0,0.4,0,0.6c0,0.3,0.3,0.6,0.6,0.6C649.7,218.5,650,218.2,650,217.8L650,217.8z"/>
							</g>
						</g>
					</g>
				</g>
			</g>
		</g>
		<g>
			<g>
				<polygon class="st19" points="740.4,301.9 855.9,301.9 834.9,380.8 720,380.8 				"/>
				<ellipse class="st24" cx="787.9" cy="341.4" rx="9.7" ry="9.7"/>
			</g>
		</g>
	</g>
	<g>
		<g>
			<path class="st19" d="M563.4,170h37.1c4.7,0,8.6,3.8,8.6,8.6v15.2v5.3v16.6l-8.7-8h-37c-4.7,0-8.6-3.8-8.6-8.6v-20.5
				C554.8,173.8,558.7,170,563.4,170z"/>
			<text transform="matrix(1 0 0 1 572.3474 198.8104)" class="st25 st26 st27">?</text>
		</g>
	</g>
</g>
</svg>
