<?xml version="1.0" encoding="utf-8"?>
<!-- Generator: Adobe Illustrator 26.0.1, SVG Export Plug-In . SVG Version: 6.00 Build 0)  -->
<svg version="1.1" id="Layer_1" xmlns="http://www.w3.org/2000/svg" xmlns:xlink="http://www.w3.org/1999/xlink" x="0px" y="0px"
	 viewBox="0 0 201 108" style="enable-background:new 0 0 201 108;" xml:space="preserve">
<style type="text/css">
	.st0{fill:#F5F5F5;stroke:#302D2D;stroke-width:0.7391;stroke-linecap:round;stroke-linejoin:round;stroke-miterlimit:10;}
	.st1{fill:#04C4D5;stroke:#302D2D;stroke-width:0.7391;stroke-linecap:round;stroke-linejoin:round;stroke-miterlimit:10;}
	.st2{fill:#697271;stroke:#302D2D;stroke-width:0.7391;stroke-linecap:round;stroke-linejoin:round;stroke-miterlimit:10;}
	.st3{fill:#6DAF75;stroke:#302D2D;stroke-width:0.7391;stroke-linecap:round;stroke-linejoin:round;stroke-miterlimit:10;}
</style>
<g>
	<path class="st0" d="M5.2,19.1c0-5.4,5.4-9.9,11.9-9.9h169.7c6.6,0,11.9,4.4,11.9,9.9v73.6c0,5.4-5.4,9.9-11.9,9.9H17.1
		c-6.6,0-11.9-4.4-11.9-9.9V19.1z"/>
	<rect x="16" y="40.9" class="st1" width="10.1" height="8.4"/>
	<rect x="29.5" y="40.9" class="st1" width="10.1" height="8.4"/>
	<rect x="43.1" y="40.9" class="st1" width="10.2" height="8.4"/>
	<rect x="56.6" y="40.9" class="st1" width="10.2" height="8.4"/>
	<rect x="70.1" y="40.9" class="st1" width="10.2" height="8.4"/>
	<rect x="83.7" y="40.9" class="st1" width="10.1" height="8.4"/>
	<rect x="97.2" y="40.9" class="st1" width="10.1" height="8.4"/>
	<rect x="110.7" y="40.9" class="st1" width="10.1" height="8.4"/>
	<rect x="124.3" y="40.9" class="st1" width="10.1" height="8.4"/>
	<rect x="137.8" y="40.9" class="st1" width="10.1" height="8.4"/>
	<rect x="151.3" y="40.9" class="st1" width="10.1" height="8.4"/>
	<rect x="164.9" y="40.9" class="st1" width="10.2" height="8.4"/>
	<rect x="178.4" y="40.9" class="st1" width="10.2" height="8.4"/>
	<rect x="16" y="28.3" class="st1" width="10.1" height="6.5"/>
	<rect x="29.5" y="28.3" class="st1" width="10.1" height="6.5"/>
	<rect x="43.1" y="28.3" class="st1" width="10.2" height="6.5"/>
	<rect x="56.6" y="28.3" class="st1" width="10.2" height="6.5"/>
	<rect x="70.1" y="28.3" class="st1" width="10.2" height="6.5"/>
	<rect x="83.7" y="28.3" class="st1" width="10.1" height="6.5"/>
	<rect x="97.2" y="28.3" class="st1" width="10.1" height="6.5"/>
	<rect x="110.7" y="28.3" class="st1" width="10.1" height="6.5"/>
	<rect x="124.3" y="28.3" class="st1" width="10.1" height="6.5"/>
	<rect x="137.8" y="28.3" class="st1" width="10.1" height="6.5"/>
	<rect x="151.3" y="28.3" class="st1" width="10.1" height="6.5"/>
	<rect x="164.9" y="28.3" class="st1" width="10.2" height="6.5"/>
	<rect x="178.4" y="28.3" class="st1" width="10.2" height="6.5"/>
	<rect x="16" y="52.1" class="st1" width="13.5" height="8.4"/>
	<rect x="47" y="52.1" class="st1" width="10.1" height="8.4"/>
	<rect x="33.5" y="52.1" class="st1" width="10.1" height="8.4"/>
	<rect x="60.6" y="52.1" class="st1" width="10.1" height="8.4"/>
	<rect x="74.1" y="52.1" class="st1" width="10.2" height="8.4"/>
	<rect x="87.6" y="52.1" class="st1" width="10.2" height="8.4"/>
	<rect x="101.1" y="52.1" class="st1" width="10.2" height="8.4"/>
	<rect x="114.7" y="52.1" class="st1" width="10.2" height="8.4"/>
	<rect x="128.2" y="52.1" class="st1" width="10.1" height="8.4"/>
	<rect x="141.7" y="52.1" class="st1" width="10.1" height="8.4"/>
	<rect x="155.3" y="52.1" class="st1" width="10.1" height="8.4"/>
	<rect x="16" y="63.3" class="st1" width="18.6" height="8.4"/>
	<rect x="39.7" y="63.3" class="st1" width="10.1" height="8.4"/>
	<rect x="53.2" y="63.3" class="st1" width="10.1" height="8.4"/>
	<rect x="66.8" y="63.3" class="st1" width="10.1" height="8.4"/>
	<rect x="80.3" y="63.3" class="st1" width="10.2" height="8.4"/>
	<rect x="93.8" y="63.3" class="st1" width="10.2" height="8.4"/>
	<rect x="107.3" y="63.3" class="st1" width="10.2" height="8.4"/>
	<rect x="120.9" y="63.3" class="st1" width="10.1" height="8.4"/>
	<rect x="134.4" y="63.3" class="st1" width="10.1" height="8.4"/>
	<rect x="147.9" y="63.3" class="st1" width="10.1" height="8.4"/>
	<polygon class="st1" points="178.4,71.7 162.7,71.7 162.7,63.3 169.9,63.3 169.9,52.1 178.4,52.1 188.6,52.1 188.6,63.3 
		188.6,71.7 	"/>
	<rect x="16" y="74.5" class="st1" width="13.5" height="8.4"/>
	<rect x="33.6" y="74.5" class="st1" width="10.1" height="8.4"/>
	<rect x="47.1" y="74.5" class="st1" width="10.1" height="8.4"/>
	<rect x="60.6" y="74.5" class="st1" width="10.2" height="8.4"/>
	<rect x="74.2" y="74.5" class="st1" width="10.2" height="8.4"/>
	<rect x="87.7" y="74.5" class="st1" width="10.2" height="8.4"/>
	<rect x="101.2" y="74.5" class="st1" width="10.2" height="8.4"/>
	<rect x="114.7" y="74.5" class="st1" width="10.1" height="8.4"/>
	<rect x="128.3" y="74.5" class="st1" width="10.1" height="8.4"/>
	<rect x="141.8" y="74.5" class="st1" width="10.1" height="8.4"/>
	<rect x="156.4" y="74.5" class="st1" width="32.1" height="8.4"/>
	<rect x="16" y="85.7" class="st1" width="10.1" height="8.4"/>
	<rect x="29.5" y="85.7" class="st1" width="10.1" height="8.4"/>
	<rect x="43.1" y="85.7" class="st1" width="10.2" height="8.4"/>
	<rect x="56.6" y="85.7" class="st1" width="77.8" height="8.4"/>
	<rect x="137.8" y="85.7" class="st1" width="10.1" height="8.4"/>
	<rect x="151.3" y="85.7" class="st1" width="10.1" height="8.4"/>
	<rect x="164.9" y="85.7" class="st1" width="10.2" height="8.4"/>
	<rect x="178.4" y="85.7" class="st1" width="10.2" height="8.4"/>
	<rect x="24" y="7.2" class="st2" width="154.4" height="11.5"/>
	<rect x="163.8" y="11" class="st3" width="6.8" height="7.8"/>
	<rect x="153" y="11" class="st3" width="6.8" height="7.8"/>
	<rect x="142.3" y="11" class="st3" width="6.8" height="7.8"/>
	<rect x="131.6" y="11" class="st3" width="6.8" height="7.8"/>
</g>
</svg>
