<?xml version="1.0" encoding="utf-8"?>
<!-- Generator: Adobe Illustrator 26.0.1, SVG Export Plug-In . SVG Version: 6.00 Build 0)  -->
<svg version="1.1" xmlns="http://www.w3.org/2000/svg" xmlns:xlink="http://www.w3.org/1999/xlink" x="0px" y="0px"
	 viewBox="0 0 995.5 500" style="enable-background:new 0 0 995.5 500;" xml:space="preserve">
<style type="text/css">
	.st0{fill:#FFFFFF;}
	.st1{fill:#FFFFFF;stroke:#000000;stroke-width:0.9502;stroke-miterlimit:10;}
	.st2{fill:#DB7294;stroke:#000000;stroke-width:0.9502;stroke-miterlimit:10;}
	.st3{fill:#EEDA36;stroke:#000000;stroke-width:0.9502;stroke-miterlimit:10;}
	.st4{fill:#1A71B9;}
	.st5{fill:none;stroke:#000000;stroke-width:0.9502;stroke-miterlimit:10;}
	.st6{fill:#93FF7F;}
	.st7{fill:#CCFFAA;}
	.st8{fill:#EEDA36;}
	.st9{fill:#9E88E5;}
	.st10{fill:#DB7294;}
	.st11{fill:none;stroke:#000000;stroke-width:1.9005;stroke-miterlimit:10;}
	.st12{fill:#E4B0C8;}
	.st13{fill:#141414;}
	.st14{fill:#F7F6F6;}
	.st15{fill:none;stroke:#672ED6;stroke-width:0.9502;stroke-miterlimit:10;}
	.st16{fill:#D96980;}
	.st17{fill:#090909;}
	.st18{fill:none;stroke:#000000;stroke-width:0.9287;stroke-miterlimit:10;}
	.st19{fill:#FFFFFF;stroke:#000000;stroke-width:0.9287;stroke-miterlimit:10;}
	.st20{fill:#672ED6;}
	.st21{fill:#672ED6;stroke:#000000;stroke-width:0.9287;stroke-miterlimit:10;}
	.st22{fill:none;stroke:#000000;stroke-width:1.8575;stroke-miterlimit:10;}
	.st23{fill:#672ED6;stroke:#211F21;stroke-width:0.9287;stroke-miterlimit:10;}
	.st24{fill:#DB7294;stroke:#000000;stroke-width:0.9287;stroke-miterlimit:10;}
	.st25{fill:none;stroke:#000000;stroke-width:0.9287;}
	.st26{font-family:'Montserrat-ExtraBold';}
	.st27{font-size:29.8761px;}
	.st28{fill:#FFFFFF;stroke:#000000;stroke-width:0.7382;stroke-miterlimit:10;}
	.st29{fill:#846BFA;}
	.st30{fill:none;stroke:#000000;stroke-width:0.7382;stroke-linecap:round;stroke-linejoin:round;stroke-miterlimit:10;}
</style>
<g id="BACKGROUND">
	<rect x="495.5" class="st0" width="500" height="500"/>
</g>
<g id="OBJECTS">
	<g id="OBJECTS_00000137103988822217593580000000392841142784365471_">
		<g>
			<g>
				<g>
					<path class="st1" d="M691.4,284.7h220.1c13.2,0,24-10.7,24-23.9V107.1c0-13.2-10.8-23.9-24-23.9H691.4c-13.2,0-24,10.7-24,23.9
						v153.8C667.5,274.1,678.2,284.7,691.4,284.7z"/>
					<g>
						<g>
							<path class="st2" d="M693.6,101.7c0,2.6-2,4.6-4.6,4.6c-2.5,0-4.6-2.1-4.6-4.6c0-2.6,2-4.6,4.6-4.6
								C691.6,97.1,693.6,99.1,693.6,101.7z"/>
							<path class="st3" d="M711.7,101.7c0,2.6-2,4.6-4.6,4.6c-2.5,0-4.6-2.1-4.6-4.6c0-2.6,2-4.6,4.6-4.6
								C709.7,97.1,711.7,99.1,711.7,101.7z"/>
							<ellipse class="st4" cx="725.2" cy="101.7" rx="4.6" ry="4.6"/>
						</g>
						<line class="st5" x1="668.1" y1="117.7" x2="935.5" y2="117.7"/>
					</g>
				</g>
				<g>
					<g>
						<path class="st6" d="M718.5,150.7v-21.4c-11.9,0-21.5,9.6-21.5,21.4c0,11.9,9.6,21.4,21.5,21.4s21.5-9.6,21.5-21.4
							c0-1.5-0.2-3-0.5-4.6L718.5,150.7z"/>
						<path class="st7" d="M742.2,142.4c-2.1-9.7-10.7-16.9-20.9-16.9V147L742.2,142.4z"/>
					</g>
					<g>
						<g>
							<path class="st8" d="M693.9,186.6h-1.8c-1.2,0-2.2-0.9-2.2-2.2v-1.8c0-1.2,1-2.2,2.2-2.2h1.8c1.2,0,2.2,0.9,2.2,2.2v1.8
								C696.1,185.5,695.1,186.6,693.9,186.6z"/>
							<path class="st8" d="M693.9,196.4h-1.8c-1.2,0-2.2-0.9-2.2-2.2v-1.8c0-1.2,1-2.2,2.2-2.2h1.8c1.2,0,2.2,0.9,2.2,2.2v1.8
								C696.1,195.4,695.1,196.4,693.9,196.4z"/>
							<path class="st8" d="M693.9,206.3h-1.8c-1.2,0-2.2-0.9-2.2-2.2v-1.8c0-1.2,1-2.2,2.2-2.2h1.8c1.2,0,2.2,0.9,2.2,2.2v1.8
								C696.1,205.2,695.1,206.3,693.9,206.3z"/>
						</g>
						<g>
							<path class="st9" d="M744.9,185.3h-41.5c-0.9,0-1.5-0.7-1.5-1.5l0,0c0-0.9,0.7-1.5,1.5-1.5h41.5c0.9,0,1.5,0.7,1.5,1.5l0,0
								C746.4,184.7,745.8,185.3,744.9,185.3z"/>
							<path class="st9" d="M740.4,194.8h-37c-0.9,0-1.5-0.7-1.5-1.5l0,0c0-0.9,0.7-1.5,1.5-1.5h37c0.9,0,1.5,0.7,1.5,1.5l0,0
								C742,194.1,741.3,194.8,740.4,194.8z"/>
							<path class="st9" d="M753,204.3h-49.6c-0.9,0-1.5-0.7-1.5-1.5l0,0c0-0.9,0.7-1.5,1.5-1.5H753c0.9,0,1.5,0.7,1.5,1.5l0,0
								C754.5,203.6,753.9,204.3,753,204.3z"/>
						</g>
						<g>
							<path class="st9" d="M777.4,215.2h-84.7c-0.9,0-1.5-0.7-1.5-1.5l0,0c0-0.9,0.7-1.5,1.5-1.5h84.7c0.9,0,1.5,0.7,1.5,1.5l0,0
								C778.9,214.5,778.2,215.2,777.4,215.2z"/>
							<path class="st9" d="M777.4,223.2h-84.7c-0.9,0-1.5-0.7-1.5-1.5l0,0c0-0.9,0.7-1.5,1.5-1.5h84.7c0.9,0,1.5,0.7,1.5,1.5l0,0
								C778.9,222.5,778.2,223.2,777.4,223.2z"/>
							<g>
								<path class="st9" d="M777.4,231.6h-84.7c-0.9,0-1.5-0.7-1.5-1.5l0,0c0-0.9,0.7-1.5,1.5-1.5h84.7c0.9,0,1.5,0.7,1.5,1.5l0,0
									C778.9,230.9,778.2,231.6,777.4,231.6z"/>
								<path class="st9" d="M777.4,239.6h-84.7c-0.9,0-1.5-0.7-1.5-1.5l0,0c0-0.9,0.7-1.5,1.5-1.5h84.7c0.9,0,1.5,0.7,1.5,1.5l0,0
									C778.9,238.9,778.2,239.6,777.4,239.6z"/>
							</g>
						</g>
					</g>
				</g>
				<g>
					<line class="st5" x1="689.8" y1="250.9" x2="923.8" y2="250.9"/>
					<g>
						<g>
							<g>
								<path class="st0" d="M740.5,161.4c0,0-7.3-6.3-5.9-8.6c1.4-2.4,3.5-0.6,3.5-0.6s-2.2-1.8-0.9-3.2c1.3-1.4,2.8-0.7,2.8-0.7
									s-1.3-2.8,0.5-3.4c1.8-0.7,4.2,0.3,4.2,0.3s-0.7-2.2-0.5-2.9c0.2-0.8,1.4-2.2,4.8-0.9c3.3,1.3,10.1,6.4,12.4,8
									c2.3,1.6,4.7,4.9,4.9,4c0.2-0.9,2.1-6.7,4.8-8.2c2.6-1.4,3.5-1.6,3.5,1.8c-0.1,3.4-1.5,12.6,2,20.1s4.5,12.2,8.4,18.5
									c4,6.3,5.8,9.3,5.8,9.3l-24.3,14.4c0,0-16.4-34.3-16.6-34.6C749.8,174.5,744.2,165.2,740.5,161.4z"/>
								<g>
									<path class="st5" d="M737.4,151.9c0,0-2.1-4.7,2.9-3.5c5,1.2,11,6.8,14,9.8"/>
									<path class="st5" d="M758.3,168.9c0,0-1-5.9,7.3-7c0,0-1.3-12.3,5.1-16.7c6.6-4.5,1.4,8.6,4.1,17.5
										c2.7,8.8,5.9,17.4,9.3,22.3c3.4,4.9,6.4,10.1,6.4,10.1l-24.4,14.3c0,0-5.8-12.3-14.8-31.5c-8.9-19.2-19-21-16.9-25
										c2.7-5,14.4,9.4,14.4,9.4"/>
									<path class="st5" d="M740.3,148.5c0,0-2.1-3.5,1.2-3.9c0.6-0.1,1.2,0,2,0.3c3.9,1,10,5.3,14.2,9.7"/>
									<path class="st5" d="M766,154.2c0,0-8.1-10.1-18.7-13.1c-3.8-1-4.2,2.8-0.6,4.9"/>
								</g>
							</g>
							<g>
								<path class="st1" d="M761.2,199.6l24.1-13.8c0,0,25.1,41.7,55.6,52.7l-36.3,13.8l-29.2-1.9
									C775.4,250.4,765.6,225,761.2,199.6z"/>
								<path class="st6" d="M762.1,199.9c0.8,4.6,1.8,9.3,2.9,13.8l28.9-14.4c-5.5-7.4-8.8-12.9-8.8-12.9L762.1,199.9z"/>
								<g>
									<polygon class="st6" points="774.6,213.1 772.2,218.1 769.9,223.2 775.4,222.7 781,222.3 777.8,217.7 									"/>
									<polygon class="st6" points="793.8,205.8 791.4,210.8 789,215.9 794.5,215.4 800.1,214.9 797,210.4 									"/>
									<polygon class="st6" points="789.6,223.6 787.2,228.7 784.8,233.7 790.4,233.2 795.9,232.8 792.8,228.2 									"/>
									<polygon class="st10" points="807.7,226.2 805.4,231.2 803,236.3 808.5,235.8 814.1,235.4 810.9,230.8 									"/>
									<polygon class="st6" points="782.2,237.9 779.9,242.9 777.4,247.9 783,247.5 788.5,247.1 785.4,242.5 									"/>
									<polygon class="st10" points="801.3,241.2 798.9,246.2 796.5,251.2 802,250.9 807.7,250.4 804.4,245.8 									"/>
								</g>
							</g>
						</g>
						<g>
							<g>
								<path class="st0" d="M881.1,210.6c0,0,7.3,19.2-19.5,25.9c-26.8,6.7-58.3,5.6-58.3,5.6s-3.2,0-3-8.3
									c0.2-8.3-0.2-24.9,10.6-43.1c10.8-18.2,17.5-24.9,22.9-27C839.4,161.7,880.2,182.9,881.1,210.6z"/>
								<g>
									<polygon class="st6" points="858.5,204.3 855.6,209.1 852.9,214.1 858.5,214.1 864.1,214.1 861.3,209.1 									"/>
									<polygon class="st6" points="847.9,180.3 845.2,185.1 842.3,190 847.9,190 853.5,190 850.8,185.1 									"/>
									<polygon class="st6" points="830.3,199.5 827.5,204.3 824.7,209.1 830.3,209.1 836,209.1 833.2,204.3 									"/>
									<polygon class="st6" points="840.6,219.7 837.7,224.5 835,229.3 840.6,229.3 846.2,229.3 843.4,224.5 									"/>
									<polygon class="st6" points="810.9,217.5 808,222.3 805.3,227.2 810.9,227.2 816.5,227.2 813.7,222.3 									"/>
									<polygon class="st6" points="823.1,179.4 820.2,184.3 817.4,189.1 823.1,189.1 828.7,189.1 825.8,184.3 									"/>
								</g>
								<path class="st5" d="M831.9,163.8c0,0-36.8,31.1-30.9,77.1"/>
							</g>
							<g>
								<path class="st0" d="M848.3,162.2c0,0,8.8,0.1,16.9,3c8.2,2.9,20.8,7.1,34,19.9c0,0,19.2,18.8,20.8,35.3
									c1.6,16.5-0.2,26.5-21,37.5c0,0-15.2,5.9-32.2,2.8c-16.9-3.1-31.4-7-42.2-5.7c-10.8,1.3-15.1,1.4-20.8,6.8
									c-5.7,5.4-10.4,10.1-10.4,10.1s-1.4,2-3,1.9c-1.6-0.1-1.3-1.3-1.1-2.2c0.3-0.9,1.3-2.9-0.9-0.9c-2.2,2.1-3.1,3.1-4.4,3
									c-1.2-0.1-1.1-2.1-0.9-3.4c0.3-1.3,0.9-3.3,0.9-3.3s0.3-1.5-1.8,0.9c-2.1,2.5-3.5,3-4.5,2.4c-1-0.7-0.7-3.3,0-4.8
									c0.7-1.5,2.6-4.9,2.6-4.9s-2.2,1.4-3.2,1.9c-1,0.5-3-1.2-2.4-3.2c0.7-2.1,5.6-11.8,16.3-17s20.9-8.5,32.2-9.6
									c11.2-1,22.1-1.3,30.7-2.2c8.7-0.9,16.5-2.8,19.5-4.8c3-2,8-4.9,3.9-14.2c-4.1-9.4-12.9-19.1-12.9-19.1l-14-15.3
									L848.3,162.2z"/>
								<g>
									<polygon class="st6" points="868.8,229.3 865.9,234.3 863.1,239.1 868.8,239.1 874.4,239.1 871.5,234.3 									"/>
									<polygon class="st6" points="856.8,242.1 853.9,247.1 851.1,251.9 856.8,251.9 862.4,251.9 859.5,247.1 									"/>
									<polygon class="st6" points="882.3,247.1 879.4,251.9 876.7,256.8 882.3,256.8 887.9,256.8 885.1,251.9 									"/>
									<polygon class="st6" points="889.6,219.7 886.9,224.5 884,229.3 889.6,229.3 895.3,229.3 892.5,224.5 									"/>
									<polygon class="st6" points="906.9,205.8 904.2,210.6 901.3,215.5 906.9,215.5 912.7,215.5 909.8,210.6 									"/>
									<polygon class="st6" points="882.3,194.5 879.4,199.5 876.7,204.3 882.3,204.3 887.9,204.3 885.1,199.5 									"/>
									<polygon class="st6" points="897,184.3 894.2,189.1 891.4,194 897,194 902.7,194 899.9,189.1 									"/>
									<polygon class="st6" points="875.5,173.5 872.7,178.3 869.8,183.1 875.5,183.1 881.1,183.1 878.3,178.3 									"/>
									<polygon class="st6" points="906.9,233.9 904.2,238.7 901.3,243.7 906.9,243.7 912.7,243.7 909.8,238.7 									"/>
								</g>
								<path class="st6" d="M846.2,242.9v-10.3c0,0,0.2-1.3-0.7-1.2c-1,0.1-8,0.7-10.2,0.7c-2.2-0.1-3.7,0.1-3.7,0.1
									s-1.5,0.2-1.3,0.8c0.1,0.6,0.7,15.5,0.7,15.5v5l0.3,1c0,0-0.1,0.6,0.6,0.6c0.7,0.1,4.8,0.4,4.8,0.4l5.5,0.8
									c0,0,4.1,0.8,4.1,0.1C846.2,255.6,846.2,242.9,846.2,242.9z"/>
								<g>
									<line class="st5" x1="830.3" y1="232.1" x2="831.2" y2="254.7"/>
									<line class="st5" x1="846.2" y1="231.3" x2="846.2" y2="256.7"/>
								</g>
								<g>
									<path class="st5" d="M851.3,162.2c0,0,30.8,2.6,52.5,27.8c21.6,25.2,22.6,50.5,3.1,63.6c-19.4,13.2-45.8,6.1-57,3.8
										c-11.7-2.4-33.6-5.2-43.3,2.1c-9.7,7.3-14.6,15.9-16.9,14c-2.4-1.9,5-10.9,5-10.9s-8.1,12-10.7,11.2
										c-2.6-0.9,0.8-8.9,0.8-8.9"/>
									<path class="st5" d="M861.3,189.1c0,0,20.8,21,16.9,32.1c-4,11.1-49.5,10.9-49.5,10.9s-30.8,2-45.6,15.7
										c0,0-10,8.8-8.3,13.4c1.7,4.6,7.3-3.4,7.3-3.4"/>
									<path class="st5" d="M784.8,254.7c0,0-8.8,9.8-7.3,14.4c1.3,4.6,7.3-3.9,11.3-9.4"/>
								</g>
							</g>
							<g>
								<path class="st11" d="M859.6,136.9c0,3.7-3,6.7-6.8,6.7s-6.8-3-6.8-6.7c0-3.7,3-6.7,6.8-6.7S859.6,133.2,859.6,136.9z"/>
								<g>
									<path class="st1" d="M830.1,116.1h8.5c5.6,0,10.3,5.2,10.3,11.7v13.2c0,0.4,0,0.8-0.1,1.1c0.1,0.4,0.2,0.8,0.2,1.2v8v0.5v8
										c0,2.9-2.4,5.3-5.3,5.3h-3.3c-3,0-5.3-2.4-5.3-5.3v-7.1h-5c-5.6,0-10.3-5.2-10.3-11.7v-13.2
										C819.8,121.3,824.5,116.1,830.1,116.1z"/>
									<g>
										<path d="M846.7,136.7l-1.5-10.3c0,0-28.6,3.6-37.9-10.2c-9.2-13.8,0.5-19.3,5.1-18.5c4.7,0.8,10.2,7.5,10.2,7.5
											s-4.4-6,0-6.9c4.4-0.9,9.2,3.6,11.7,8.3c0,0,18.8-1.7,25.2,9.6c6.4,11.4,1.2,19.4-10.5,31.1l-0.8-6.5L846.7,136.7z"/>
										<ellipse cx="866.3" cy="103.6" rx="10.4" ry="10.3"/>
									</g>
									<g>
										<g>
											<path class="st12" d="M844.1,138.7c0,2.7-2.2,4.8-4.9,4.8s-4.9-2.2-4.9-4.8c0-2.7,2.2-4.8,4.9-4.8
												C841.9,133.8,844.1,136,844.1,138.7z"/>
											<path class="st12" d="M821.2,134.8c-0.3,0-0.6,0-0.9,0.1v5c0,0.8-0.1,1.5,0.1,2.2c0.2,0,0.6,0.1,0.8,0.1
												c2.1,0,3.7-1.6,3.7-3.7C824.9,136.4,823.2,134.8,821.2,134.8z"/>
										</g>
										<g>
											<g>
												<path class="st13" d="M835.3,131.8c0,0.9-0.8,1.7-1.7,1.7c-1,0-1.7-0.8-1.7-1.7c0-0.9,0.8-1.7,1.7-1.7
													C834.5,130.1,835.3,130.9,835.3,131.8z"/>
												<ellipse class="st13" cx="822.4" cy="131.6" rx="1.5" ry="1.5"/>
											</g>
											<g>
												<path class="st14" d="M825.5,138.7c0,0,0.9,2.6,2.8,2.8c1.8,0.2,3.3-1.9,3.4-3.4L825.5,138.7z"/>
												<g>
													<path class="st13" d="M825.1,138.8c0.3,0.9,1,1.9,1.7,2.5c1.4,1,3.2,0.6,4.3-0.8c0.6-0.8,1-1.7,1-2.7
														c0-0.3-0.3-0.6-0.6-0.6c-1.8,0.2-3.5,0.5-5.3,0.7c-0.3,0-0.5,0.1-0.8,0.1s-0.6,0.2-0.6,0.6c0,0.3,0.3,0.6,0.6,0.6
														c1.8-0.2,3.5-0.5,5.3-0.7c0.3,0,0.5-0.1,0.8-0.1c-0.2-0.2-0.4-0.4-0.6-0.6c-0.1,1.2-1,2.6-2.2,2.8
														c-1.1,0.3-2-0.6-2.5-1.5c-0.1-0.2-0.2-0.4-0.3-0.6c0-0.1,0,0.1,0,0v-0.1v-0.1C825.8,137.9,824.9,138.2,825.1,138.8z"/>
												</g>
											</g>
											<g>
												<ellipse class="st15" cx="836.3" cy="130.9" rx="6.1" ry="6.7"/>
												<ellipse class="st15" cx="821.2" cy="130" rx="5" ry="6.1"/>
												<polygon class="st16" points="828.1,130.1 828.1,136 825.1,134.1 												"/>
												<path class="st15" d="M826,131.8c0,0,2.5-1,4.2,0.5"/>
											</g>
										</g>
									</g>
									<g>
										<path class="st0" d="M859.6,136.9c0,3.7-3,6.7-6.8,6.7s-6.8-3-6.8-6.7c0-3.7,3-6.7,6.8-6.7S859.6,133.2,859.6,136.9z"/>
										<g>
											<g>
												<path class="st17" d="M849.8,137.7c0-0.2,0-0.3,0-0.5c0-0.1,0-0.1,0-0.2v-0.1c0-0.2,0,0.2,0,0s0.1-0.4,0.1-0.6
													c0-0.1,0.1-0.2,0.1-0.3c0-0.1,0-0.1,0.1-0.2v-0.1c0-0.1,0,0,0,0c0.1-0.1,0.1-0.2,0.2-0.3c0.1-0.1,0.1-0.2,0.2-0.3
													c0,0,0,0,0-0.1c0.1-0.1,0,0,0,0l0.1-0.1c0.1-0.1,0.2-0.2,0.3-0.3c0,0,0,0,0.1,0c0.1-0.1,0,0,0,0s0.1-0.1,0.2-0.1
													c0.1-0.1,0.3-0.2,0.4-0.2c0,0,0.1-0.1,0,0c-0.1,0,0.1,0,0.1,0c0.1,0,0.2-0.1,0.3-0.1s0.2,0,0.3-0.1c0.1,0,0.4-0.1,0.2,0
													c0.5-0.1,0.9,0,1.3,0c0.4,0,0.7-0.3,0.7-0.7s-0.3-0.6-0.7-0.7c-1.4-0.2-3,0.2-4,1.3c-0.7,0.8-1,1.8-1,2.8
													c0,0.2,0,0.4,0,0.6c0,0.4,0.3,0.7,0.7,0.7C849.5,138.4,849.8,138.1,849.8,137.7L849.8,137.7z"/>
											</g>
										</g>
									</g>
									<path class="st6" d="M835.2,171.1h14.2c3,0,5.6-2.5,5.6-5.6v-1.6c0-3-2.5-5.6-5.6-5.6h-14.2c-3,0-5.6,2.5-5.6,5.6v1.6
										C829.6,168.6,832.1,171.1,835.2,171.1z"/>
								</g>
							</g>
						</g>
					</g>
				</g>
			</g>
			<g>
				<g>
					<path class="st1" d="M623,128h47.5c6.1,0,10.9,4.9,10.9,10.9v19.3v6.7v21.2L670.3,176H623c-6.1,0-10.9-4.9-10.9-10.9V139
						C612,133,616.9,128,623,128z"/>
					<g>
						<path class="st1" d="M657.5,152.9c0,2.7,2.1,4.7,4.8,4.7c2.7,0,4.8-2.1,4.8-4.7c0-2.7-2.1-4.7-4.8-4.7
							C659.7,148.1,657.5,150.3,657.5,152.9z"/>
						<path class="st1" d="M641,152.9c0,2.7,2.1,4.7,4.8,4.7s4.8-2.1,4.8-4.7c0-2.7-2.1-4.7-4.8-4.7S641,150.3,641,152.9z"/>
						<path class="st1" d="M624.3,152.9c0,2.7,2.1,4.7,4.8,4.7s4.8-2.1,4.8-4.7c0-2.7-2.1-4.7-4.8-4.7
							C626.5,148.1,624.3,150.3,624.3,152.9z"/>
					</g>
				</g>
				<g>
					<g>
						<path class="st3" d="M927.8,124c-0.9-4.7-3.5-7.8-6.5-9.7c-5-3.3-11.7-3.3-16.8,0c-3,1.9-5.6,5-6.5,9.7
							c-1.5,8.6,6.1,13.4,7.5,15.1c0,0,1,0.8,1.4,1.7c0.1,0.2,0.3,0.9,0.4,2h5.5h5.5c0.2-1,0.3-1.7,0.4-2c0.5-0.9,1.4-1.7,1.4-1.7
							C921.7,137.2,929.4,132.6,927.8,124z"/>
						<g>
							<path class="st0" d="M910.7,143.7c0,0,0-8.3-0.6-9.4c-0.6-1.1-3.4-5.3-3.9-6.2c-0.5-0.9,0.5-1.9,1.2-0.6
								c0.7,1.1,3.3,4.8,3.9,6.4c0.6,1.5,1.1,10.1,1.1,10.1L910.7,143.7z"/>
							<path class="st0" d="M915.2,143.7c0,0,0-8.3,0.6-9.4c0.6-1.1,3.4-5.3,3.9-6.2c0.5-0.9-0.5-1.9-1.2-0.6
								c-0.7,1.1-3.3,4.8-3.9,6.4c-0.6,1.5-1.1,10.1-1.1,10.1L915.2,143.7z"/>
							<g>
								<path class="st0" d="M919.2,127.8c-1.1,0.5-3,0.6-4.5,0.2l0,0c-1.1,0.9-2.8,0.6-4-0.4c-1.5,0.6-3.5,0.7-3.8,0.7v-0.8
									c0.9,0,2.2-0.2,3.1-0.5c-0.9-0.9-1-1.8-0.5-2.5c0.7-0.9,1.5-0.8,2.1-0.4c0.7,0.5,1,1.6,0.4,2.5c-0.1,0.2-0.3,0.4-0.6,0.6
									c0.8,0.5,1.6,0.7,2.3,0.4c-0.3-0.2-0.5-0.3-0.6-0.5c-0.3-0.3-0.6-0.9,0.1-1.8c0.4-0.6,1-0.9,1.4-0.8c0.5,0.1,0.9,0.6,1,1.1
									c0.1,0.6-0.1,1.1-0.4,1.6c1.1,0.3,2.6,0.2,3.5-0.2L919.2,127.8z M914.3,125.6c-0.1,0.1-0.2,0.2-0.3,0.3
									c-0.3,0.4-0.2,0.7-0.1,0.9c0.2,0.2,0.4,0.4,0.8,0.5c0.4-0.4,0.6-0.8,0.5-1.2c-0.1-0.3-0.2-0.5-0.5-0.6
									C914.6,125.4,914.4,125.4,914.3,125.6z M910.9,126.8c0.3-0.1,0.5-0.3,0.6-0.5c0.4-0.6,0.2-1.1-0.2-1.4
									c-0.3-0.3-0.7-0.2-1,0.2c-0.3,0.4,0,1,0.5,1.5C910.8,126.6,910.8,126.7,910.9,126.8z"/>
							</g>
						</g>
						<g>
							<path class="st1" d="M912.9,141.9c-3,0-5.5-0.8-6-1c0,0.1,0.1,0.1,0.1,0.2c0.4,0.9,0.9,7.7,2,10.2c0.2,0.5,0.4,0.8,0.7,0.9
								c0.6,0.4,1.9,0.9,3.2,0.8c1.3,0.1,2.7-0.4,3.2-0.8c0.2-0.2,0.5-0.5,0.7-0.9c1-2.7,1.6-9.5,2-10.2c0-0.1,0.1-0.1,0.1-0.2
								C918.5,141.1,915.9,141.9,912.9,141.9z"/>
							<path d="M912.9,144.9c1.7,0,3.6-0.2,5.3-0.8c0.1-0.9,0.2-1.5,0.3-2.1c-3.6,1.3-7.6,1.3-11.2,0c0.1,0.6,0.2,1.3,0.3,2.1
								C909.3,144.7,911.2,144.9,912.9,144.9z"/>
							<path d="M912.9,148.4c1.5,0,3.2-0.2,4.8-0.6c0.1-0.7,0.2-1.4,0.3-2.1c-3.3,1.1-6.9,1.1-10.2,0c0.1,0.7,0.2,1.4,0.3,2.1
								C909.7,148.2,911.4,148.4,912.9,148.4z"/>
							<path d="M908.5,149.5c0.2,0.8,0.4,1.3,0.6,1.9c0,0.1,0.1,0.2,0.1,0.2c1.2,0.3,2.6,0.4,3.8,0.4c1.2,0,2.6-0.1,3.8-0.4
								c0-0.1,0.1-0.1,0.1-0.2c0.2-0.5,0.4-1.1,0.6-1.9C914.5,150.3,911.4,150.3,908.5,149.5z"/>
						</g>
					</g>
					<g>
						<path class="st1" d="M913.2,107.4L913.2,107.4c-1,0-1.6-0.7-1.6-1.6v-7.4c0-0.9,0.7-1.6,1.6-1.6l0,0c0.9,0,1.6,0.7,1.6,1.6
							v7.4C914.8,106.7,914.1,107.4,913.2,107.4z"/>
						<path class="st1" d="M924.7,109.4L924.7,109.4c-0.8-0.5-1-1.4-0.7-2.2l3.5-6.5c0.4-0.8,1.3-1,2.2-0.7l0,0
							c0.8,0.4,1,1.3,0.7,2.2l-3.5,6.5C926.4,109.5,925.4,109.8,924.7,109.4z"/>
						<path class="st1" d="M901.8,109.4L901.8,109.4c0.8-0.5,1-1.4,0.7-2.2l-3.5-6.5c-0.4-0.8-1.3-1-2.2-0.7l0,0
							c-0.8,0.4-1,1.3-0.7,2.2l3.5,6.5C900,109.5,901,109.8,901.8,109.4z"/>
						<path class="st1" d="M893.3,118.1L893.3,118.1c-0.2,0.9-1,1.4-1.9,1.2l-7.3-1.5c-0.9-0.2-1.4-1-1.2-1.9l0,0
							c0.2-0.9,1-1.4,1.9-1.2l7.3,1.5C893,116.5,893.5,117.2,893.3,118.1z"/>
						<path class="st1" d="M893,129.9L893,129.9c-0.3-0.9-1.1-1.3-2-1.1l-7.1,2.1c-0.9,0.3-1.3,1.1-1,2l0,0c0.3,0.9,1.1,1.3,2,1
							l7.1-2.1C892.7,131.7,893.1,130.8,893,129.9z"/>
						<path class="st1" d="M933.1,118.1L933.1,118.1c0.2,0.9,1,1.4,1.9,1.2l7.3-1.5c0.9-0.2,1.4-1,1.2-1.9l0,0
							c-0.2-0.9-1-1.4-1.9-1.2l-7.3,1.5C933.5,116.5,932.9,117.2,933.1,118.1z"/>
						<path class="st1" d="M933.5,129.9L933.5,129.9c0.3-0.9,1.1-1.3,2-1.1l7.1,2.1c0.9,0.3,1.3,1.1,1,2l0,0c-0.3,0.9-1.1,1.3-2,1
							l-7.1-2.1C933.8,131.7,933.2,130.8,933.5,129.9z"/>
					</g>
				</g>
			</g>
		</g>
	</g>
	<g>
		<g>
			<line class="st18" x1="545.7" y1="400.5" x2="945.4" y2="400.5"/>
			<g>
				<rect x="644.8" y="396.4" class="st19" width="86.2" height="18.3"/>
				<g>
					<g>
						<path class="st19" d="M668.8,282.6c0,0,7.1,4.6,16.4,15.7c11.8,13.9,27.2,35.4,36.8,40.7c21.7,11.9,56.9,13.7,56.9,13.7
							L762.5,386L684,376L668.8,282.6z"/>
						<g>
							<path class="st20" d="M713.9,360.6L713.9,360.6c-1.6,0.3-3.2-0.9-3.5-2.6l-1.8-9.7c-0.3-1.7,0.7-3.4,2.4-3.7h0
								c1.6-0.3,3.2,0.9,3.5,2.6l1.8,9.7C716.6,358.7,715.6,360.3,713.9,360.6z"/>
							<path class="st20" d="M699,334.2L699,334.2c-1.6,0.3-3.2-0.9-3.5-2.6l-1.8-9.7c-0.3-1.7,0.7-3.4,2.4-3.7h0
								c1.6-0.3,3.2,0.9,3.5,2.6l1.8,9.7C701.7,332.2,700.7,333.9,699,334.2z"/>
							<path class="st20" d="M726.4,377.6L726.4,377.6c-1.6,0.3-3.2-0.9-3.5-2.6l-1.8-9.7c-0.3-1.7,0.7-3.4,2.4-3.7h0
								c1.6-0.3,3.2,0.9,3.5,2.6l1.8,9.7C729.1,375.7,728,377.3,726.4,377.6z"/>
							<path class="st20" d="M736.2,365.9L736.2,365.9c-1.6,0.3-3.2-0.9-3.5-2.6l-1.8-9.7c-0.3-1.7,0.7-3.4,2.4-3.7h0
								c1.6-0.3,3.2,0.9,3.5,2.6l1.8,9.7C738.9,364,737.8,365.6,736.2,365.9z"/>
							<path class="st20" d="M752.2,382.7L752.2,382.7c-1.6,0.3-3.2-0.9-3.5-2.6l-1.8-9.7c-0.3-1.7,0.7-3.4,2.4-3.7h0
								c1.6-0.3,3.2,0.9,3.5,2.6l1.8,9.7C754.9,380.7,753.8,382.4,752.2,382.7z"/>
							<path class="st20" d="M763.8,369.5L763.8,369.5c-1.6,0.3-3.2-0.9-3.5-2.6l-1.8-9.7c-0.3-1.7,0.7-3.4,2.4-3.7h0
								c1.6-0.3,3.2,0.9,3.5,2.6l1.8,9.7C766.5,367.5,765.4,369.2,763.8,369.5z"/>
						</g>
					</g>
					<g>
						<path class="st19" d="M653.4,281.1c0,0,22.7-11.3,42.7,41.6c14,36.8,9.4,63.1,9.4,63.1l-114.4-1.4
							C591.1,384.5,613,295.7,653.4,281.1z"/>
						<g>
							<path class="st20" d="M638.1,365.5L638.1,365.5c-1.6,0.3-3.2-0.9-3.5-2.6l-1.8-9.7c-0.3-1.7,0.7-3.4,2.4-3.7h0
								c1.6-0.3,3.2,0.9,3.5,2.6l1.8,9.7C640.8,363.5,639.8,365.2,638.1,365.5z"/>
							<path class="st20" d="M657.8,351.7L657.8,351.7c-1.6,0.3-3.2-0.9-3.5-2.6l-1.8-9.7c-0.3-1.7,0.7-3.4,2.4-3.7h0
								c1.6-0.3,3.2,0.9,3.5,2.6l1.8,9.7C660.5,349.7,659.5,351.4,657.8,351.7z"/>
							<path class="st20" d="M675.5,368.6L675.5,368.6c-1.6,0.3-3.2-0.9-3.5-2.6l-1.8-9.7c-0.3-1.7,0.7-3.4,2.4-3.7h0
								c1.6-0.3,3.2,0.9,3.5,2.6l1.8,9.7C678.2,366.7,677.1,368.3,675.5,368.6z"/>
							<path class="st20" d="M691.3,348.1L691.3,348.1c-1.6,0.3-3.2-0.9-3.5-2.6l-1.8-9.7c-0.3-1.7,0.7-3.4,2.4-3.7h0
								c1.6-0.3,3.2,0.9,3.5,2.6l1.8,9.7C694,346.1,693,347.8,691.3,348.1z"/>
							<path class="st20" d="M674.3,331.4L674.3,331.4c-1.6,0.3-3.2-0.9-3.5-2.6l-1.8-9.7c-0.3-1.7,0.7-3.4,2.4-3.7h0
								c1.6-0.3,3.2,0.9,3.5,2.6l1.8,9.7C677,329.5,675.9,331.1,674.3,331.4z"/>
							<path class="st20" d="M656.7,311.7L656.7,311.7c-1.6,0.3-3.2-0.9-3.5-2.6l-1.8-9.7c-0.3-1.7,0.7-3.4,2.4-3.7h0
								c1.6-0.3,3.2,0.9,3.5,2.6l1.8,9.7C659.4,309.7,658.3,311.4,656.7,311.7z"/>
							<path class="st20" d="M673.8,303.7L673.8,303.7c-1.6,0.3-3.2-0.9-3.5-2.6l-1.8-9.7c-0.3-1.7,0.7-3.4,2.4-3.7h0
								c1.6-0.3,3.2,0.9,3.5,2.6l1.8,9.7C676.5,301.7,675.5,303.4,673.8,303.7z"/>
							<path class="st20" d="M701,377L701,377c-1.6,0.3-3.2-0.9-3.5-2.6l-1.8-9.7c-0.3-1.7,0.7-3.4,2.4-3.7h0
								c1.6-0.3,3.2,0.9,3.5,2.6l1.8,9.7C703.7,375.1,702.6,376.7,701,377z"/>
							<path class="st20" d="M641.4,330.4L641.4,330.4c-1.6,0.3-3.2-0.9-3.5-2.6l-1.8-9.7c-0.3-1.7,0.7-3.4,2.4-3.7h0
								c1.6-0.3,3.2,0.9,3.5,2.6l1.8,9.7C644.1,328.5,643,330.1,641.4,330.4z"/>
						</g>
					</g>
					<g>
						<g>
							<path class="st0" d="M658,364.5l-4.2,34.9c0,0,25.5-1.2,39.5,0.6c14,1.8,22.6,2.9,22.6,2.9s4.6,0,4.1-2.7
								c-0.6-2.7-0.5-2.2,1.7-1.6c2.2,0.6,5.4-0.8,5.6-2.5c0.2-1.8-0.7-3.9-0.7-3.9s2.8,0.5,4.4,0.4c1.5-0.2,6.1-2.3,5.6-4.5
								c-0.5-2.2-2.3-10.4-27.8-16.6C683.2,365.1,658,364.5,658,364.5z"/>
							<g>
								<path class="st18" d="M652,399.5c0,0,32.4-2.3,59.1,2.9c2.3,0.4,11.1,1.8,8.4-3.7c-2.6-5.6-15.9-8.6-22.3-9.4"/>
								<path class="st18" d="M699.5,378.4c0,0,7.8,1.6,14,4.7c4.6,2.2,9.1,5.1,11.6,7.4c5.7,5.1,0.4,10.2-6.1,7.4"/>
								<path class="st18" d="M656.4,364.5c0,0,33.4,0.1,61.7,9.6c28.2,9.5,18.8,22.3,8.1,17.3"/>
							</g>
						</g>
						<path class="st0" d="M651.9,282.3c0,0-43-1.2-75.6,47.3c-32.6,48.5-28.6,98.1,42.5,81.8c9.9-2.3,39.3-11.1,39.3-11.1l3.5-36.9
							c0,0-33.2-2.8-56.2-4.1L651.9,282.3z"/>
						<g>
							<path class="st21" d="M639.1,406c9.8-2.8,19-5.6,19-5.6l3.5-36.9c0,0-7.5-0.6-17.9-1.4L639.1,406z"/>
							<g>
								<line class="st18" x1="643" y1="369.1" x2="661" y2="370.3"/>
								<line class="st18" x1="642" y1="378.3" x2="659.8" y2="378.4"/>
								<line class="st18" x1="641.1" y1="387.5" x2="659.6" y2="386.2"/>
								<line class="st18" x1="640" y1="396.4" x2="658.6" y2="393.2"/>
							</g>
						</g>
						<g>
							<path class="st18" d="M651.9,282.3c0,0-43-1.2-75.6,47.3c-32.6,48.5-28.6,98.1,42.5,81.8c9.9-2.3,39.3-11.1,39.3-11.1
								l3.5-36.9c0,0-33.2-2.8-56.2-4.1"/>
							<line class="st18" x1="617.3" y1="360.1" x2="628.4" y2="338.8"/>
						</g>
						<g>
							<path class="st20" d="M581.7,370L581.7,370c-1.6,0.3-3.2-0.9-3.5-2.6l-1.8-9.7c-0.3-1.7,0.7-3.4,2.4-3.7h0
								c1.6-0.3,3.2,0.9,3.5,2.6l1.8,9.7C584.4,368.1,583.3,369.7,581.7,370z"/>
							<path class="st20" d="M572.1,400.5L572.1,400.5c-1.6,0.3-3.2-0.9-3.5-2.6l-1.8-9.7c-0.3-1.7,0.7-3.4,2.4-3.7h0
								c1.6-0.3,3.2,0.9,3.5,2.6l1.8,9.7C574.8,398.5,573.7,400.2,572.1,400.5z"/>
							<path class="st20" d="M600.3,404.3L600.3,404.3c-1.6,0.3-3.2-0.9-3.5-2.6l-1.8-9.7c-0.3-1.7,0.7-3.4,2.4-3.7h0
								c1.6-0.3,3.2,0.9,3.5,2.6l1.8,9.7C603,402.4,601.9,404,600.3,404.3z"/>
							<path class="st20" d="M615.3,380.5L615.3,380.5c-1.6,0.3-3.2-0.9-3.5-2.6l-1.8-9.7c-0.3-1.7,0.7-3.4,2.4-3.7h0
								c1.6-0.3,3.2,0.9,3.5,2.6l1.8,9.7C618,378.5,616.9,380.2,615.3,380.5z"/>
							<path class="st20" d="M609,351.7L609,351.7c-1.6,0.3-3.2-0.9-3.5-2.6l-1.8-9.7c-0.3-1.7,0.7-3.4,2.4-3.7h0
								c1.6-0.3,3.2,0.9,3.5,2.6l1.8,9.7C611.7,349.7,610.6,351.4,609,351.7z"/>
							<path class="st20" d="M620.6,327.7L620.6,327.7c-1.6,0.3-3.2-0.9-3.5-2.6l-1.8-9.7c-0.3-1.7,0.7-3.4,2.4-3.7h0
								c1.6-0.3,3.2,0.9,3.5,2.6l1.8,9.7C623.3,325.8,622.2,327.4,620.6,327.7z"/>
							<path class="st20" d="M636.1,303.7L636.1,303.7c-1.6,0.3-3.2-0.9-3.5-2.6l-1.8-9.7c-0.3-1.7,0.7-3.4,2.4-3.7h0
								c1.6-0.3,3.2,0.9,3.5,2.6l1.8,9.7C638.8,301.7,637.8,303.4,636.1,303.7z"/>
							<path class="st20" d="M590.9,335.7L590.9,335.7c-1.6,0.3-3.2-0.9-3.5-2.6l-1.8-9.7c-0.3-1.7,0.7-3.4,2.4-3.7h0
								c1.6-0.3,3.2,0.9,3.5,2.6l1.8,9.7C593.6,333.8,592.5,335.4,590.9,335.7z"/>
							<path class="st20" d="M632.2,400.5L632.2,400.5c-1.6,0.3-3.2-0.9-3.5-2.6l-1.8-9.7c-0.3-1.7,0.7-3.4,2.4-3.7h0
								c1.6-0.3,3.2,0.9,3.5,2.6l1.8,9.7C634.9,398.5,633.9,400.2,632.2,400.5z"/>
						</g>
					</g>
					<g>
						<path class="st22" d="M637.5,250.6c0,4.2,3.4,7.6,7.7,7.6c4.3,0,7.7-3.4,7.7-7.6c0-4.2-3.4-7.6-7.7-7.6
							C640.9,243,637.5,246.4,637.5,250.6z"/>
						<path class="st23" d="M668.5,281.3c0,3.5-4.9,6.4-11,6.4c-6.1,0-11-2.9-11-6.4s4.9-6.4,11-6.4
							C663.6,274.9,668.5,277.7,668.5,281.3z"/>
						<path class="st19" d="M671,226.9h-9.7c-6.4,0-11.7,6-11.7,13.3v15c0,0.4,0,0.8,0.1,1.3c-0.1,0.4-0.2,0.9-0.2,1.4v9.1v0.5v9.1
							c0,3.3,2.7,6,6,6h3.8c3.3,0,6-2.7,6-6v-8.1h5.6c6.4,0,11.7-6,11.7-13.3v-15C682.7,232.9,677.5,226.9,671,226.9z"/>
						<g>
							<g>
								<path class="st13" d="M663.4,245.1c0,1.2,1,2.2,2.2,2.2c1.2,0,2.2-1,2.2-2.2s-1-2.2-2.2-2.2
									C664.3,242.9,663.4,243.9,663.4,245.1z"/>
								<path class="st13" d="M677.6,244.8c0,1,0.8,1.9,1.9,1.9c1,0,1.9-0.8,1.9-1.9c0-1-0.8-1.9-1.9-1.9
									C678.5,242.9,677.6,243.8,677.6,244.8z"/>
							</g>
							<g>
								<path class="st14" d="M675.6,253.7c0,0-1.1,3.2-3.4,3.4c-2.3,0.2-4.1-2.3-4.3-4.4L675.6,253.7z"/>
								<g>
									<path class="st13" d="M675.1,253.6c0,0.1-0.1,0.2-0.1,0.2c0-0.1-0.1,0.1-0.1,0.2c-0.1,0.1-0.1,0.2-0.2,0.4
										c-0.3,0.6-0.7,1.1-1.2,1.5c-0.5,0.5-1.3,0.8-2,0.7c-0.8-0.1-1.5-0.6-2-1.3c-0.6-0.7-1-1.6-1.1-2.6
										c-0.2,0.2-0.3,0.3-0.5,0.5c2.2,0.3,4.5,0.5,6.7,0.8c0.3,0,0.6,0.1,1,0.1c0.3,0,0.5-0.3,0.5-0.5c0-0.3-0.2-0.5-0.5-0.5
										c-2.2-0.3-4.5-0.5-6.7-0.8c-0.3,0-0.6-0.1-1-0.1c-0.3,0-0.5,0.3-0.5,0.5c0.1,2,1.5,4.1,3.5,4.7c1.9,0.6,3.6-0.6,4.5-2.2
										c0.3-0.4,0.5-0.9,0.7-1.4C676.3,253.2,675.3,253,675.1,253.6z"/>
								</g>
							</g>
							<g>
								<path class="st12" d="M655.8,253.1c0,3,2.4,5.4,5.4,5.4c3,0,5.4-2.4,5.4-5.4c0-3-2.4-5.4-5.4-5.4
									C658.2,247.7,655.8,250.1,655.8,253.1z"/>
								<path class="st12" d="M681.3,249.5c0.3,0,0.6,0,1,0.1v5.6c0,0.8,0,1.7-0.2,2.4c-0.2,0-0.5,0.1-0.8,0.1
									c-2.3,0-4.1-1.8-4.1-4.1C677.1,251.3,679,249.5,681.3,249.5z"/>
							</g>
							<polygon class="st16" points="673.1,242.9 672.7,250.4 676.2,248.2 							"/>
						</g>
						<path d="M652.2,250.4l1.8-11.7c0,0,32.5,4.1,43-11.7c10.5-15.8-0.5-22-5.9-21.1c-5.4,0.9-11.6,8.6-11.6,8.6s5-6.8,0-7.9
							c-5-1.1-10.5,4.1-13.4,9.5c0,0-21.4-2-28.7,11c-7.2,13-1.4,22.2,11.9,35.5l0.9-7.5L652.2,250.4z"/>
						<g>
							<path class="st0" d="M637.5,250.6c0,4.2,3.4,7.6,7.7,7.6c4.3,0,7.7-3.4,7.7-7.6c0-4.2-3.4-7.6-7.7-7.6
								C640.9,243,637.5,246.4,637.5,250.6z"/>
							<g>
								<g>
									<path class="st17" d="M650,251.6c0-0.6-0.1-1.3-0.2-1.9c-0.3-1.2-1.1-2.3-2.3-2.9c-1-0.4-2-0.5-3.1-0.4
										c-0.3,0-0.6,0.3-0.6,0.6c0,0.3,0.3,0.7,0.6,0.6c0.5,0,0.9-0.1,1.4,0c0,0,0.1,0,0.1,0c-0.2,0,0,0,0,0c0.1,0,0.2,0,0.3,0.1
										c0.2,0,0.4,0.1,0.5,0.2c0,0,0.1,0,0.1,0c-0.2-0.1,0,0,0,0c0.1,0,0.1,0.1,0.2,0.1c0.1,0.1,0.3,0.2,0.4,0.3
										c-0.2-0.1,0,0,0.1,0.1c0.1,0,0.1,0.1,0.1,0.1c0.1,0.1,0.2,0.2,0.3,0.3c-0.1-0.2,0,0,0,0.1c0,0.1,0.1,0.1,0.1,0.2
										c0.1,0.1,0.1,0.2,0.2,0.4c0,0.1,0.1,0.1,0.1,0.2c0,0.1-0.1-0.2,0,0c0,0,0,0.1,0,0.1c0,0.1,0.1,0.2,0.1,0.4
										c0.1,0.2,0.1,0.4,0.2,0.6c0,0,0,0.1,0,0.1c0,0.2,0-0.2,0,0c0,0.1,0,0.2,0,0.3c0,0.2,0,0.4,0,0.6c0,0.3,0.3,0.6,0.6,0.6
										C649.7,252.3,650,252,650,251.6L650,251.6z"/>
								</g>
							</g>
						</g>
					</g>
				</g>
			</g>
			<g>
				<g>
					<polygon class="st19" points="740.4,335.7 855.9,335.7 834.9,414.6 720,414.6 					"/>
					
						<ellipse transform="matrix(0.2308 -0.973 0.973 0.2308 241.0155 1055.2261)" class="st24" cx="787.9" cy="375.2" rx="9.7" ry="9.7"/>
				</g>
			</g>
		</g>
		<g>
			<g>
				<path class="st19" d="M563.4,203.8h37.1c4.7,0,8.6,3.8,8.6,8.6v15.2v5.3v16.6l-8.7-8h-37c-4.7,0-8.6-3.8-8.6-8.6v-20.5
					C554.8,207.6,558.7,203.8,563.4,203.8z"/>
				<text transform="matrix(1 0 0 1 572.3474 232.5975)" class="st25 st26 st27">?</text>
			</g>
		</g>
	</g>
	<g>
		<path class="st28" d="M528.7,75.4v350.8c0,8.6-6.9,15.5-15.5,15.5H83.5c-8.6,0-15.5-6.9-15.5-15.5V75.4c0-8.6,6.9-15.5,15.5-15.5
			H513C521.7,59.9,528.7,66.9,528.7,75.4z"/>
		<path class="st29" d="M528.7,75.4v15.4H68.1V75.4c0-8.6,6.9-15.5,15.5-15.5h429.5C521.7,59.9,528.7,66.9,528.7,75.4z"/>
		<path class="st30" d="M528.7,75.4v15.4H68.1V75.4c0-8.6,6.9-15.5,15.5-15.5h429.5C521.7,59.9,528.7,66.9,528.7,75.4z"/>
		<path class="st0" d="M482.2,75c0,3-2.4,5.4-5.4,5.4c-3,0-5.4-2.4-5.4-5.4c0-3,2.4-5.4,5.4-5.4C479.8,69.7,482.2,72.1,482.2,75z"/>
		<path d="M515.9,75c0,3-2.4,5.4-5.4,5.4S505,78,505,75c0-3,2.4-5.4,5.4-5.4C513.4,69.7,515.9,72.1,515.9,75z"/>
		<path class="st0" d="M448.6,75c0,3-2.4,5.4-5.4,5.4s-5.4-2.4-5.4-5.4c0-3,2.4-5.4,5.4-5.4C446.2,69.7,448.6,72.1,448.6,75z"/>
	</g>
</g>
</svg>
