<?xml version="1.0" encoding="utf-8"?>
<!-- Generator: Adobe Illustrator 16.0.0, SVG Export Plug-In . SVG Version: 6.00 Build 0)  -->
<!DOCTYPE svg PUBLIC "-//W3C//DTD SVG 1.1//EN" "http://www.w3.org/Graphics/SVG/1.1/DTD/svg11.dtd">
<svg version="1.1" id="Layer_1" xmlns="http://www.w3.org/2000/svg" xmlns:xlink="http://www.w3.org/1999/xlink" x="0px" y="0px"
	 width="500px" height="250px" viewBox="0 0 500 250" enable-background="new 0 0 500 250" xml:space="preserve">
<g>
	<path fill="#659E42" d="M297.275,225.708c-55.106,0-99.937-44.859-99.937-100c0-55.14,44.831-100,99.937-100
		c55.104,0,99.936,44.86,99.936,100C397.211,180.849,352.38,225.708,297.275,225.708z M297.275,38.866
		c-47.851,0-86.778,38.957-86.778,86.842c0,47.884,38.927,86.841,86.778,86.841c47.848,0,86.776-38.957,86.776-86.841
		C384.052,77.823,345.123,38.866,297.275,38.866z"/>
	<path fill="#1A71B9" d="M203.918,225.708c-55.105,0-99.937-44.859-99.937-100c0-55.14,44.832-100,99.937-100
		c55.104,0,99.936,44.86,99.936,100C303.854,180.849,259.022,225.708,203.918,225.708z M203.918,38.866
		c-47.85,0-86.778,38.957-86.778,86.842c0,47.884,38.928,86.841,86.778,86.841c47.849,0,86.777-38.957,86.777-86.841
		C290.695,77.823,251.767,38.866,203.918,38.866z"/>
	<g>
		<path d="M257.149,172.418h-13.107v-93.42h13.107V172.418z"/>
	</g>
	<g>
		<path d="M22.914,78.998h13.107v93.42H22.914V78.998z M33.194,131.426l41.249-52.428H90.57l-59.303,72.088L33.194,131.426z
			 M48.742,122.56l10.345-9.572l35.402,59.431H78.427L48.742,122.56z"/>
	</g>
	<g>
		<path d="M437.36,171.534c0,0-1.956-0.417-5.862-1.247c-3.908-0.831-7.555-2.078-10.943-3.742c-3.389-1.661-6.558-3.74-9.509-6.234
			l7.919-9.728c3.451,2.992,7.254,5.238,11.41,6.733c4.156,1.497,8.668,2.245,13.532,2.245c6.568,0,11.661-1.216,15.276-3.648
			c3.617-2.43,5.426-5.871,5.426-10.318v-0.063c0-3.157-0.82-5.663-2.463-7.513c-1.643-1.851-3.764-3.222-6.361-4.115
			c-2.597-0.895-5.954-1.715-10.07-2.464c-0.125-0.042-0.26-0.063-0.404-0.063c-0.147,0-0.281-0.021-0.405-0.062l-0.935-0.188
			c-6.07-1.04-11.006-2.214-14.811-3.523c-3.804-1.309-7.058-3.699-9.758-7.171c-2.703-3.47-4.053-8.408-4.053-14.81v-0.062
			c0-5.612,1.256-10.403,3.771-14.374c2.516-3.97,6.183-6.993,11.005-9.072c4.823-2.078,10.621-3.118,17.397-3.118
			c3.243,0,6.433,0.353,9.571,1.06c3.14,0.708,6.235,1.757,9.292,3.148c3.055,1.394,6.058,3.15,9.011,5.27l-7.233,10.101
			c-3.451-2.535-6.891-4.436-10.32-5.705c-3.428-1.268-6.87-1.902-10.32-1.902c-6.193,0-11.006,1.237-14.435,3.71
			c-3.431,2.474-5.146,5.977-5.146,10.507v0.063c0,3.117,0.884,5.571,2.651,7.358c1.766,1.787,3.97,3.108,6.61,3.96
			c2.638,0.851,6.307,1.735,11.005,2.649c0.166,0.042,0.321,0.073,0.469,0.094c0.144,0.021,0.301,0.053,0.466,0.093
			c0.209,0.042,0.438,0.084,0.687,0.125c0.249,0.042,0.478,0.084,0.687,0.125c5.487,1.122,10.069,2.454,13.749,3.991
			c3.679,1.539,6.754,4.021,9.229,7.451c2.473,3.431,3.709,8.118,3.709,14.062v0.125c0,5.529-1.309,10.258-3.929,14.186
			c-2.618,3.929-6.413,6.922-11.38,8.98c-4.968,2.057-10.964,3.086-17.989,3.086C439.543,171.534,437.36,171.534,437.36,171.534z"/>
	</g>
	<path fill="none" d="M197.338,125.708c0-32.724,15.789-61.825,40.145-80.08c-10.331-4.353-21.672-6.762-33.565-6.762
		c-47.85,0-86.778,38.957-86.778,86.842c0,47.884,38.928,86.841,86.778,86.841c11.893,0,23.234-2.408,33.565-6.762
		C213.127,187.533,197.338,158.431,197.338,125.708z"/>
	<path fill="none" d="M290.695,125.708c0-30.701-16.004-57.732-40.1-73.178c-24.096,15.446-40.099,42.477-40.099,73.178
		c0,30.702,16.003,57.732,40.099,73.178C274.691,183.44,290.695,156.41,290.695,125.708z"/>
	<path fill="none" d="M303.854,125.708c0,32.723-15.789,61.825-40.145,80.079c10.33,4.354,21.672,6.762,33.566,6.762
		c47.848,0,86.776-38.957,86.776-86.841c0-47.885-38.929-86.842-86.776-86.842c-11.895,0-23.236,2.409-33.566,6.762
		C288.064,63.883,303.854,92.984,303.854,125.708z"/>
	<path fill="#1A71B9" d="M290.695,125.708c0,30.702-16.004,57.732-40.1,73.178c4.145,2.657,8.529,4.97,13.113,6.901
		c24.355-18.254,40.145-47.356,40.145-80.079c0-32.724-15.789-61.825-40.145-80.08c-4.584,1.931-8.969,4.245-13.113,6.901
		C274.691,67.976,290.695,95.007,290.695,125.708z"/>
	<path fill="#659E42" d="M210.497,125.708c0-30.701,16.003-57.732,40.099-73.178c-4.145-2.657-8.529-4.97-13.113-6.901
		c-24.355,18.254-40.145,47.356-40.145,80.08c0,32.723,15.789,61.825,40.145,80.079c4.584-1.932,8.968-4.244,13.113-6.901
		C226.5,183.44,210.497,156.41,210.497,125.708z"/>
	<path fill="#659E42" d="M250.596,52.53c4.145-2.657,8.669-5.028,13.252-6.959c-4.134-3.1-8.511-5.908-13.104-8.346
		c-4.592,2.438-9.126,5.305-13.261,8.404C242.067,47.56,246.451,49.873,250.596,52.53z"/>
</g>
</svg>
