<?xml version="1.0" encoding="utf-8"?>
<!-- Generator: Adobe Illustrator 26.0.1, SVG Export Plug-In . SVG Version: 6.00 Build 0)  -->
<svg version="1.1" id="Layer_1" xmlns="http://www.w3.org/2000/svg" xmlns:xlink="http://www.w3.org/1999/xlink" x="0px" y="0px"
	 viewBox="0 0 160 244" style="enable-background:new 0 0 160 244;" xml:space="preserve">
<style type="text/css">
	.st0{fill:#788E9A;stroke:#2B2E49;stroke-width:1.6271;stroke-linecap:round;stroke-linejoin:round;stroke-miterlimit:10;}
	.st1{fill:#E64545;stroke:#2B2E49;stroke-width:1.6271;stroke-linecap:round;stroke-linejoin:round;stroke-miterlimit:10;}
	.st2{fill:#9A9494;stroke:#2B2E49;stroke-width:1.6271;stroke-linecap:round;stroke-linejoin:round;stroke-miterlimit:10;}
	.st3{fill:#0EA7FD;stroke:#2B2E49;stroke-width:1.6271;stroke-linecap:round;stroke-linejoin:round;stroke-miterlimit:10;}
	.st4{fill:#EF5A24;stroke:#2B2E49;stroke-width:1.6271;stroke-linecap:round;stroke-linejoin:round;stroke-miterlimit:10;}
	.st5{fill:#FFFFFF;stroke:#2B2E49;stroke-width:1.6271;stroke-linecap:round;stroke-linejoin:round;stroke-miterlimit:10;}
</style>
<g>
	<g>
		
			<rect x="70.5" y="172.4" transform="matrix(0.3527 -0.9357 0.9357 0.3527 -88.9504 223.1954)" class="st0" width="92.7" height="7.1"/>
		
			<rect x="83.4" y="177.2" transform="matrix(0.3527 -0.9357 0.9357 0.3527 -85.1675 238.3518)" class="st0" width="92.7" height="7.1"/>
	</g>
	<g>
		
			<rect x="126.2" y="35.5" transform="matrix(0.9357 -0.3527 0.3527 0.9357 -20.5376 51.0088)" class="st0" width="7.1" height="92.7"/>
		
			<rect x="113.3" y="40.4" transform="matrix(0.9357 -0.3527 0.3527 0.9357 -23.0679 46.7843)" class="st0" width="7.1" height="92.7"/>
	</g>
	<path class="st1" d="M69.6,233.5c0-4.3,1.6-8.6,4.9-11.9c3.3-3.3,7.6-4.9,11.9-4.9h46.2c4.3,0,8.6,1.6,11.9,4.9
		c3.3,3.3,4.9,7.6,4.9,11.9v6.1H69.6V233.5z"/>
	<path class="st2" d="M124.7,131.3c0-8.4,6.8-15.2,15.2-15.2c8.4,0,15.2,6.8,15.2,15.2c0,8.4-6.8,15.2-15.2,15.2
		C131.5,146.5,124.7,139.7,124.7,131.3z"/>
	<path class="st3" d="M132.7,131.3c0-4,3.2-7.2,7.2-7.2c4,0,7.2,3.2,7.2,7.2c0,4-3.2,7.2-7.2,7.2
		C135.9,138.5,132.7,135.3,132.7,131.3z"/>
	<path class="st4" d="M86.2,29.7C75.5,5.2,56.9,8.2,29.2,17.9L58.3,85C84.3,71.3,96.8,54.2,86.2,29.7z"/>
	<path class="st4" d="M4.9,27.6l29.7,68.5c0,0,5.7-2.3,14-6.2L19,21.7C10.4,25,4.9,27.6,4.9,27.6z"/>
	<path class="st5" d="M19,21.7l29.6,68.2c2.9-1.4,6.2-3,9.7-4.9L29.2,17.9C25.5,19.2,22,20.5,19,21.7z"/>
	<path class="st2" d="M118.2,20.6c1.7,4,1.9,8.6,0.1,12.9c-1.7,4.3-5,7.5-9,9.2l-15.4,6.6L78.1,12.1l15.4-6.6
		c4-1.7,8.6-1.9,12.9-0.1c4.3,1.7,7.5,5,9.2,9L118.2,20.6z"/>
</g>
</svg>
