<?xml version="1.0" encoding="utf-8"?>
<!-- Generator: Adobe Illustrator 26.0.1, SVG Export Plug-In . SVG Version: 6.00 Build 0)  -->
<svg version="1.1" xmlns="http://www.w3.org/2000/svg" xmlns:xlink="http://www.w3.org/1999/xlink" x="0px" y="0px"
	 viewBox="0 0 500 500" style="enable-background:new 0 0 500 500;" xml:space="preserve">
<style type="text/css">
	.st0{fill:#FFFFFF;}
	.st1{fill:#FFFFFF;stroke:#000000;stroke-miterlimit:10;}
	.st2{fill:#DB7294;stroke:#000000;stroke-miterlimit:10;}
	.st3{fill:#EEDA36;stroke:#000000;stroke-miterlimit:10;}
	.st4{fill:#1A71B9;}
	.st5{fill:#93FF7F;}
	.st6{fill:#CCFFAA;}
	.st7{fill:#EEDA36;}
	.st8{fill:#9E88E5;}
	.st9{fill:none;stroke:#000000;stroke-miterlimit:10;}
	.st10{fill:#DB7294;}
	.st11{fill:none;stroke:#000000;stroke-width:2;stroke-miterlimit:10;}
	.st12{fill:#E4B0C8;}
	.st13{fill:#141414;}
	.st14{fill:#F7F6F6;}
	.st15{fill:none;stroke:#672ED6;stroke-miterlimit:10;}
	.st16{fill:#D96980;}
	.st17{fill:#090909;}
	.st18{fill:#AAF2FF;}
	.st19{fill:#E4B0C8;stroke:#211F21;stroke-miterlimit:10;}
	.st20{fill:none;stroke:#211F21;stroke-miterlimit:10;}
	.st21{fill:none;stroke:#000000;}
	.st22{font-family:'Montserrat-ExtraBold';}
	.st23{font-size:32.1688px;}
</style>
<g id="BACKGROUND">
	<rect class="st0" width="500" height="500"/>
</g>
<g id="OBJECTS">
	<g>
		<g>
			<g>
				<path class="st1" d="M197.2,285.2h231.2c13.9,0,25.2-11.3,25.2-25.2V97.9c0-13.9-11.3-25.2-25.2-25.2H197.2
					c-13.9,0-25.2,11.3-25.2,25.2v162.2C172.1,274,183.3,285.2,197.2,285.2z"/>
				<g>
					<g>
						<path class="st2" d="M199.5,92.2c0,2.7-2.1,4.8-4.8,4.8c-2.6,0-4.8-2.2-4.8-4.8c0-2.7,2.1-4.8,4.8-4.8
							C197.4,87.4,199.5,89.5,199.5,92.2z"/>
						<path class="st3" d="M218.5,92.2c0,2.7-2.1,4.8-4.8,4.8c-2.6,0-4.8-2.2-4.8-4.8c0-2.7,2.1-4.8,4.8-4.8
							C216.4,87.4,218.5,89.5,218.5,92.2z"/>
						<ellipse class="st4" cx="232.7" cy="92.2" rx="4.8" ry="4.8"/>
					</g>
					<line class="st1" x1="172.7" y1="109.1" x2="453.6" y2="109.1"/>
				</g>
			</g>
			<g>
				<g>
					<path class="st5" d="M225.7,143.9v-22.6c-12.5,0-22.6,10.1-22.6,22.6c0,12.5,10.1,22.6,22.6,22.6c12.5,0,22.6-10.1,22.6-22.6
						c0-1.6-0.2-3.2-0.5-4.8L225.7,143.9z"/>
					<path class="st6" d="M250.6,135.2c-2.2-10.2-11.2-17.8-22-17.8v22.6L250.6,135.2z"/>
				</g>
				<g>
					<g>
						<path class="st7" d="M199.8,181.7h-1.9c-1.3,0-2.3-1-2.3-2.3v-1.9c0-1.3,1-2.3,2.3-2.3h1.9c1.3,0,2.3,1,2.3,2.3v1.9
							C202.1,180.6,201.1,181.7,199.8,181.7z"/>
						<path class="st7" d="M199.8,192.1h-1.9c-1.3,0-2.3-1-2.3-2.3v-1.9c0-1.3,1-2.3,2.3-2.3h1.9c1.3,0,2.3,1,2.3,2.3v1.9
							C202.1,191,201.1,192.1,199.8,192.1z"/>
						<path class="st7" d="M199.8,202.5h-1.9c-1.3,0-2.3-1-2.3-2.3v-1.9c0-1.3,1-2.3,2.3-2.3h1.9c1.3,0,2.3,1,2.3,2.3v1.9
							C202.1,201.4,201.1,202.5,199.8,202.5z"/>
					</g>
					<g>
						<path class="st8" d="M253.4,180.4h-43.6c-0.9,0-1.6-0.7-1.6-1.6l0,0c0-0.9,0.7-1.6,1.6-1.6h43.6c0.9,0,1.6,0.7,1.6,1.6l0,0
							C255,179.7,254.3,180.4,253.4,180.4z"/>
						<path class="st8" d="M248.7,190.4h-38.9c-0.9,0-1.6-0.7-1.6-1.6l0,0c0-0.9,0.7-1.6,1.6-1.6h38.9c0.9,0,1.6,0.7,1.6,1.6l0,0
							C250.3,189.7,249.6,190.4,248.7,190.4z"/>
						<path class="st8" d="M261.9,200.4h-52.1c-0.9,0-1.6-0.7-1.6-1.6l0,0c0-0.9,0.7-1.6,1.6-1.6h52.1c0.9,0,1.6,0.7,1.6,1.6l0,0
							C263.5,199.7,262.8,200.4,261.9,200.4z"/>
					</g>
					<g>
						<path class="st8" d="M287.5,211.9h-89c-0.9,0-1.6-0.7-1.6-1.6l0,0c0-0.9,0.7-1.6,1.6-1.6h89c0.9,0,1.6,0.7,1.6,1.6l0,0
							C289.1,211.2,288.4,211.9,287.5,211.9z"/>
						<path class="st8" d="M287.5,220.3h-89c-0.9,0-1.6-0.7-1.6-1.6l0,0c0-0.9,0.7-1.6,1.6-1.6h89c0.9,0,1.6,0.7,1.6,1.6l0,0
							C289.1,219.6,288.4,220.3,287.5,220.3z"/>
						<g>
							<path class="st8" d="M287.5,229.2h-89c-0.9,0-1.6-0.7-1.6-1.6l0,0c0-0.9,0.7-1.6,1.6-1.6h89c0.9,0,1.6,0.7,1.6,1.6l0,0
								C289.1,228.5,288.4,229.2,287.5,229.2z"/>
							<path class="st8" d="M287.5,237.6h-89c-0.9,0-1.6-0.7-1.6-1.6l0,0c0-0.9,0.7-1.6,1.6-1.6h89c0.9,0,1.6,0.7,1.6,1.6l0,0
								C289.1,236.9,288.4,237.6,287.5,237.6z"/>
						</g>
					</g>
				</g>
			</g>
			<g>
				<line class="st9" x1="195.5" y1="249.5" x2="441.3" y2="249.5"/>
				<g>
					<g>
						<g>
							<path class="st0" d="M248.8,155.2c0,0-7.7-6.6-6.2-9.1s3.7-0.6,3.7-0.6s-2.3-1.9-0.9-3.4c1.4-1.5,2.9-0.7,2.9-0.7
								s-1.4-2.9,0.5-3.6c1.9-0.7,4.4,0.3,4.4,0.3s-0.7-2.3-0.5-3.1c0.2-0.8,1.5-2.3,5-0.9c3.5,1.4,10.6,6.7,13,8.4
								c2.4,1.7,4.9,5.2,5.1,4.2c0.2-1,2.2-7.1,5-8.6c2.7-1.5,3.7-1.7,3.7,1.9c-0.1,3.6-1.6,13.3,2.1,21.2
								c3.7,7.9,4.7,12.9,8.8,19.5c4.2,6.6,6.1,9.8,6.1,9.8L276,205.7c0,0-17.2-36.2-17.4-36.5C258.5,169,252.6,159.2,248.8,155.2z"
								/>
							<g>
								<path class="st9" d="M245.5,145.2c0,0-2.2-5,3-3.7c5.2,1.3,11.6,7.2,14.7,10.3"/>
								<path class="st9" d="M267.5,163.1c0,0-1.1-6.2,7.7-7.4c0,0-1.4-13,5.4-17.6c6.9-4.7,1.5,9.1,4.3,18.4
									c2.8,9.3,6.2,18.3,9.8,23.5s6.7,10.7,6.7,10.7l-25.6,15.1c0,0-6.1-13-15.5-33.2c-9.4-20.2-20-22.1-17.8-26.4
									c2.8-5.3,15.1,9.9,15.1,9.9"/>
								<path class="st9" d="M248.5,141.6c0,0-2.2-3.7,1.3-4.1c0.6-0.1,1.3,0,2.1,0.3c4.1,1.1,10.5,5.6,14.9,10.2"/>
								<path class="st9" d="M275.5,147.6c0,0-8.5-10.6-19.6-13.8c-4-1.1-4.4,2.9-0.6,5.2"/>
							</g>
						</g>
						<g>
							<path class="st1" d="M270.5,195.5l25.3-14.6c0,0,26.4,44,58.4,55.6L316.1,251l-30.7-2C285.4,249,275.1,222.2,270.5,195.5z"/>
							<path class="st5" d="M271.4,195.8c0.8,4.9,1.9,9.8,3,14.6l30.4-15.2c-5.8-7.8-9.2-13.6-9.2-13.6L271.4,195.8z"/>
							<g>
								<polygon class="st5" points="284.6,209.7 282.1,215 279.6,220.3 285.4,219.8 291.3,219.4 287.9,214.5 								"/>
								<polygon class="st5" points="304.7,202 302.2,207.3 299.7,212.6 305.5,212.1 311.4,211.6 308.1,206.8 								"/>
								<polygon class="st5" points="300.3,220.8 297.8,226.1 295.3,231.4 301.2,230.9 307,230.5 303.7,225.6 								"/>
								<polygon class="st10" points="319.4,223.5 316.9,228.8 314.4,234.1 320.2,233.6 326.1,233.2 322.7,228.3 								"/>
								<polygon class="st5" points="292.6,235.8 290.1,241.1 287.5,246.4 293.4,246 299.2,245.5 295.9,240.7 								"/>
								<polygon class="st10" points="312.6,239.3 310.1,244.6 307.6,249.9 313.4,249.5 319.3,249 315.9,244.2 								"/>
							</g>
						</g>
					</g>
					<g>
						<g>
							<path class="st0" d="M396.5,207.1c0,0,7.7,20.2-20.5,27.3c-28.1,7.1-61.2,5.9-61.2,5.9s-3.4,0-3.2-8.8
								c0.2-8.8-0.2-26.2,11.1-45.4c11.3-19.2,18.4-26.3,24.1-28.5C352.6,155.5,395.5,177.8,396.5,207.1z"/>
							<g>
								<polygon class="st5" points="372.7,200.4 369.7,205.5 366.8,210.7 372.7,210.7 378.6,210.7 375.7,205.5 								"/>
								<polygon class="st5" points="361.6,175.1 358.7,180.2 355.7,185.3 361.6,185.3 367.5,185.3 364.6,180.2 								"/>
								<polygon class="st5" points="343.1,195.3 340.2,200.4 337.2,205.5 343.1,205.5 349.1,205.5 346.1,200.4 								"/>
								<polygon class="st5" points="353.9,216.6 350.9,221.7 348,226.8 353.9,226.8 359.8,226.8 356.9,221.7 								"/>
								<polygon class="st5" points="322.7,214.3 319.7,219.4 316.8,224.6 322.7,224.6 328.6,224.6 325.7,219.4 								"/>
								<polygon class="st5" points="335.5,174.2 332.5,179.3 329.5,184.4 335.5,184.4 341.4,184.4 338.4,179.3 								"/>
							</g>
							<path class="st9" d="M344.8,157.7c0,0-38.7,32.8-32.5,81.3"/>
						</g>
						<g>
							<path class="st0" d="M362,156c0,0,9.2,0.1,17.8,3.2c8.6,3.1,21.9,7.5,35.7,21c0,0,20.2,19.8,21.9,37.2
								c1.7,17.4-0.2,27.9-22.1,39.5c0,0-16,6.2-33.8,2.9c-17.8-3.3-33-7.4-44.3-6c-11.3,1.4-15.9,1.5-21.9,7.2
								c-6,5.7-10.9,10.7-10.9,10.7s-1.5,2.1-3.2,2c-1.7-0.1-1.4-1.4-1.2-2.3c0.3-0.9,1.4-3.1-0.9-0.9c-2.3,2.2-3.3,3.3-4.6,3.2
								c-1.3-0.1-1.2-2.2-0.9-3.6c0.3-1.4,0.9-3.5,0.9-3.5s0.3-1.6-1.9,1c-2.2,2.6-3.7,3.2-4.7,2.5c-1.1-0.7-0.7-3.5,0-5.1
								c0.7-1.6,2.7-5.2,2.7-5.2s-2.3,1.5-3.4,2c-1.1,0.5-3.2-1.3-2.5-3.4c0.7-2.2,5.9-12.4,17.1-17.9c11.2-5.5,22-9,33.8-10.1
								c11.8-1.1,23.2-1.4,32.3-2.3c9.1-0.9,17.3-3,20.5-5.1c3.2-2.1,8.4-5.2,4.1-15c-4.3-9.9-13.5-20.1-13.5-20.1l-14.7-16.1
								L362,156z"/>
							<g>
								<polygon class="st5" points="383.5,226.8 380.5,232 377.5,237.1 383.5,237.1 389.4,237.1 386.4,232 								"/>
								<polygon class="st5" points="370.9,240.3 367.9,245.5 364.9,250.6 370.9,250.6 376.8,250.6 373.8,245.5 								"/>
								<polygon class="st5" points="397.7,245.5 394.7,250.6 391.8,255.8 397.7,255.8 403.6,255.8 400.7,250.6 								"/>
								<polygon class="st5" points="405.4,216.6 402.5,221.7 399.5,226.8 405.4,226.8 411.4,226.8 408.4,221.7 								"/>
								<polygon class="st5" points="423.6,202 420.7,207.1 417.7,212.2 423.6,212.2 429.6,212.2 426.6,207.1 								"/>
								<polygon class="st5" points="397.7,190.1 394.7,195.3 391.8,200.4 397.7,200.4 403.6,200.4 400.7,195.3 								"/>
								<polygon class="st5" points="413.2,179.3 410.2,184.4 407.3,189.6 413.2,189.6 419.1,189.6 416.2,184.4 								"/>
								<polygon class="st5" points="390.6,167.9 387.6,173 384.6,178.1 390.6,178.1 396.5,178.1 393.5,173 								"/>
								<polygon class="st5" points="423.6,231.6 420.7,236.7 417.7,241.9 423.6,241.9 429.6,241.9 426.6,236.7 								"/>
							</g>
							<path class="st5" d="M359.8,241.1v-10.9c0,0,0.2-1.4-0.7-1.3c-1,0.1-8.4,0.7-10.7,0.7c-2.3-0.1-3.9,0.1-3.9,0.1
								s-1.6,0.2-1.4,0.8c0.1,0.6,0.7,16.3,0.7,16.3l0,5.3l0.3,1.1c0,0-0.1,0.6,0.6,0.6c0.7,0.1,5,0.4,5,0.4l5.8,0.8
								c0,0,4.3,0.8,4.3,0.1C359.8,254.5,359.8,241.1,359.8,241.1z"/>
							<g>
								<line class="st9" x1="343.1" y1="229.7" x2="344" y2="253.5"/>
								<line class="st9" x1="359.8" y1="228.9" x2="359.8" y2="255.7"/>
							</g>
							<g>
								<path class="st9" d="M365.2,156c0,0,32.4,2.7,55.1,29.3c22.7,26.6,23.7,53.2,3.3,67.1c-20.4,13.9-48.1,6.4-59.9,4
									c-12.3-2.5-35.3-5.5-45.5,2.2c-10.2,7.7-15.3,16.8-17.8,14.8s5.3-11.5,5.3-11.5s-8.5,12.7-11.2,11.8
									c-2.7-0.9,0.8-9.4,0.8-9.4"/>
								<path class="st9" d="M375.7,184.4c0,0,21.9,22.1,17.7,33.8c-4.2,11.7-52,11.5-52,11.5s-32.4,2.1-47.9,16.6
									c0,0-10.5,9.3-8.7,14.1c1.8,4.9,7.7-3.6,7.7-3.6"/>
								<path class="st9" d="M295.3,253.5c0,0-9.2,10.3-7.7,15.2c1.4,4.9,7.7-4.1,11.9-9.9"/>
							</g>
						</g>
						<g>
							<path class="st11" d="M373.9,129.3c0,3.9-3.2,7.1-7.1,7.1s-7.1-3.2-7.1-7.1c0-3.9,3.2-7.1,7.1-7.1S373.9,125.4,373.9,129.3z"
								/>
							<g>
								<path class="st1" d="M342.9,107.4h8.9c5.9,0,10.8,5.5,10.8,12.3v13.9c0,0.4,0,0.8-0.1,1.2c0.1,0.4,0.2,0.8,0.2,1.3v8.4v0.5
									v8.4c0,3.1-2.5,5.6-5.6,5.6h-3.5c-3.1,0-5.6-2.5-5.6-5.6v-7.5h-5.2c-5.9,0-10.8-5.5-10.8-12.3v-13.9
									C332.1,112.9,337,107.4,342.9,107.4z"/>
								<g>
									<path d="M360.3,129.1l-1.6-10.9c0,0-30,3.8-39.8-10.8c-9.7-14.6,0.5-20.4,5.4-19.5c4.9,0.8,10.7,7.9,10.7,7.9
										s-4.6-6.3,0-7.3c4.6-1,9.7,3.8,12.3,8.7c0,0,19.8-1.8,26.5,10.1c6.7,12,1.3,20.5-11,32.8l-0.8-6.9L360.3,129.1z"/>
									<ellipse transform="matrix(0.1506 -0.9886 0.9886 0.1506 230.3316 456.6183)" cx="380.9" cy="94.3" rx="10.9" ry="10.9"/>
								</g>
								<g>
									<g>
										<path class="st12" d="M357.6,131.2c0,2.8-2.3,5.1-5.1,5.1c-2.8,0-5.1-2.3-5.1-5.1c0-2.8,2.3-5.1,5.1-5.1
											C355.3,126.1,357.6,128.4,357.6,131.2z"/>
										<path class="st12" d="M333.5,127.1c-0.3,0-0.6,0-0.9,0.1v5.3c0,0.8-0.1,1.6,0.1,2.3c0.2,0,0.6,0.1,0.8,0.1
											c2.2,0,3.9-1.7,3.9-3.9S335.6,127.1,333.5,127.1z"/>
									</g>
									<g>
										<g>
											<path class="st13" d="M348.3,124c0,1-0.8,1.8-1.8,1.8c-1,0-1.8-0.8-1.8-1.8c0-1,0.8-1.8,1.8-1.8
												C347.5,122.2,348.3,123,348.3,124z"/>
											<circle class="st13" cx="334.8" cy="123.8" r="1.6"/>
										</g>
										<g>
											<path class="st14" d="M338.1,131.2c0,0,0.9,2.7,2.9,2.9c1.9,0.2,3.5-2,3.6-3.6L338.1,131.2z"/>
											<g>
												<path class="st13" d="M337.6,131.4c0.3,1,1,2,1.8,2.6c1.5,1.1,3.4,0.6,4.5-0.8c0.6-0.8,1.1-1.8,1.1-2.8
													c0-0.3-0.3-0.6-0.6-0.6c-1.9,0.2-3.7,0.5-5.6,0.7c-0.3,0-0.5,0.1-0.8,0.1c-0.3,0-0.6,0.2-0.6,0.6c0,0.3,0.3,0.6,0.6,0.6
													c1.9-0.2,3.7-0.5,5.6-0.7c0.3,0,0.5-0.1,0.8-0.1c-0.2-0.2-0.4-0.4-0.6-0.6c-0.1,1.3-1,2.7-2.3,3
													c-1.2,0.3-2.1-0.6-2.6-1.6c-0.1-0.2-0.2-0.4-0.3-0.6c0-0.1,0,0.1,0,0c0,0,0-0.1,0-0.1c0,0,0-0.1,0-0.1
													C338.4,130.4,337.4,130.7,337.6,131.4z"/>
											</g>
										</g>
										<g>
											<ellipse class="st15" cx="349.4" cy="123" rx="6.4" ry="7.1"/>
											<ellipse class="st15" cx="333.5" cy="122.1" rx="5.2" ry="6.4"/>
											<polygon class="st16" points="340.8,122.2 340.8,128.4 337.6,126.4 											"/>
											<path class="st15" d="M338.6,124c0,0,2.6-1.1,4.4,0.5"/>
										</g>
									</g>
								</g>
								<g>
									<path class="st0" d="M373.9,129.3c0,3.9-3.2,7.1-7.1,7.1s-7.1-3.2-7.1-7.1c0-3.9,3.2-7.1,7.1-7.1S373.9,125.4,373.9,129.3z
										"/>
									<g>
										<g>
											<path class="st17" d="M363.6,130.2c0-0.2,0-0.3,0-0.5c0-0.1,0-0.1,0-0.2c0,0,0-0.1,0-0.1c0-0.2,0,0.2,0,0
												c0-0.2,0.1-0.4,0.1-0.6c0-0.1,0.1-0.2,0.1-0.3c0-0.1,0-0.1,0.1-0.2c0,0,0-0.1,0-0.1c0-0.1,0,0,0,0
												c0.1-0.1,0.1-0.2,0.2-0.3c0.1-0.1,0.1-0.2,0.2-0.3c0,0,0,0,0-0.1c0.1-0.1,0,0,0,0c0,0,0.1-0.1,0.1-0.1
												c0.1-0.1,0.2-0.2,0.3-0.3c0,0,0,0,0.1,0c0.1-0.1,0,0,0,0c0,0,0.1-0.1,0.2-0.1c0.1-0.1,0.3-0.2,0.4-0.2c0,0,0.1-0.1,0,0
												c-0.1,0,0.1,0,0.1,0c0.1,0,0.2-0.1,0.3-0.1c0.1,0,0.2,0,0.3-0.1c0.1,0,0.4-0.1,0.2,0c0.5-0.1,0.9,0,1.4,0
												c0.4,0,0.7-0.3,0.7-0.7c0-0.4-0.3-0.6-0.7-0.7c-1.5-0.2-3.2,0.2-4.2,1.4c-0.7,0.8-1,1.9-1.1,2.9c0,0.2,0,0.4,0,0.6
												c0,0.4,0.3,0.7,0.7,0.7C363.3,130.9,363.6,130.6,363.6,130.2L363.6,130.2z"/>
										</g>
									</g>
								</g>
								<path class="st5" d="M348.2,165.4h14.9c3.2,0,5.9-2.6,5.9-5.9v-1.7c0-3.2-2.6-5.9-5.9-5.9h-14.9c-3.2,0-5.9,2.6-5.9,5.9v1.7
									C342.4,162.8,345,165.4,348.2,165.4z"/>
							</g>
						</g>
					</g>
				</g>
			</g>
		</g>
		<g>
			<line class="st9" x1="34.8" y1="412.1" x2="465.2" y2="412.1"/>
			<g>
				<rect x="141.5" y="407.6" class="st1" width="92.8" height="19.7"/>
				<g>
					<g>
						<path class="st1" d="M167.4,285.1c0,0,7.6,5,17.7,16.9c12.7,15,29.3,38.2,39.6,43.8c23.4,12.9,61.2,14.8,61.2,14.8l-17.7,35.8
							l-84.4-10.8L167.4,285.1z"/>
						<g>
							<path class="st4" d="M216,369.1L216,369.1c-1.8,0.3-3.5-0.9-3.8-2.8l-1.9-10.4c-0.3-1.9,0.8-3.6,2.6-3.9h0
								c1.8-0.3,3.5,0.9,3.8,2.8l1.9,10.4C218.9,367,217.7,368.8,216,369.1z"/>
							<path class="st4" d="M199.9,340.6L199.9,340.6c-1.8,0.3-3.5-0.9-3.8-2.8l-1.9-10.4c-0.3-1.9,0.8-3.6,2.6-3.9h0
								c1.8-0.3,3.5,0.9,3.8,2.8l1.9,10.4C202.8,338.5,201.7,340.3,199.9,340.6z"/>
							<path class="st4" d="M229.4,387.4L229.4,387.4c-1.8,0.3-3.5-0.9-3.8-2.8l-1.9-10.4c-0.3-1.9,0.8-3.6,2.6-3.9h0
								c1.8-0.3,3.5,0.9,3.8,2.8l1.9,10.4C232.3,385.3,231.1,387.1,229.4,387.4z"/>
							<path class="st4" d="M240,374.8L240,374.8c-1.8,0.3-3.5-0.9-3.8-2.8l-1.9-10.4c-0.3-1.9,0.8-3.6,2.6-3.9h0
								c1.8-0.3,3.5,0.9,3.8,2.8l1.9,10.4C242.9,372.7,241.7,374.5,240,374.8z"/>
							<path class="st4" d="M257.2,392.8L257.2,392.8c-1.8,0.3-3.5-0.9-3.8-2.8l-1.9-10.4c-0.3-1.9,0.8-3.6,2.6-3.9h0
								c1.8-0.3,3.5,0.9,3.8,2.8l1.9,10.4C260.1,390.7,258.9,392.5,257.2,392.8z"/>
							<path class="st4" d="M269.6,378.6L269.6,378.6c-1.8,0.3-3.5-0.9-3.8-2.8l-1.9-10.4c-0.3-1.9,0.8-3.6,2.6-3.9h0
								c1.8-0.3,3.5,0.9,3.8,2.8l1.9,10.4C272.5,376.5,271.4,378.3,269.6,378.6z"/>
						</g>
					</g>
					<g>
						<path class="st1" d="M150.8,283.5c0,0,24.4-12.2,46,44.8c15,39.7,10.1,68,10.1,68l-123.2-1.5
							C83.7,394.8,107.3,299.2,150.8,283.5z"/>
						<g>
							<path class="st4" d="M134.3,374.3L134.3,374.3c-1.8,0.3-3.5-0.9-3.8-2.8l-1.9-10.4c-0.3-1.9,0.8-3.6,2.6-3.9h0
								c1.8-0.3,3.5,0.9,3.8,2.8l1.9,10.4C137.3,372.2,136.1,374,134.3,374.3z"/>
							<path class="st4" d="M155.5,359.5L155.5,359.5c-1.8,0.3-3.5-0.9-3.8-2.8l-1.9-10.4c-0.3-1.9,0.8-3.6,2.6-3.9h0
								c1.8-0.3,3.5,0.9,3.8,2.8l1.9,10.4C158.5,357.4,157.3,359.1,155.5,359.5z"/>
							<path class="st4" d="M174.6,377.7L174.6,377.7c-1.8,0.3-3.5-0.9-3.8-2.8l-1.9-10.4c-0.3-1.9,0.8-3.6,2.6-3.9h0
								c1.8-0.3,3.5,0.9,3.8,2.8l1.9,10.4C177.5,375.6,176.3,377.4,174.6,377.7z"/>
							<path class="st4" d="M191.6,355.6L191.6,355.6c-1.8,0.3-3.5-0.9-3.8-2.8l-1.9-10.4c-0.3-1.9,0.8-3.6,2.6-3.9h0
								c1.8-0.3,3.5,0.9,3.8,2.8l1.9,10.4C194.5,353.5,193.4,355.3,191.6,355.6z"/>
							<path class="st4" d="M173.3,337.7L173.3,337.7c-1.8,0.3-3.5-0.9-3.8-2.8l-1.9-10.4c-0.3-1.9,0.8-3.6,2.6-3.9h0
								c1.8-0.3,3.5,0.9,3.8,2.8l1.9,10.4C176.2,335.6,175.1,337.3,173.3,337.7z"/>
							<path class="st4" d="M154.3,316.4L154.3,316.4c-1.8,0.3-3.5-0.9-3.8-2.8l-1.9-10.4c-0.3-1.9,0.8-3.6,2.6-3.9h0
								c1.8-0.3,3.5,0.9,3.8,2.8l1.9,10.4C157.2,314.3,156.1,316.1,154.3,316.4z"/>
							<path class="st4" d="M172.8,307.8L172.8,307.8c-1.8,0.3-3.5-0.9-3.8-2.8l-1.9-10.4c-0.3-1.9,0.8-3.6,2.6-3.9h0
								c1.8-0.3,3.5,0.9,3.8,2.8l1.9,10.4C175.7,305.7,174.5,307.5,172.8,307.8z"/>
							<path class="st4" d="M202,386.8L202,386.8c-1.8,0.3-3.5-0.9-3.8-2.8l-1.9-10.4c-0.3-1.9,0.8-3.6,2.6-3.9h0
								c1.8-0.3,3.5,0.9,3.8,2.8l1.9,10.4C204.9,384.7,203.8,386.4,202,386.8z"/>
							<path class="st4" d="M137.9,336.6L137.9,336.6c-1.8,0.3-3.5-0.9-3.8-2.8l-1.9-10.4c-0.3-1.9,0.8-3.6,2.6-3.9h0
								c1.8-0.3,3.5,0.9,3.8,2.8l1.9,10.4C140.8,334.5,139.6,336.3,137.9,336.6z"/>
						</g>
					</g>
					<g>
						<g>
							<path class="st0" d="M155.7,373.3l-4.5,37.6c0,0,27.4-1.3,42.5,0.6c15.1,1.9,24.3,3.1,24.3,3.1s5,0,4.4-2.9
								c-0.6-2.9-0.5-2.4,1.9-1.7c2.4,0.7,5.9-0.8,6.1-2.7c0.2-1.9-0.7-4.2-0.7-4.2s3.1,0.6,4.7,0.4c1.6-0.2,6.6-2.5,6.1-4.9
								c-0.5-2.4-2.4-11.2-30-17.9C182.9,374,155.7,373.3,155.7,373.3z"/>
							<g>
								<path class="st9" d="M149.2,411c0,0,34.9-2.5,63.6,3.1c2.4,0.5,11.9,2,9.1-4c-2.8-6-17.1-9.3-24-10.2"/>
								<path class="st9" d="M200.4,388.3c0,0,8.4,1.8,15.1,5c4.9,2.4,9.8,5.5,12.5,8c6.1,5.5,0.5,11-6.6,8"/>
								<path class="st9" d="M154,373.3c0,0,36,0.2,66.4,10.3c30.4,10.2,20.2,24,8.7,18.7"/>
							</g>
						</g>
						<path class="st0" d="M149.1,284.8c0,0-46.3-1.3-81.4,51C32.7,388,37,441.4,113.6,423.8c10.7-2.5,42.3-11.9,42.3-11.9l3.8-39.8
							c0,0-35.8-3-60.5-4.5L149.1,284.8z"/>
						<g>
							<path class="st4" d="M135.4,417.9c10.6-3,20.5-6,20.5-6l3.8-39.8c0,0-8.1-0.7-19.2-1.5L135.4,417.9z"/>
							<g>
								<line class="st9" x1="139.6" y1="378.2" x2="158.9" y2="379.5"/>
								<line class="st9" x1="138.5" y1="388.2" x2="157.7" y2="388.3"/>
								<line class="st9" x1="137.6" y1="398.1" x2="157.4" y2="396.6"/>
								<line class="st9" x1="136.3" y1="407.6" x2="156.4" y2="404.2"/>
							</g>
						</g>
						<g>
							<path class="st9" d="M149.1,284.8c0,0-46.3-1.3-81.4,51C32.7,388,37,441.4,113.6,423.8c10.7-2.5,42.3-11.9,42.3-11.9
								l3.8-39.8c0,0-35.8-3-60.5-4.5"/>
							<line class="st9" x1="111.9" y1="368.5" x2="123.8" y2="345.6"/>
						</g>
						<g>
							<path class="st4" d="M73.5,379.2L73.5,379.2c-1.8,0.3-3.5-0.9-3.8-2.8L67.8,366c-0.3-1.9,0.8-3.6,2.6-3.9h0
								c1.8-0.3,3.5,0.9,3.8,2.8l1.9,10.4C76.4,377.1,75.3,378.9,73.5,379.2z"/>
							<path class="st4" d="M63.2,412L63.2,412c-1.8,0.3-3.5-0.9-3.8-2.8l-1.9-10.4c-0.3-1.9,0.8-3.6,2.6-3.9h0
								c1.8-0.3,3.5,0.9,3.8,2.8l1.9,10.4C66.1,409.9,65,411.7,63.2,412z"/>
							<path class="st4" d="M93.6,416.1L93.6,416.1c-1.8,0.3-3.5-0.9-3.8-2.8L87.9,403c-0.3-1.9,0.8-3.6,2.6-3.9h0
								c1.8-0.3,3.5,0.9,3.8,2.8l1.9,10.4C96.5,414.1,95.3,415.8,93.6,416.1z"/>
							<path class="st4" d="M109.7,390.5L109.7,390.5c-1.8,0.3-3.5-0.9-3.8-2.8l-1.9-10.4c-0.3-1.9,0.8-3.6,2.6-3.9h0
								c1.8-0.3,3.5,0.9,3.8,2.8l1.9,10.4C112.6,388.4,111.5,390.1,109.7,390.5z"/>
							<path class="st4" d="M103,359.5L103,359.5c-1.8,0.3-3.5-0.9-3.8-2.8l-1.9-10.4c-0.3-1.9,0.8-3.6,2.6-3.9h0
								c1.8-0.3,3.5,0.9,3.8,2.8l1.9,10.4C105.9,357.4,104.7,359.1,103,359.5z"/>
							<path class="st4" d="M115.5,333.7L115.5,333.7c-1.8,0.3-3.5-0.9-3.8-2.8l-1.9-10.4c-0.3-1.9,0.8-3.6,2.6-3.9h0
								c1.8-0.3,3.5,0.9,3.8,2.8l1.9,10.4C118.4,331.6,117.2,333.3,115.5,333.7z"/>
							<path class="st4" d="M132.2,307.8L132.2,307.8c-1.8,0.3-3.5-0.9-3.8-2.8l-1.9-10.4c-0.3-1.9,0.8-3.6,2.6-3.9h0
								c1.8-0.3,3.5,0.9,3.8,2.8l1.9,10.4C135.1,305.7,133.9,307.5,132.2,307.8z"/>
							<path class="st4" d="M83.5,342.3L83.5,342.3c-1.8,0.3-3.5-0.9-3.8-2.8l-1.9-10.4c-0.3-1.9,0.8-3.6,2.6-3.9h0
								c1.8-0.3,3.5,0.9,3.8,2.8l1.9,10.4C86.4,340.2,85.2,341.9,83.5,342.3z"/>
							<path class="st4" d="M128,412L128,412c-1.8,0.3-3.5-0.9-3.8-2.8l-1.9-10.4c-0.3-1.9,0.8-3.6,2.6-3.9h0
								c1.8-0.3,3.5,0.9,3.8,2.8l1.9,10.4C130.9,409.9,129.7,411.7,128,412z"/>
						</g>
					</g>
					<g>
						<path class="st11" d="M133.6,250.7c0,4.5,3.7,8.2,8.3,8.2c4.6,0,8.3-3.7,8.3-8.2c0-4.5-3.7-8.2-8.3-8.2
							C137.4,242.4,133.6,246.1,133.6,250.7z"/>
						<path class="st4" d="M167,283.7c0,3.8-5.3,6.9-11.8,6.9s-11.8-3.1-11.8-6.9c0-3.8,5.3-6.9,11.8-6.9S167,279.9,167,283.7z"/>
						<path class="st1" d="M169.8,225.1h-10.4c-6.9,0-12.6,6.5-12.6,14.3v16.1c0,0.5,0,0.9,0.1,1.3c-0.1,0.5-0.2,1-0.2,1.5v9.8v0.5
							v9.8c0,3.6,2.9,6.5,6.5,6.5h4.1c3.6,0,6.5-2.9,6.5-6.5v-8.7h6c6.9,0,12.6-6.4,12.6-14.3v-16.1
							C182.4,231.6,176.7,225.1,169.8,225.1z"/>
						<g>
							<g>
								<path class="st13" d="M161.5,244.7c0,1.3,1.1,2.3,2.3,2.3s2.3-1.1,2.3-2.3s-1.1-2.3-2.3-2.3S161.5,243.4,161.5,244.7z"/>
								<path class="st13" d="M176.9,244.4c0,1.1,0.9,2,2,2c1.1,0,2-0.9,2-2c0-1.1-0.9-2-2-2C177.8,242.4,176.9,243.3,176.9,244.4z"
									/>
							</g>
							<g>
								<path class="st14" d="M174.6,254c0,0-1.2,3.4-3.7,3.7c-2.5,0.2-4.4-2.5-4.6-4.7L174.6,254z"/>
								<g>
									<path class="st13" d="M174.1,253.9c0,0.1-0.1,0.2-0.1,0.3c0.1-0.1-0.1,0.2-0.1,0.2c-0.1,0.1-0.1,0.3-0.2,0.4
										c-0.3,0.6-0.7,1.2-1.2,1.7c-0.6,0.5-1.3,0.8-2.2,0.7c-0.9-0.1-1.6-0.7-2.2-1.4c-0.6-0.8-1.1-1.8-1.2-2.8
										c-0.2,0.2-0.4,0.4-0.6,0.6c2.4,0.3,4.8,0.6,7.2,0.9c0.3,0,0.7,0.1,1,0.1c0.3,0,0.6-0.3,0.6-0.6c0-0.3-0.3-0.5-0.6-0.6
										c-2.4-0.3-4.8-0.6-7.2-0.9c-0.3,0-0.7-0.1-1-0.1c-0.3,0-0.6,0.3-0.6,0.6c0.2,2.1,1.6,4.4,3.7,5.1c2.1,0.7,3.9-0.7,4.9-2.4
										c0.3-0.5,0.6-1,0.7-1.5C175.4,253.5,174.3,253.2,174.1,253.9z"/>
								</g>
							</g>
							<g>
								<path class="st12" d="M153.4,253.4c0,3.2,2.6,5.8,5.8,5.8c3.2,0,5.8-2.6,5.8-5.8c0-3.2-2.6-5.8-5.8-5.8
									C156,247.5,153.4,250.2,153.4,253.4z"/>
								<path class="st12" d="M180.8,249.4c0.4,0,0.7,0,1,0.1v6.1c0,0.9,0,1.8-0.2,2.6c-0.2,0-0.6,0.1-0.8,0.1c-2.5,0-4.4-2-4.4-4.4
									C176.3,251.4,178.3,249.4,180.8,249.4z"/>
							</g>
							<polygon class="st16" points="172,242.4 171.5,250.4 175.3,248.1 							"/>
						</g>
						<path d="M149.5,250.4l1.9-12.6c0,0,35,4.4,46.3-12.6c11.3-17-0.6-23.7-6.3-22.8c-5.8,1-12.5,9.2-12.5,9.2s5.4-7.3,0-8.5
							c-5.4-1.2-11.3,4.4-14.4,10.2c0,0-23.1-2.2-30.9,11.8c-7.8,14-1.5,23.9,12.8,38.3l1-8.1L149.5,250.4z"/>
						<g>
							<path class="st0" d="M133.6,250.7c0,4.5,3.7,8.2,8.3,8.2c4.6,0,8.3-3.7,8.3-8.2c0-4.5-3.7-8.2-8.3-8.2
								C137.4,242.4,133.6,246.1,133.6,250.7z"/>
							<g>
								<g>
									<path class="st17" d="M147.1,251.7c0-0.7-0.1-1.4-0.3-2.1c-0.4-1.3-1.2-2.5-2.5-3.1c-1-0.5-2.2-0.6-3.3-0.5
										c-0.4,0-0.7,0.3-0.7,0.7c0,0.3,0.3,0.7,0.7,0.7c0.5-0.1,1-0.1,1.5,0c0.1,0,0.1,0,0.2,0c-0.2,0,0,0,0.1,0
										c0.1,0,0.2,0,0.3,0.1c0.2,0,0.4,0.1,0.6,0.2c0,0,0.1,0,0.1,0c-0.2-0.1,0,0,0,0c0.1,0,0.1,0.1,0.2,0.1
										c0.1,0.1,0.3,0.2,0.4,0.3c-0.2-0.1,0,0,0.1,0.1c0.1,0,0.1,0.1,0.2,0.1c0.1,0.1,0.2,0.2,0.3,0.3c-0.1-0.2,0,0,0,0.1
										c0,0.1,0.1,0.1,0.1,0.2c0.1,0.1,0.1,0.3,0.2,0.4c0,0.1,0.1,0.1,0.1,0.2c0,0.1-0.1-0.2,0,0c0,0,0,0.1,0,0.1
										c0.1,0.1,0.1,0.3,0.1,0.4c0.1,0.2,0.1,0.5,0.2,0.7c0,0.1,0,0.1,0,0.2c0,0.2,0-0.2,0,0c0,0.1,0,0.2,0,0.3c0,0.2,0,0.4,0,0.7
										c0,0.4,0.3,0.7,0.7,0.7C146.8,252.4,147.1,252.1,147.1,251.7L147.1,251.7z"/>
								</g>
							</g>
						</g>
					</g>
				</g>
			</g>
			<g>
				<g>
					<polygon class="st1" points="244.4,342.3 368.8,342.3 346.2,427.3 222.4,427.3 					"/>
					
						<ellipse transform="matrix(0.2308 -0.973 0.973 0.2308 -147.0093 583.611)" class="st2" cx="295.6" cy="384.8" rx="10.5" ry="10.5"/>
				</g>
				<g>
					<g>
						<g>
							<g>
								<path class="st7" d="M398.5,410.3L398.5,410.3c-3.7,0.8-6.9,0.4-7.2-1.1l-8.6-37.6c-0.3-1.4,2.4-3.3,6-4.1l0,0
									c3.7-0.8,7.5-0.4,7.8,1l8.1,37.7C404.8,407.6,402.1,409.5,398.5,410.3z"/>
								<g>
									<path d="M398.3,409.7c-1.4,0.3-5.8,1.2-6.5-0.8c-0.2-0.7-0.3-1.4-0.5-2.1c-0.7-3.2-1.5-6.4-2.2-9.7
										c-1.7-7.6-3.5-15.2-5.2-22.8c-0.2-0.8-0.4-1.7-0.6-2.5c-0.3-1.6,1.9-2.5,3.1-3c1.8-0.7,3.8-1.1,5.7-1.2c1,0,3.2-0.1,3.8,1
										c0.2,0.4,0.2,1,0.3,1.5c1.5,7.1,3,14.2,4.6,21.4c0.8,3.6,1.6,7.3,2.3,10.9c0.2,1,0.4,2.1,0.7,3.1c0.2,0.9,0.3,1.3-0.6,2
										C401.8,408.7,400,409.3,398.3,409.7c-0.8,0.2-0.5,1.4,0.3,1.2c2-0.5,6.5-1.7,6.5-4.5c0-0.6-0.2-1.2-0.3-1.8
										c-0.7-3.3-1.4-6.5-2.1-9.8c-1.7-8.1-3.5-16.2-5.2-24.4c-0.2-0.7-0.2-1.5-0.5-2.1c-0.6-2.1-3.9-2-5.6-1.9
										c-2.9,0.2-7.2,1-9,3.6c-0.6,0.8-0.5,1.5-0.3,2.4c1.7,7.4,3.4,14.8,5.1,22.2c0.9,3.8,1.8,7.7,2.6,11.5
										c0.2,0.9,0.4,1.9,0.7,2.8c0.3,1.4,1.5,1.9,2.9,2.2c1.7,0.3,3.5,0,5.2-0.3C399.4,410.8,399.1,409.6,398.3,409.7z"/>
								</g>
							</g>
							<g>
								
									<rect x="389" y="396.7" transform="matrix(0.9747 -0.2234 0.2234 0.9747 -79.1046 98.5019)" class="st4" width="13.7" height="4.4"/>
							</g>
							<g>
								<g>
									<path class="st0" d="M382.9,370.9l3.3-14.6l9.7,11.7c0.3,0.3-0.4,0.8-1.3,1l-10.2,2.2C383.5,371.4,382.8,371.3,382.9,370.9
										z"/>
									<g>
										<path d="M383.5,371.1c1-4.2,1.9-8.5,2.9-12.7c0.1-0.6,0.3-1.2,0.4-1.8c-0.3,0.1-0.7,0.2-1,0.3c2.4,2.9,4.9,5.9,7.3,8.8
											c0.6,0.7,1.2,1.4,1.8,2.1c0.2,0.2,0.3,0.4,0.5,0.6c0,0,0.1,0.1,0.1,0.1c0,0,0,0,0,0c-0.1,0-0.1-0.3-0.2-0.3
											c-0.1,0-0.3,0.2-0.4,0.2c-0.6,0.2-1.2,0.3-1.8,0.4c-1.1,0.2-2.3,0.5-3.4,0.7c-1.3,0.3-2.6,0.6-3.9,0.8
											c-0.4,0.1-0.8,0.2-1.2,0.3c-0.1,0-0.2,0-0.3,0.1c0,0,0,0,0,0c-0.1,0-0.3,0.1-0.5,0.1c-0.3,0-0.3-0.1-0.3,0.2
											c0-0.8-1.2-0.8-1.2,0c0,2,4.7,0.4,5.7,0.2c2.2-0.5,4.4-0.9,6.6-1.4c0.9-0.2,2.5-0.9,1.7-2.1c-0.3-0.4-0.7-0.8-1-1.2
											c-1.6-2-3.3-4-4.9-6c-1.2-1.5-2.5-3-3.7-4.5c-0.3-0.4-0.9-0.2-1,0.3c-1,4.2-1.9,8.5-2.9,12.7c-0.1,0.6-0.3,1.2-0.4,1.8
											C382.1,371.5,383.3,371.9,383.5,371.1z"/>
									</g>
								</g>
								<polygon points="385,363.9 391.3,362.5 386.2,356.3 								"/>
							</g>
							<g>
								<path class="st10" d="M390.1,404.2l1.5,6.4c0.4,1.8,3.7,2.6,7.4,1.8l0,0c3.7-0.8,6.3-3,5.9-4.8l-1.4-6.5L390.1,404.2z"/>
								<g>
									<path d="M389.5,404.3c0.4,1.6,0.7,3.2,1.1,4.9c0.1,0.6,0.2,1.2,0.4,1.7c0.4,1.2,1.6,1.8,2.7,2.1c3.1,0.9,7.1,0,9.8-1.9
										c0.9-0.7,1.8-1.6,2-2.7c0.1-0.6-0.1-1.3-0.2-1.9c-0.4-1.9-0.8-3.7-1.2-5.6c-0.1-0.3-0.5-0.5-0.8-0.4
										c-3.9,0.9-7.8,1.8-11.7,2.7c-0.6,0.1-1.1,0.3-1.7,0.4c-0.8,0.2-0.5,1.4,0.3,1.2c3.9-0.9,7.8-1.8,11.7-2.7
										c0.6-0.1,1.1-0.3,1.7-0.4c-0.3-0.1-0.5-0.3-0.8-0.4c0.3,1.4,0.6,2.8,0.9,4.2c0.2,0.7,0.3,1.4,0.5,2.1
										c0.1,0.8-0.2,1.3-0.8,1.9c-2.1,2.1-5.9,3-8.8,2.5c-1-0.2-2.2-0.5-2.5-1.5c-0.1-0.5-0.2-1-0.3-1.5c-0.4-1.6-0.8-3.3-1.1-4.9
										C390.5,403.2,389.3,403.5,389.5,404.3z"/>
								</g>
							</g>
							<g>
								
									<rect x="390" y="401" transform="matrix(0.9747 -0.2234 0.2234 0.9747 -80.0322 98.8307)" class="st4" width="13.7" height="4.3"/>
							</g>
						</g>
						<g>
							<g>
								<path class="st18" d="M409.8,403L409.8,403c-3.7-0.7-6.4-2.5-6.2-3.9l7.6-37.8c0.3-1.4,3.5-2,7.2-1.3l0,0
									c3.7,0.7,7,2.7,6.7,4.1l-8.1,37.7C416.7,403.2,413.5,403.8,409.8,403z"/>
								<g>
									<path d="M409.9,402.4c-1.7-0.4-3.5-0.9-4.9-2c-0.4-0.4-0.8-0.7-0.8-1.3c0-0.7,0.3-1.4,0.4-2c0.6-3.2,1.3-6.4,1.9-9.6
										c1.5-7.7,3.1-15.3,4.6-23c0.2-0.9,0.3-1.8,0.5-2.7c0.3-1.5,2.1-1.6,3.4-1.6c2,0,4,0.4,5.8,1.1c1,0.4,3.4,1.3,3.5,2.5
										c0,0.4-0.2,1-0.3,1.4c-1.5,7.1-3.1,14.2-4.6,21.3c-0.8,3.6-1.6,7.2-2.4,10.9c-0.2,1.1-0.5,2.1-0.7,3.2
										c-0.2,0.9-0.2,1.3-1.2,1.7C413.7,403,411.7,402.8,409.9,402.4c-0.8-0.1-1.1,1.1-0.3,1.2c2,0.4,6.8,1.1,7.9-1.5
										c0.2-0.5,0.3-1.1,0.4-1.7c0.7-3.3,1.4-6.6,2.1-9.9c1.7-8.1,3.5-16.2,5.2-24.2c0.1-0.7,0.3-1.3,0.4-2
										c0.3-2.2-2.6-3.4-4.2-4.1c-1.8-0.7-3.8-1.1-5.7-1.2c-1.4,0-3.1,0-4.2,0.8c-0.8,0.5-0.9,1.2-1.1,2c-1.5,7.5-3,15.1-4.5,22.6
										c-0.8,3.8-1.5,7.6-2.3,11.4c-0.2,0.9-0.4,1.8-0.6,2.8c-0.3,1.4,0.5,2.4,1.7,3.1c1.4,1,3.2,1.5,4.9,1.9
										C410.4,403.8,410.7,402.6,409.9,402.4z"/>
								</g>
							</g>
							<g>
								
									<rect x="409.9" y="384.7" transform="matrix(0.1969 -0.9804 0.9804 0.1969 -52.9416 718.5292)" class="st4" width="4.4" height="13.7"/>
							</g>
							<g>
								<g>
									<path class="st0" d="M411.8,360.7l9-11.9l4,14.6c0.1,0.4-0.7,0.6-1.6,0.4l-10.2-2.2C412.1,361.5,411.6,361,411.8,360.7z"/>
									<g>
										<path d="M412.3,361c2.6-3.5,5.3-7,7.9-10.4c0.4-0.5,0.7-1,1.1-1.5c-0.4,0-0.8-0.1-1.1-0.1c1,3.7,2,7.4,3,11.1
											c0.2,0.9,0.5,1.8,0.7,2.6c0.1,0.2,0.1,0.5,0.2,0.7c0,0,0,0.1,0,0.2c0,0,0,0,0,0c0-0.1,0-0.1,0-0.2c0.1-0.2,0-0.2-0.1-0.2
											c-0.1,0-0.4,0-0.5,0c-1.7-0.2-3.4-0.7-5.1-1.1c-1.3-0.3-2.5-0.5-3.8-0.8c-0.4-0.1-0.8-0.2-1.2-0.2c-0.1,0-0.2,0-0.2-0.1
											c-0.1,0-0.2,0-0.3-0.1c-0.1,0-0.2-0.1-0.4-0.1c-0.1,0-0.1-0.1-0.2-0.1C412.2,360.6,412.2,360.7,412.3,361
											c0.3-0.7-0.7-1.4-1.1-0.6c-0.9,1.9,3.9,2.3,5,2.6c2.2,0.5,4.4,1,6.7,1.4c0.9,0.2,2.7,0.3,2.5-1.1
											c-0.1-0.5-0.3-1.1-0.4-1.6c-0.7-2.5-1.4-5-2-7.5c-0.5-1.9-1-3.7-1.5-5.6c-0.2-0.6-0.8-0.6-1.1-0.1
											c-2.6,3.5-5.3,7-7.9,10.4c-0.4,0.5-0.7,1-1.1,1.5C410.8,361,411.8,361.7,412.3,361z"/>
									</g>
								</g>
								<polygon points="416.6,355.2 422.9,356.5 420.8,348.8 								"/>
							</g>
							<g>
								<path class="st10" d="M404.7,394l-1.3,6.5c-0.4,1.8,2.3,3.9,6,4.6h0c3.7,0.7,7-0.1,7.3-2l1.4-6.5L404.7,394z"/>
								<g>
									<path d="M404.1,393.8c-0.3,1.6-0.7,3.3-1,4.9c-0.1,0.6-0.3,1.1-0.3,1.7c-0.2,1.2,0.5,2.2,1.4,3c2.5,2.1,6.4,3,9.5,2.5
										c1.2-0.2,2.5-0.6,3.3-1.7c0.4-0.5,0.5-1.2,0.6-1.8c0.4-1.9,0.8-3.7,1.2-5.6c0.1-0.3-0.1-0.7-0.4-0.8
										c-3.9-0.8-7.8-1.6-11.7-2.4c-0.6-0.1-1.1-0.2-1.7-0.3c-0.8-0.2-1.1,1-0.3,1.2c3.9,0.8,7.8,1.6,11.7,2.4
										c0.6,0.1,1.1,0.2,1.7,0.3c-0.1-0.3-0.3-0.5-0.4-0.8c-0.3,1.4-0.6,2.8-0.9,4.2c-0.1,0.7-0.3,1.4-0.4,2.1
										c-0.2,0.8-0.8,1.2-1.6,1.5c-2.8,1-6.6,0.2-9-1.4c-0.7-0.5-1.7-1.3-1.6-2.3c0.1-0.5,0.2-1,0.3-1.5c0.3-1.7,0.7-3.3,1-5
										C405.4,393.3,404.2,393,404.1,393.8z"/>
								</g>
							</g>
							<g>
								
									<rect x="409.1" y="389" transform="matrix(0.1969 -0.9804 0.9804 0.1969 -57.8231 721.1254)" class="st4" width="4.3" height="13.7"/>
							</g>
						</g>
						<g>
							<path class="st19" d="M400.9,408.6L400.9,408.6c-2.4,0-4.4-2-4.4-4.4v-65.3c0-2.4,2-4.4,4.4-4.4l0,0c2.4,0,4.4,2,4.4,4.4
								v65.3C405.3,406.6,403.3,408.6,400.9,408.6z"/>
							<line class="st20" x1="396.5" y1="352.6" x2="405.3" y2="352.6"/>
							<path class="st19" d="M405.9,367.4L405.9,367.4c-1.3,0-2.3-1-2.3-2.3v-19.6c0-1.3,1-2.3,2.3-2.3l0,0c1.3,0,2.3,1,2.3,2.3V365
								C408.2,366.3,407.2,367.4,405.9,367.4z"/>
						</g>
					</g>
					<g>
						<rect x="380.3" y="388.4" class="st5" width="47.8" height="38.9"/>
						<g>
							<path class="st0" d="M428.1,408.6v-1.4c-4.5-3.2-10.9-9.4-11.4-18.8h-1C416.2,398.8,423.3,405.3,428.1,408.6z"/>
							<path class="st0" d="M422.9,427.3c0.5-8-1.3-14.7-4.7-17.8c-2-1.8-5.5-3.2-10.7,0.2c-4.4,2.9-7.8,8.8-9.6,17.1
								c0,0.2-0.1,0.3-0.1,0.5h1c1.4-6.2,4-13.2,9.2-16.5c3.8-2.5,7.2-2.6,9.7-0.3c3.2,2.9,4.8,9.2,4.3,16.8H422.9z"/>
							<path class="st0" d="M384.8,427.3c0.5-5.8,4.4-11.2,11.4-19c6.1-6.8,10.1-13.4,12-19.9h-1c-1.9,6.1-5.7,12.5-11.6,19
								c-7.1,8-11.2,13.7-11.7,19.9H384.8z"/>
							<path class="st0" d="M380.3,402.7c3.2-0.1,7.6-1,10.5-4.7c1.9-2.4,2.8-5.6,2.9-9.7h-1c-0.1,3.7-1,6.7-2.7,8.8
								c-2.7,3.4-6.8,4.2-9.8,4.3V402.7z"/>
						</g>
						<rect x="380.3" y="388.4" class="st20" width="47.8" height="38.9"/>
					</g>
				</g>
			</g>
		</g>
		<g>
			<g>
				<path class="st1" d="M53.9,200.2h40c5.1,0,9.3,4.1,9.3,9.3v16.3v5.7v17.9l-9.4-8.6H53.9c-5.1,0-9.3-4.1-9.3-9.3v-22
					C44.6,204.3,48.8,200.2,53.9,200.2z"/>
				<text transform="matrix(1 0 0 1 63.5107 231.262)" class="st21 st22 st23">?</text>
			</g>
			<g>
				<path class="st1" d="M269.2,264.9h-44.4c-5.7,0-10.3,4.6-10.3,10.3v18.1v6.3v19.8l10.4-9.6h44.2c5.7,0,10.3-4.6,10.3-10.3v-24.4
					C279.5,269.5,274.9,264.9,269.2,264.9z"/>
				<g>
					<path class="st1" d="M236.9,288.2c0,2.5-2,4.5-4.5,4.5c-2.5,0-4.5-2-4.5-4.5c0-2.5,2-4.5,4.5-4.5
						C234.9,283.8,236.9,285.8,236.9,288.2z"/>
					<path class="st1" d="M252.4,288.2c0,2.5-2,4.5-4.5,4.5c-2.5,0-4.5-2-4.5-4.5c0-2.5,2-4.5,4.5-4.5
						C250.4,283.8,252.4,285.8,252.4,288.2z"/>
					<path class="st1" d="M268,288.2c0,2.5-2,4.5-4.5,4.5c-2.5,0-4.5-2-4.5-4.5c0-2.5,2-4.5,4.5-4.5C266,283.8,268,285.8,268,288.2z
						"/>
				</g>
			</g>
			<g>
				<path class="st1" d="M125.3,120h49.9c6.4,0,11.5,5.2,11.5,11.5v20.4v7.1v22.3L175,170.6h-49.7c-6.4,0-11.5-5.2-11.5-11.5v-27.5
					C113.8,125.2,118.9,120,125.3,120z"/>
				<g>
					<path class="st1" d="M161.6,146.2c0,2.8,2.2,5,5,5c2.8,0,5-2.2,5-5c0-2.8-2.2-5-5-5C163.9,141.2,161.6,143.5,161.6,146.2z"/>
					<path class="st1" d="M144.2,146.2c0,2.8,2.2,5,5,5s5-2.2,5-5c0-2.8-2.2-5-5-5S144.2,143.5,144.2,146.2z"/>
					<path class="st1" d="M126.7,146.2c0,2.8,2.2,5,5,5c2.8,0,5-2.2,5-5c0-2.8-2.2-5-5-5C129,141.2,126.7,143.5,126.7,146.2z"/>
				</g>
			</g>
			<g>
				<g>
					<path class="st3" d="M445.5,115.7c-0.9-5-3.7-8.2-6.8-10.2c-5.3-3.5-12.3-3.5-17.6,0c-3.1,2-5.9,5.3-6.8,10.2
						c-1.6,9.1,6.4,14.1,7.9,15.9c0,0,1,0.8,1.5,1.8c0.1,0.2,0.3,1,0.4,2.1h5.8h5.8c0.2-1.1,0.3-1.8,0.4-2.1c0.5-1,1.5-1.8,1.5-1.8
						C439.1,129.7,447.2,124.8,445.5,115.7z"/>
					<g>
						<path class="st0" d="M427.5,136.5c0,0,0-8.7-0.6-9.9c-0.6-1.2-3.6-5.6-4.1-6.5c-0.5-0.9,0.5-2,1.3-0.6
							c0.7,1.2,3.5,5.1,4.1,6.7c0.6,1.6,1.2,10.7,1.2,10.7L427.5,136.5z"/>
						<path class="st0" d="M432.3,136.5c0,0,0-8.7,0.6-9.9c0.6-1.2,3.6-5.6,4.1-6.5c0.5-0.9-0.5-2-1.3-0.6c-0.7,1.2-3.5,5.1-4.1,6.7
							c-0.6,1.6-1.2,10.7-1.2,10.7L432.3,136.5z"/>
						<g>
							<path class="st0" d="M436.5,119.8c-1.2,0.5-3.2,0.6-4.7,0.2c0,0,0,0,0,0c-1.2,0.9-2.9,0.6-4.2-0.4c-1.6,0.6-3.7,0.7-4,0.7
								l0-0.8c0.9,0,2.3-0.2,3.3-0.5c-0.9-0.9-1-1.9-0.5-2.6c0.7-0.9,1.6-0.8,2.2-0.4c0.7,0.5,1,1.7,0.4,2.6
								c-0.1,0.2-0.3,0.4-0.6,0.6c0.8,0.5,1.7,0.7,2.4,0.4c-0.3-0.2-0.5-0.3-0.6-0.5c-0.3-0.3-0.6-1,0.1-1.9c0.4-0.6,1-0.9,1.5-0.8
								c0.5,0.1,0.9,0.6,1.1,1.2c0.1,0.6-0.1,1.2-0.4,1.7c1.2,0.3,2.7,0.2,3.7-0.2L436.5,119.8z M431.3,117.4
								c-0.1,0.1-0.2,0.2-0.3,0.3c-0.3,0.4-0.2,0.7-0.1,0.9c0.2,0.2,0.4,0.4,0.8,0.5c0.4-0.4,0.6-0.8,0.5-1.3
								c-0.1-0.3-0.2-0.5-0.5-0.6C431.6,117.2,431.4,117.2,431.3,117.4z M427.8,118.7c0.3-0.1,0.5-0.3,0.6-0.5
								c0.4-0.6,0.2-1.2-0.2-1.5c-0.3-0.3-0.7-0.2-1.1,0.2c-0.3,0.4,0,1.1,0.5,1.6C427.6,118.5,427.7,118.6,427.8,118.7z"/>
						</g>
					</g>
					<g>
						<path class="st1" d="M429.9,134.6c-3.1,0-5.8-0.8-6.3-1.1c0,0.1,0.1,0.1,0.1,0.2c0.4,0.9,0.9,8.1,2.1,10.8
							c0.2,0.5,0.4,0.8,0.7,1c0.6,0.4,2,0.9,3.4,0.8c1.4,0.1,2.8-0.4,3.4-0.8c0.2-0.2,0.5-0.5,0.7-1c1.1-2.8,1.7-10,2.1-10.8
							c0-0.1,0.1-0.1,0.1-0.2C435.7,133.8,433,134.6,429.9,134.6z"/>
						<path d="M429.9,137.8c1.8,0,3.8-0.2,5.6-0.8c0.1-0.9,0.2-1.6,0.3-2.2c-3.8,1.4-8,1.4-11.8,0c0.1,0.6,0.2,1.4,0.3,2.2
							C426.1,137.6,428.1,137.8,429.9,137.8z"/>
						<path d="M429.9,141.5c1.6,0,3.4-0.2,5-0.6c0.1-0.7,0.2-1.5,0.3-2.2c-3.5,1.2-7.3,1.2-10.7,0c0.1,0.7,0.2,1.5,0.3,2.2
							C426.5,141.3,428.3,141.5,429.9,141.5z"/>
						<path d="M425.2,142.6c0.2,0.8,0.4,1.4,0.6,2c0,0.1,0.1,0.2,0.1,0.2c1.3,0.3,2.7,0.4,4,0.4c1.3,0,2.7-0.1,4-0.4
							c0-0.1,0.1-0.1,0.1-0.2c0.2-0.5,0.4-1.2,0.6-2C431.5,143.5,428.3,143.5,425.2,142.6z"/>
					</g>
				</g>
				<g>
					<path class="st1" d="M430.2,98.2L430.2,98.2c-1,0-1.7-0.7-1.7-1.7v-7.8c0-0.9,0.7-1.7,1.7-1.7h0c0.9,0,1.7,0.7,1.7,1.7v7.8
						C431.9,97.5,431.1,98.2,430.2,98.2z"/>
					<path class="st1" d="M442.2,100.4L442.2,100.4c-0.8-0.5-1.1-1.5-0.7-2.3l3.7-6.9c0.4-0.8,1.4-1.1,2.3-0.7l0,0
						c0.8,0.4,1.1,1.4,0.7,2.3l-3.7,6.9C444,100.5,443,100.8,442.2,100.4z"/>
					<path class="st1" d="M418.2,100.4L418.2,100.4c0.8-0.5,1.1-1.5,0.7-2.3l-3.7-6.9c-0.4-0.8-1.4-1.1-2.3-0.7l0,0
						c-0.8,0.4-1.1,1.4-0.7,2.3l3.7,6.9C416.3,100.5,417.4,100.8,418.2,100.4z"/>
					<path class="st1" d="M409.3,109.5L409.3,109.5c-0.2,0.9-1.1,1.5-2,1.3l-7.7-1.6c-0.9-0.2-1.5-1.1-1.3-2l0,0
						c0.2-0.9,1.1-1.5,2-1.3l7.7,1.6C408.9,107.8,409.5,108.6,409.3,109.5z"/>
					<path class="st1" d="M408.9,122L408.9,122c-0.3-0.9-1.2-1.4-2.1-1.2l-7.5,2.2c-0.9,0.3-1.4,1.2-1.1,2.1l0,0
						c0.3,0.9,1.2,1.4,2.1,1.1l7.5-2.2C408.6,123.9,409.1,122.9,408.9,122z"/>
					<path class="st1" d="M451.1,109.5L451.1,109.5c0.2,0.9,1.1,1.5,2,1.3l7.7-1.6c0.9-0.2,1.5-1.1,1.3-2l0,0
						c-0.2-0.9-1.1-1.5-2-1.3l-7.7,1.6C451.5,107.8,450.9,108.6,451.1,109.5z"/>
					<path class="st1" d="M451.5,122L451.5,122c0.3-0.9,1.2-1.4,2.1-1.2l7.5,2.2c0.9,0.3,1.4,1.2,1.1,2.1l0,0
						c-0.3,0.9-1.2,1.4-2.1,1.1l-7.5-2.2C451.8,123.9,451.2,122.9,451.5,122z"/>
				</g>
			</g>
		</g>
	</g>
</g>
</svg>
