<?xml version="1.0" encoding="utf-8"?>
<!-- Generator: Adobe Illustrator 26.0.1, SVG Export Plug-In . SVG Version: 6.00 Build 0)  -->
<svg version="1.1" id="Layer_1" xmlns="http://www.w3.org/2000/svg" xmlns:xlink="http://www.w3.org/1999/xlink" x="0px" y="0px"
	 viewBox="0 0 300 177.7" style="enable-background:new 0 0 300 177.7;" xml:space="preserve">
<style type="text/css">
	.st0{fill:#846BFA;}
	.st1{fill:none;stroke:#000000;stroke-width:2;stroke-linecap:round;stroke-linejoin:round;stroke-miterlimit:10;}
</style>
<g>
	<path class="st0" d="M288.9,171.8H24c-6.2,0-11.1-4.9-11.1-11.1V24.1c0-6.2,4.9-11.1,11.1-11.1h264.8c6.2,0,11.1,4.9,11.1,11.1
		v136.6C300.2,166.7,295.1,171.8,288.9,171.8z"/>
	<path class="st1" d="M276,164.8H11.1c-6.2,0-11.1-4.9-11.1-11.1V17.1C0,10.9,4.9,5.9,11.1,5.9h245.2H276c6.2,0,11.1,4.9,11.1,11.1
		v136.6C287.1,159.7,282.2,164.8,276,164.8z"/>
</g>
</svg>
