<?xml version="1.0" encoding="utf-8"?>
<!-- Generator: Adobe Illustrator 26.0.1, SVG Export Plug-In . SVG Version: 6.00 Build 0)  -->
<svg version="1.1" xmlns="http://www.w3.org/2000/svg" xmlns:xlink="http://www.w3.org/1999/xlink" x="0px" y="0px"
	 viewBox="0 0 1280 720" style="enable-background:new 0 0 1280 720;" xml:space="preserve">
<style type="text/css">
	.st0{fill:none;stroke:#000000;stroke-width:1.3547;stroke-linecap:round;stroke-linejoin:round;stroke-miterlimit:10;}
	.st1{fill:#1F1F1F;}
	.st2{fill:#FFFFFF;}
	.st3{fill:#846BFA;}
	
		.st4{fill:none;stroke:#000000;stroke-width:1.6934;stroke-linecap:round;stroke-linejoin:round;stroke-miterlimit:10;stroke-dasharray:13.5474;}
	.st5{fill:none;stroke:#000000;stroke-width:1.0161;stroke-linecap:round;stroke-linejoin:round;stroke-miterlimit:10;}
	.st6{fill:none;stroke:#000000;stroke-width:0.4255;stroke-miterlimit:10;}
	.st7{fill:none;stroke:#FFFFFF;stroke-width:1.3547;stroke-linecap:round;stroke-linejoin:round;stroke-miterlimit:10;}
</style>
<g id="BACKGROUND">
</g>
<g id="OBJECTS">
	<g>
		<g>
			<rect x="640.2" y="550.9" class="st0" width="47.8" height="18.4"/>
			<g>
				<g>
					<path class="st1" d="M686,571.9h-47.3c-1.2,0-2.2-1-2.2-2.2c0-1.2,1-2.2,2.2-2.2H686c0.7,0,1.3-0.6,1.3-1.3v-12.3
						c0-0.7-0.6-1.3-1.3-1.3h-47.3c-1.2,0-2.2-1-2.2-2.2c0-1.2,1-2.2,2.2-2.2H686c3.2,0,5.7,2.6,5.7,5.7v12.3
						C691.7,569.3,689.1,571.9,686,571.9z"/>
				</g>
			</g>
			<g>
				<path class="st0" d="M686,571.9h-47.3c-1.2,0-2.2-1-2.2-2.2c0-1.2,1-2.2,2.2-2.2H686c0.7,0,1.3-0.6,1.3-1.3v-12.3
					c0-0.7-0.6-1.3-1.3-1.3h-47.3c-1.2,0-2.2-1-2.2-2.2c0-1.2,1-2.2,2.2-2.2H686c3.2,0,5.7,2.6,5.7,5.7v12.3
					C691.7,569.3,689.1,571.9,686,571.9z"/>
			</g>
			<line class="st0" x1="689" y1="556.5" x2="662.2" y2="556.5"/>
			<line class="st0" x1="689" y1="562.1" x2="658.8" y2="562.1"/>
		</g>
		<g>
			<rect x="588.2" y="576.6" class="st2" width="100.8" height="33.2"/>
			<rect x="588.2" y="576.6" class="st0" width="100.8" height="33.2"/>
			<line class="st0" x1="588.2" y1="587.9" x2="631.9" y2="587.9"/>
			<line class="st0" x1="588.2" y1="598.4" x2="644.1" y2="598.4"/>
			<g>
				<g>
					<path class="st3" d="M692.2,613h-99.8c-4.1,0-7.5-3.4-7.5-7.5V580c0-4.1,3.4-7.5,7.5-7.5h99.8c1.8,0,3.3,1.5,3.3,3.3
						c0,1.8-1.5,3.3-3.3,3.3h-99.8c-0.5,0-0.9,0.4-0.9,0.9v25.5c0,0.5,0.4,0.9,0.9,0.9h99.8c1.8,0,3.3,1.5,3.3,3.3
						C695.5,611.5,694,613,692.2,613z"/>
				</g>
			</g>
			<g>
				<path class="st0" d="M692.2,613h-99.8c-4.1,0-7.5-3.4-7.5-7.5V580c0-4.1,3.4-7.5,7.5-7.5h99.8c1.8,0,3.3,1.5,3.3,3.3
					c0,1.8-1.5,3.3-3.3,3.3h-99.8c-0.5,0-0.9,0.4-0.9,0.9v25.5c0,0.5,0.4,0.9,0.9,0.9h99.8c1.8,0,3.3,1.5,3.3,3.3
					C695.5,611.5,694,613,692.2,613z"/>
			</g>
		</g>
		<polyline class="st0" points="1099.4,613.7 946.1,613.7 922.6,613.7 903.1,613.7 899.2,613.7 567.6,613.7 		"/>
		<path class="st2" d="M727.9,500.9v3.7c0,1.9-0.7,3.6-1.8,4.9h-39.9v-8.6H727.9z"/>
		<path class="st0" d="M727.9,500.9v3.7c0,1.9-0.7,3.6-1.8,4.9h-39.9v-8.6H727.9z"/>
		<g>
			<path class="st3" d="M942.1,613.7l-105.8-2.8l-105.8,2.8c-16.8-28.6-2.6-68.7,29.3-101.3c16.1-16.5,36.3-23.4,52.3-26.2
				c10.9-1.9,19.8-1.9,24.2-1.7c4-0.2,11.9-0.2,21.7,1.3c16.3,2.5,37.8,9.3,54.8,26.6C944.7,545,958.9,585.1,942.1,613.7z"/>
			<path class="st0" d="M942.1,613.7l-105.8-2.8l-105.8,2.8c-16.8-28.6-2.6-68.7,29.3-101.3c16.1-16.5,36.3-23.4,52.3-26.2
				c10.9-1.9,19.8-1.9,24.2-1.7c4-0.2,11.9-0.2,21.7,1.3c16.3,2.5,37.8,9.3,54.8,26.6C944.7,545,958.9,585.1,942.1,613.7z"/>
			<path class="st1" d="M727.5,562.9c0,0,10.5-10.8,23.8-6.8c12.9,3.9,21.4,20.2,20.1,29.2c-0.7,4.7-7.6,7.3-14.9,1.7
				C749.1,581.3,727.5,562.9,727.5,562.9z"/>
			<path class="st0" d="M727.5,562.9c0,0,10.5-10.8,23.8-6.8c12.9,3.9,21.4,20.2,20.1,29.2c-0.7,4.7-7.6,7.3-14.9,1.7
				C749.1,581.3,727.5,562.9,727.5,562.9z"/>
			<path class="st1" d="M945.2,562.9c0,0-10.5-10.8-23.8-6.8c-12.9,3.9-21.4,20.2-20.1,29.2c0.7,4.7,7.6,7.3,14.9,1.7
				C923.6,581.3,945.2,562.9,945.2,562.9z"/>
			<path class="st0" d="M945.2,562.9c0,0-10.5-10.8-23.8-6.8c-12.9,3.9-21.4,20.2-20.1,29.2c0.7,4.7,7.6,7.3,14.9,1.7
				C923.6,581.3,945.2,562.9,945.2,562.9z"/>
			<path class="st1" d="M839.2,503c-1,0.1-2.1,0.1-3.2,0.1c-0.9,0-1.7,0-2.6-0.1c-22.3-1.1-21.3-16.9-21.3-16.9v0
				c10.9-1.9,19.8-1.9,24.2-1.7c4-0.2,11.9-0.2,21.7,1.3C858,485.8,860.7,501.6,839.2,503z"/>
			<path class="st2" d="M849,474.7v16.6c0,0-3.9,5.4-13.8,5.4c-9.9,0-13.8-5.4-13.8-5.4v-16.6H849z"/>
			<path class="st0" d="M849,474.7v16.6c0,0-3.9,5.4-13.8,5.4c-9.9,0-13.8-5.4-13.8-5.4v-16.6H849z"/>
			<path class="st2" d="M862.3,448.8c0,19.7-12.4,34.6-27.8,34.6c-15.4,0-27.8-14.9-27.8-34.6s12.4-38.7,27.8-38.7
				C849.8,410.1,862.3,429.1,862.3,448.8z"/>
			<path class="st0" d="M862.3,448.8c0,19.7-12.4,34.6-27.8,34.6c-15.4,0-27.8-14.9-27.8-34.6s12.4-38.7,27.8-38.7
				C849.8,410.1,862.3,429.1,862.3,448.8z"/>
			<path class="st3" d="M867.8,441.2c-0.2,0.5-0.4,1-0.5,1.4c-0.6,1.3-1.1,2.3-1.6,3c-0.5,0.8-0.9,1.2-0.9,1.2
				c-0.2,0.1-0.4,0.2-0.7,0.3c-0.3,0.2-0.7,0.3-1,0.5c-0.3,0.1-0.5,0.2-0.7,0.3c-0.2,0.1-0.4,0.2-0.7,0.3
				c-26,9.7-44.5-21.5-44.5-21.5c-0.1,14.1-6.9,22.3-9.4,24.9c-0.4,0.4-0.7,0.7-0.8,0.8c-0.1,0.1-0.1,0.1-0.1,0.1
				c-0.5-0.6-1-1.2-1.4-1.8c-0.1-0.1-0.2-0.3-0.3-0.4c-0.5-0.7-1.1-1.5-1.5-2.2c-0.8-1.2-1.5-2.4-2.1-3.6c-0.6-1.1-1-2.1-1.5-3.2
				c-1.4-3.4-2.1-6.7-2.3-9.9c-1.3-19.2,15.8-35.3,31.8-36.8c21.6-2.1,25.8,8.8,25.8,8.8s0,0,0,0c2.8-0.8,14.6,2.2,14.9,20
				C870.3,431.8,869.1,437.5,867.8,441.2z"/>
			<g>
				<g>
					<path class="st2" d="M804.2,454.8l-3.6-0.9l1.1-4.5c-0.4-3.2-2.7-24,8.3-36.9c5.6-6.5,13.6-9.8,23.8-9.8
						c11.5,0,20.2,3.6,26,10.8c11.3,14.1,6.7,36.7,6.1,39.3l-3.6-0.8c0.5-2.4,4.8-23.4-5.4-36.1c-5-6.2-12.8-9.4-23.1-9.4
						c-9.1,0-16.1,2.8-20.9,8.4c-10.6,12.3-7.4,34-7.4,34.3l0.1,0.4L804.2,454.8z"/>
				</g>
			</g>
			<g>
				<path class="st0" d="M804.2,454.8l-3.6-0.9l1.1-4.5c-0.4-3.2-2.7-24,8.3-36.9c5.6-6.5,13.6-9.8,23.8-9.8
					c11.5,0,20.2,3.6,26,10.8c11.3,14.1,6.7,36.7,6.1,39.3l-3.6-0.8c0.5-2.4,4.8-23.4-5.4-36.1c-5-6.2-12.8-9.4-23.1-9.4
					c-9.1,0-16.1,2.8-20.9,8.4c-10.6,12.3-7.4,34-7.4,34.3l0.1,0.4L804.2,454.8z"/>
			</g>
			<path d="M841.9,443.8c-0.5,0.8,5.5,3.3,6.3,2.4C849.1,445.4,842.6,442.6,841.9,443.8z"/>
			<path d="M843.6,455.4L843.6,455.4c-0.6,0-1.1-0.5-1.1-1.1v-2.7c0-0.6,0.5-1.1,1.1-1.1l0,0c0.6,0,1.1,0.5,1.1,1.1v2.7
				C844.7,454.9,844.2,455.4,843.6,455.4z"/>
			<path d="M826.8,455.4L826.8,455.4c-0.6,0-1.1-0.5-1.1-1.1v-2.7c0-0.6,0.5-1.1,1.1-1.1l0,0c0.6,0,1.1,0.5,1.1,1.1v2.7
				C827.9,454.9,827.4,455.4,826.8,455.4z"/>
			<path class="st0" d="M842.1,455.4c0,0,1.3-1,3,0"/>
			<path class="st0" d="M832.3,470.6c0,0,8.2-0.7,12.4-6.8"/>
			<path d="M828.5,443.8c0.5,0.8-5.5,3.3-6.3,2.4C821.3,445.4,827.8,442.6,828.5,443.8z"/>
			<path class="st0" d="M828.3,455.4c0,0-1.3-1-3,0"/>
			<path class="st0" d="M832.6,456.6c0,0-0.6,3.3,2.5,2.9c3.2-0.3,3.2-3.7,1-3.8"/>
			<path class="st2" d="M749,556.1c19.5,6.3,17.4,48.7,6,57.6H713c0,0-1.8-24.9,5.7-39.2C726.2,560.2,739.4,553,749,556.1z"/>
			<path class="st0" d="M749,556.1c19.5,6.3,17.4,48.7,6,57.6H713c0,0-1.8-24.9,5.7-39.2C726.2,560.2,739.4,553,749,556.1z"/>
			<path class="st2" d="M726.6,613.7h23.5c1.8,4.7,10.7,4.9,19.5,0c0,0,0.1-0.1,0.1-0.1c2.7-1.5,4.3-4.4,4.3-7.5v-1
				c0-3.1-1.6-6-4.3-7.5c0,0,0,0-0.1,0c-2-1.1-8,0.4-11.3-0.5c-3.2-0.8-8.7-4.7-10.3-6.4c0,0,0,0-0.1-0.1c-1.5-1.6-6.7-6.2-14-2.2
				C729.2,591.2,727.3,604.8,726.6,613.7z"/>
			<path class="st0" d="M726.6,613.7h23.5c1.8,4.7,10.7,4.9,19.5,0c0,0,0.1-0.1,0.1-0.1c2.7-1.5,4.3-4.4,4.3-7.5v-1
				c0-3.1-1.6-6-4.3-7.5c0,0,0,0-0.1,0c-2-1.1-8,0.4-11.3-0.5c-3.2-0.8-8.7-4.7-10.3-6.4c0,0,0,0-0.1-0.1c-1.5-1.6-6.7-6.2-14-2.2
				C729.2,591.2,727.3,604.8,726.6,613.7z"/>
			<path class="st0" d="M770.1,613.5c-0.1,0.1-0.3,0.2-0.4,0.2c-8.8,4.9-17.7,4.7-19.5,0c-0.4-1.1-0.5-2.5,0-4.1
				c2.9-9.6,12.8-9.1,12.8-9.1"/>
			<path class="st2" d="M923.7,556.1c-19.5,6.3-17.4,48.7-6,57.6h41.9c0,0,1.8-24.9-5.7-39.2C946.5,560.2,933.3,553,923.7,556.1z"/>
			<path class="st0" d="M923.7,556.1c-19.5,6.3-17.4,48.7-6,57.6h41.9c0,0,1.8-24.9-5.7-39.2C946.5,560.2,933.3,553,923.7,556.1z"/>
			<path class="st2" d="M946.1,613.7h-23.5c-1.8,4.7-10.7,4.9-19.5,0c0,0-0.1-0.1-0.1-0.1c-2.7-1.5-4.3-4.4-4.3-7.5v-1
				c0-3.1,1.6-6,4.3-7.5c0,0,0,0,0.1,0c2-1.1,8,0.4,11.3-0.5c3.2-0.8,8.7-4.7,10.3-6.4c0,0,0,0,0.1-0.1c1.5-1.6,6.7-6.2,14-2.2
				C943.5,591.2,945.4,604.8,946.1,613.7z"/>
			<path class="st0" d="M946.1,613.7h-23.5c-1.8,4.7-10.7,4.9-19.5,0c0,0-0.1-0.1-0.1-0.1c-2.7-1.5-4.3-4.4-4.3-7.5v-1
				c0-3.1,1.6-6,4.3-7.5c0,0,0,0,0.1,0c2-1.1,8,0.4,11.3-0.5c3.2-0.8,8.7-4.7,10.3-6.4c0,0,0,0,0.1-0.1c1.5-1.6,6.7-6.2,14-2.2
				C943.5,591.2,945.4,604.8,946.1,613.7z"/>
			<path class="st0" d="M909.8,600.5c0,0,9.9-0.5,12.8,9.1c0.5,1.6,0.4,3,0,4.1c-1.8,4.7-10.7,4.9-19.5,0c-0.1-0.1-0.3-0.2-0.4-0.2"
				/>
			<path class="st2" d="M954.9,614.6c0,0,5,2.8,6.9-3.8c2.3-7.6-1.5-22.5-5.6-23.3c-4.1-0.8-6.3,5-6.3,5L954.9,614.6z"/>
			<path class="st0" d="M954.9,614.6c0,0,5,2.8,6.9-3.8c2.3-7.6-1.5-22.5-5.6-23.3c-4.1-0.8-6.3,5-6.3,5L954.9,614.6z"/>
			<path class="st2" d="M937,591.3c0,0,2.7-5.5,9.9-5c7.2,0.5,10,26,9,29.2c-0.9,3.2-11,5.2-12.3-0.8
				C942.2,608.7,937,591.3,937,591.3z"/>
			<path class="st0" d="M937,591.3c0,0,2.7-5.5,9.9-5c7.2,0.5,10,26,9,29.2c-0.9,3.2-11,5.2-12.3-0.8
				C942.2,608.7,937,591.3,937,591.3z"/>
			<path class="st2" d="M944.7,613.7c-0.1,1-0.3,1.8-0.6,2.4c-2.6,4.9-13.1,4.7-15.6-2.4c0-0.1-0.1-0.2-0.1-0.4
				c-1.5-5.2-3.1-16.3-3.8-22.6c0,0,0,0,0.1-0.1c1.5-1.6,6.7-6.2,14-2.2C941.1,591.4,945.5,606.6,944.7,613.7z"/>
			<path class="st0" d="M924.6,590.8C924.6,590.7,924.7,590.7,924.6,590.8c1.6-1.7,6.7-6.2,14.1-2.2c2.4,2.9,6.8,18.1,6.1,25.2
				c-0.1,1-0.3,1.8-0.6,2.4c-2.6,4.9-13.1,4.7-15.6-2.4c0-0.1-0.1-0.2-0.1-0.4c-1-3.5-2-9.5-2.8-15"/>
			<path class="st2" d="M717.8,614.6c0,0-5,2.8-6.9-3.8c-2.3-7.6,1.5-22.5,5.6-23.3c4.1-0.8,6.3,5,6.3,5L717.8,614.6z"/>
			<path class="st0" d="M717.8,614.6c0,0-5,2.8-6.9-3.8c-2.3-7.6,1.5-22.5,5.6-23.3c4.1-0.8,6.3,5,6.3,5L717.8,614.6z"/>
			<path class="st2" d="M735.7,591.3c0,0-2.7-5.5-9.9-5c-7.2,0.5-10,26-9,29.2c0.9,3.2,11,5.2,12.3-0.8
				C730.5,608.7,735.7,591.3,735.7,591.3z"/>
			<path class="st0" d="M735.7,591.3c0,0-2.7-5.5-9.9-5c-7.2,0.5-10,26-9,29.2c0.9,3.2,11,5.2,12.3-0.8
				C730.5,608.7,735.7,591.3,735.7,591.3z"/>
			<path class="st2" d="M728,613.7c0.1,1,0.3,1.8,0.6,2.4c2.6,4.9,13.1,4.7,15.6-2.4c0-0.1,0.1-0.2,0.1-0.4
				c1.5-5.2,3.1-16.3,3.8-22.6c0,0,0,0-0.1-0.1c-1.5-1.6-6.7-6.2-14-2.2C731.6,591.4,727.2,606.6,728,613.7z"/>
			<path class="st0" d="M748.1,590.8C748.1,590.7,748.1,590.7,748.1,590.8c-1.6-1.7-6.7-6.2-14.1-2.2c-2.4,2.9-6.8,18.1-6.1,25.2
				c0.1,1,0.3,1.8,0.6,2.4c2.6,4.9,13.1,4.7,15.6-2.4c0-0.1,0.1-0.2,0.1-0.4c0.9-3.2,1.9-8.7,2.7-13.8"/>
			<path class="st2" d="M855.1,403.3c-14.6-11.4-50.1-11.2-57.6,28.1c-1.3-19.2,15.8-35.3,31.8-36.8
				C850.9,392.4,855.1,403.3,855.1,403.3z"/>
			<path class="st0" d="M867.8,441.2c-0.2,0.5-0.4,1-0.5,1.4c-0.6,1.3-1.1,2.3-1.6,3c-0.5,0.8-0.9,1.2-0.9,1.2
				c-0.2,0.1-0.4,0.2-0.7,0.3c-0.3,0.2-0.7,0.3-1,0.5c-0.3,0.1-0.5,0.2-0.7,0.3c-0.2,0.1-0.4,0.2-0.7,0.3
				c-26,9.7-44.5-21.5-44.5-21.5c-0.1,14.1-6.9,22.3-9.4,24.9c-0.4,0.4-0.7,0.7-0.8,0.8c-0.1,0.1-0.1,0.1-0.1,0.1
				c-0.5-0.6-1-1.2-1.4-1.8c-0.1-0.1-0.2-0.3-0.3-0.4c-0.5-0.7-1.1-1.5-1.5-2.2c-0.8-1.2-1.5-2.4-2.1-3.6c-0.6-1.1-1-2.1-1.5-3.2
				c-1.4-3.4-2.1-6.7-2.3-9.9c-1.3-19.2,15.8-35.3,31.8-36.8c21.6-2.1,25.8,8.8,25.8,8.8s0,0,0,0c2.8-0.8,14.6,2.2,14.9,20
				C870.3,431.8,869.1,437.5,867.8,441.2z"/>
			<path class="st2" d="M864.5,462.7l-1.8-0.2l1.9-21.7l5.6,0.5c2.5,0.2,4.3,2.4,4.1,4.8l-0.8,9C873.1,459.8,869,463.1,864.5,462.7z
				"/>
			<path d="M864.5,462.7l-1.4-0.1c-1.2-0.1-2-1.1-2-2.2l0-7.6c0-4.2,1.3-8.4,3.5-11.9l1.8,0.2C866.4,441,864.4,450.3,864.5,462.7z"
				/>
			<path class="st2" d="M804.3,462.7l1.8-0.2l-2-21.7l-5.6,0.5c-2.5,0.2-4.3,2.4-4,4.9l0.8,9C795.7,459.8,799.8,463.2,804.3,462.7z"
				/>
			<path class="st0" d="M864.5,462.7l-1.8-0.2l1.9-21.7l5.6,0.5c2.5,0.2,4.3,2.4,4.1,4.8l-0.8,9C873.1,459.8,869,463.1,864.5,462.7z
				"/>
			<path class="st0" d="M804.3,462.7l1.8-0.2l-2-21.7l-5.6,0.5c-2.5,0.2-4.3,2.4-4,4.9l0.8,9C795.7,459.8,799.8,463.2,804.3,462.7z"
				/>
			<path d="M804.3,462.7l1.4-0.1c1.2-0.1,2-1.1,2-2.2l-0.1-7.6c0-4.2-1.3-8.4-3.6-11.9l-1.8,0.2C802.3,441,804.3,450.3,804.3,462.7z
				"/>
			<path class="st0" d="M864.5,462.7l-1.4-0.1c-1.2-0.1-2-1.1-2-2.2l0-7.6c0-4.2,1.3-8.4,3.5-11.9l1.8,0.2
				C866.4,441,864.4,450.3,864.5,462.7z"/>
			<path class="st0" d="M804.3,462.7l1.4-0.1c1.2-0.1,2-1.1,2-2.2l-0.1-7.6c0-4.2-1.3-8.4-3.6-11.9l-1.8,0.2
				C802.3,441,804.3,450.3,804.3,462.7z"/>
		</g>
		<g>
			<path class="st2" d="M1174,274.4V507c0,5.7-4.6,10.3-10.3,10.3H939.2c-5.7,0-10.3-4.6-10.3-10.3V274.4c0-5.7,4.6-10.3,10.3-10.3
				h224.4C1169.4,264.1,1174,268.7,1174,274.4z"/>
			<path class="st0" d="M1012.8,517.3h-73.6c-5.7,0-10.3-4.6-10.3-10.3V367.4"/>
			<path class="st0" d="M928.9,295v-3.1v-17.6c0-5.7,4.6-10.3,10.3-10.3h224.4c5.7,0,10.3,4.6,10.3,10.3v213.5"/>
			<path class="st3" d="M1174,274.4v10.2h-245v-10.2c0-5.7,4.6-10.3,10.3-10.3h224.4C1169.4,264.1,1174,268.7,1174,274.4z"/>
			<path class="st0" d="M1174,274.4v10.2h-245v-10.2c0-5.7,4.6-10.3,10.3-10.3h224.4C1169.4,264.1,1174,268.7,1174,274.4z"/>
			<path class="st2" d="M1143.2,274.1c0,2-1.6,3.6-3.6,3.6c-2,0-3.6-1.6-3.6-3.6c0-2,1.6-3.6,3.6-3.6
				C1141.6,270.6,1143.2,272.2,1143.2,274.1z"/>
			<path d="M1165.5,274.1c0,2-1.6,3.6-3.6,3.6c-2,0-3.6-1.6-3.6-3.6c0-2,1.6-3.6,3.6-3.6C1163.9,270.6,1165.5,272.2,1165.5,274.1z"
				/>
			<path class="st2" d="M1120.9,274.1c0,2-1.6,3.6-3.6,3.6c-2,0-3.6-1.6-3.6-3.6c0-2,1.6-3.6,3.6-3.6
				C1119.3,270.6,1120.9,272.2,1120.9,274.1z"/>
		</g>
		<g>
			<path class="st1" d="M895.8,608.4H776.3l-9.7-72.8c-0.3-1.9,1.2-3.5,3.1-3.5h132.6c1.9,0,3.4,1.7,3.1,3.5L895.8,608.4z"/>
			<path class="st0" d="M895.8,608.4H776.3l-9.7-72.8c-0.3-1.9,1.2-3.5,3.1-3.5h132.6c1.9,0,3.4,1.7,3.1,3.5L895.8,608.4z"/>
			<rect x="776.3" y="605.9" class="st2" width="119.5" height="7.7"/>
			<rect x="776.3" y="605.9" class="st0" width="119.5" height="7.7"/>
			<circle class="st2" cx="833.5" cy="571.1" r="12.9"/>
		</g>
		<g>
			<path class="st3" d="M988,302.5H886.6c-4.5,0-8.2,3.7-8.2,8.2v46.9c0,4.5,3.7,8.2,8.2,8.2h90.8l12.1,16.9c1.5,2.1,4,3.4,6.6,3.4
				v-75.4C996.1,306.1,992.5,302.5,988,302.5z M909,337.1c-2,0-3.6-1.6-3.6-3.6c0-2,1.6-3.6,3.6-3.6c2,0,3.6,1.6,3.6,3.6
				C912.6,335.5,911,337.1,909,337.1z M935.4,337.1c-2,0-3.6-1.6-3.6-3.6c0-2,1.6-3.6,3.6-3.6c2,0,3.6,1.6,3.6,3.6
				C939,335.5,937.4,337.1,935.4,337.1z M961.9,337.1c-2,0-3.6-1.6-3.6-3.6c0-2,1.6-3.6,3.6-3.6c2,0,3.6,1.6,3.6,3.6
				C965.4,335.5,963.8,337.1,961.9,337.1z"/>
			<path class="st0" d="M981.2,295H879.9c-4.5,0-8.2,3.7-8.2,8.2v46.9c0,4.5,3.7,8.2,8.2,8.2h90.8l12.1,16.9c1.5,2.1,4,3.4,6.6,3.4
				v-75.4C989.4,298.7,985.7,295,981.2,295z M902.2,329.7c-2,0-3.6-1.6-3.6-3.6c0-2,1.6-3.6,3.6-3.6c2,0,3.6,1.6,3.6,3.6
				C905.8,328.1,904.2,329.7,902.2,329.7z M928.7,329.7c-2,0-3.6-1.6-3.6-3.6c0-2,1.6-3.6,3.6-3.6c2,0,3.6,1.6,3.6,3.6
				C932.2,328.1,930.6,329.7,928.7,329.7z M955.1,329.7c-2,0-3.6-1.6-3.6-3.6c0-2,1.6-3.6,3.6-3.6c2,0,3.6,1.6,3.6,3.6
				C958.6,328.1,957.1,329.7,955.1,329.7z"/>
		</g>
		<g>
			<path class="st3" d="M1139.5,317c0,2-1.6,3.6-3.6,3.6c-2,0-3.6-1.6-3.6-3.6c0-2,1.6-3.6,3.6-3.6
				C1137.9,313.4,1139.5,315,1139.5,317z"/>
			<path class="st3" d="M1165.9,317c0,2-1.6,3.6-3.6,3.6c-2,0-3.6-1.6-3.6-3.6c0-2,1.6-3.6,3.6-3.6
				C1164.3,313.4,1165.9,315,1165.9,317z"/>
			<path class="st3" d="M1192.3,317c0,2-1.6,3.6-3.6,3.6c-2,0-3.6-1.6-3.6-3.6c0-2,1.6-3.6,3.6-3.6
				C1190.7,313.4,1192.3,315,1192.3,317z"/>
			<path class="st3" d="M1139.5,340.7c0,2-1.6,3.6-3.6,3.6c-2,0-3.6-1.6-3.6-3.6c0-2,1.6-3.6,3.6-3.6
				C1137.9,337.1,1139.5,338.7,1139.5,340.7z"/>
			<path class="st3" d="M1165.9,340.7c0,2-1.6,3.6-3.6,3.6c-2,0-3.6-1.6-3.6-3.6c0-2,1.6-3.6,3.6-3.6
				C1164.3,337.1,1165.9,338.7,1165.9,340.7z"/>
			<path class="st3" d="M1192.3,340.7c0,2-1.6,3.6-3.6,3.6c-2,0-3.6-1.6-3.6-3.6c0-2,1.6-3.6,3.6-3.6
				C1190.7,337.1,1192.3,338.7,1192.3,340.7z"/>
			<path class="st3" d="M1139.5,364.4c0,2-1.6,3.6-3.6,3.6c-2,0-3.6-1.6-3.6-3.6c0-2,1.6-3.6,3.6-3.6
				C1137.9,360.8,1139.5,362.4,1139.5,364.4z"/>
			<path class="st3" d="M1165.9,364.4c0,2-1.6,3.6-3.6,3.6c-2,0-3.6-1.6-3.6-3.6c0-2,1.6-3.6,3.6-3.6
				C1164.3,360.8,1165.9,362.4,1165.9,364.4z"/>
			<path class="st3" d="M1192.3,364.4c0,2-1.6,3.6-3.6,3.6c-2,0-3.6-1.6-3.6-3.6c0-2,1.6-3.6,3.6-3.6
				C1190.7,360.8,1192.3,362.4,1192.3,364.4z"/>
		</g>
		<path class="st4" d="M1015.7,250.9c0,0-36.6-48.3-148.4-43.2c-111.8,5.1-149.5,59.7-86,72.4c62.9,12.5,102.3-17.5,45.6-29.9
			c-56.7-12.4-128.4,18.3-157.7,66.8"/>
		<g>
			<path class="st3" d="M824,332.1h-56.6c-2.2,0-4.1,1.8-4.1,4.1v29.6c0,2.2,1.8,4.1,4.1,4.1h43.4l11.3,13.2
				c0.6,0.7,1.8,0.3,1.8-0.7v-12.5c2.2,0,4.1-1.8,4.1-4.1v-29.6C828,333.9,826.2,332.1,824,332.1z M795.7,361.4
				c-5.5,0-14.8-16.2-9.3-19.7c5.2-3.3,9.3,2.9,9.3,2.9s4.1-6.2,9.3-2.9C810.5,345.1,801.2,361.4,795.7,361.4z"/>
			<path class="st0" d="M818.6,336.2H762c-2.2,0-4.1,1.8-4.1,4.1v29.6c0,2.2,1.8,4.1,4.1,4.1h43.4l11.3,13.2
				c0.6,0.7,1.8,0.3,1.8-0.7v-12.5c2.2,0,4.1-1.8,4.1-4.1v-29.6C822.6,338,820.8,336.2,818.6,336.2z M790.3,365.4
				c-5.5,0-14.8-16.2-9.3-19.7c5.2-3.3,9.3,2.9,9.3,2.9s4.1-6.2,9.3-2.9C805.1,349.2,795.8,365.4,790.3,365.4z"/>
		</g>
		<g>
			<path class="st3" d="M1033,204.7v2.4l14.4,12.4c1.5,1.3,3.8,0.2,3.8-1.7v-26.1c0-2-2.3-3-3.8-1.7l-14.4,12.4V204.7z"/>
			<rect x="1029.7" y="200.2" width="6.5" height="8.9"/>
			<path class="st0" d="M1032.3,202.6v2.4l14.4,12.4c1.5,1.3,3.8,0.2,3.8-1.7v-26.1c0-2-2.3-3-3.8-1.7l-14.4,12.4V202.6z"/>
			<rect x="1029" y="198.2" class="st0" width="6.5" height="8.9"/>
			<path class="st3" d="M1025.4,216.7h-21.3c-3.5,0-6.4-2.9-6.4-6.4v-11.2c0-3.5,2.9-6.4,6.4-6.4h21.3c3.5,0,6.4,2.9,6.4,6.4v11.2
				C1031.8,213.8,1029,216.7,1025.4,216.7z"/>
			<path class="st2" d="M1019.2,204.7c0,2.5-2,4.4-4.4,4.4c-2.5,0-4.4-2-4.4-4.4c0-2.5,2-4.4,4.4-4.4
				C1017.2,200.2,1019.2,202.2,1019.2,204.7z"/>
			<path class="st0" d="M1024.7,214.6h-21.3c-3.5,0-6.4-2.9-6.4-6.4V197c0-3.5,2.9-6.4,6.4-6.4h21.3c3.5,0,6.4,2.9,6.4,6.4v11.2
				C1031.1,211.8,1028.3,214.6,1024.7,214.6z"/>
			<path class="st0" d="M1018.5,202.6c0,2.5-2,4.4-4.4,4.4c-2.5,0-4.4-2-4.4-4.4s2-4.4,4.4-4.4
				C1016.6,198.2,1018.5,200.2,1018.5,202.6z"/>
		</g>
		<g>
			<path class="st0" d="M727.9,338.6v165.9c0,1.9-0.7,3.6-1.8,4.9c-1.4,1.7-3.5,2.7-5.8,2.7H554.3c-4.2,0-7.6-3.4-7.6-7.6V338.6
				c0-4.2,3.4-7.6,7.6-7.6h165.9C724.5,331,727.9,334.4,727.9,338.6z"/>
			<path class="st1" d="M727.9,338.6v14H546.7v-14c0-4.2,3.4-7.6,7.6-7.6h165.9C724.5,331,727.9,334.4,727.9,338.6z"/>
			<path class="st2" d="M677.7,342.2c0,2-1.6,3.6-3.6,3.6c-2,0-3.6-1.6-3.6-3.6c0-2,1.6-3.6,3.6-3.6
				C676.1,338.6,677.7,340.2,677.7,342.2z"/>
			<path class="st2" d="M700,342.2c0,2-1.6,3.6-3.6,3.6c-2,0-3.6-1.6-3.6-3.6c0-2,1.6-3.6,3.6-3.6C698.4,338.6,700,340.2,700,342.2z
				"/>
			<path class="st2" d="M722.4,342.2c0,2-1.6,3.6-3.6,3.6c-2,0-3.6-1.6-3.6-3.6c0-2,1.6-3.6,3.6-3.6
				C720.8,338.6,722.4,340.2,722.4,342.2z"/>
			<path class="st3" d="M722.4,342.2c0,2-1.6,3.6-3.6,3.6c-2,0-3.6-1.6-3.6-3.6c0-2,1.6-3.6,3.6-3.6
				C720.8,338.6,722.4,340.2,722.4,342.2z"/>
			<path class="st0" d="M727.9,338.6v14H546.7v-14c0-4.2,3.4-7.6,7.6-7.6h165.9C724.5,331,727.9,334.4,727.9,338.6z"/>
		</g>
		<g>
			<path class="st3" d="M654.5,280.9c-0.5,0.3-1.1,0.6-1.6,0.9h-17.2v-8.1h4l-9.8-11.2l-9.8,11.2h4v8.1h-18.3c-3.1-3.5-5-8.1-5-13.1
				c0-2.4,0.4-4.7,1.2-6.9c2.8-7.5,10-12.9,18.5-12.9c5.8,0,11,2.5,14.6,6.4c1.4-1.3,3.4-2.1,5.6-2.1c4.3,0,7.8,3.1,7.8,7v0
				c4.4-0.6,8.6,1,10.8,4.4c0.6,1,1,2,1.3,3.1C661.7,272.5,659.3,277.8,654.5,280.9z"/>
			<path class="st0" d="M657.8,283.3c-0.5,0.3-1.1,0.6-1.6,0.9H639v-8.1h4l-9.8-11.2l-9.8,11.2h4v8.1h-18.3c-3.1-3.5-5-8.1-5-13.1
				c0-2.4,0.4-4.7,1.2-6.9c2.8-7.5,10-12.9,18.5-12.9c5.8,0,11,2.5,14.6,6.4c1.4-1.3,3.4-2.1,5.6-2.1c4.3,0,7.8,3.1,7.8,7v0
				c4.4-0.6,8.6,1,10.8,4.4c0.6,1,1,2,1.3,3.1C665.1,274.9,662.7,280.2,657.8,283.3z"/>
		</g>
		<g>
			<polygon class="st3" points="748,205.9 751.7,214.1 777.5,189.8 			"/>
			<polygon class="st5" points="748,205.9 751.7,214.1 777.5,189.8 			"/>
			<polygon points="749.4,205.9 751.7,214.1 748,205.9 747.6,205.6 749.4,205.2 			"/>
			<polygon class="st3" points="777.5,189.8 765.3,206.6 749.4,205.9 748,205.9 747.6,205.6 739.6,201.5 			"/>
			<polygon class="st5" points="777.5,189.8 765.3,206.6 749.4,205.9 748,205.9 747.6,205.6 739.6,201.5 			"/>
			<polygon points="777.5,189.8 749.4,205.9 748,205.9 747.6,205.6 			"/>
		</g>
		<g>
			<path class="st2" d="M726.4,419h-4v-22.2h1.1c1.6,0,2.8,1.3,2.8,2.8V419z"/>
			<path class="st2" d="M702.2,400l-15.8,19.4h9.1l0,0c-0.1-2,0.5-3.9,1.5-5.5l5.1-8V400z"/>
			<path class="st0" d="M726.4,419h-4v-22.2h1.1c1.6,0,2.8,1.3,2.8,2.8V419z"/>
			<path class="st0" d="M702.2,400l-15.8,19.4h9.1l0,0c-0.1-2,0.5-3.9,1.5-5.5l5.1-8V400z"/>
			<rect x="707" y="391.3" class="st1" width="10.2" height="27.7"/>
			<rect x="707" y="391.3" class="st0" width="10.2" height="27.7"/>
			<rect x="700.3" y="388.2" class="st3" width="7.9" height="30.8"/>
			<rect x="700.3" y="388.2" class="st0" width="7.9" height="30.8"/>
			<rect x="715.9" y="388.2" class="st3" width="7.9" height="30.8"/>
			<rect x="715.9" y="388.2" class="st0" width="7.9" height="30.8"/>
			<rect x="666.9" y="418.2" class="st2" width="61" height="3.4"/>
			<rect x="666.9" y="418.2" class="st0" width="61" height="3.4"/>
		</g>
		<g>
			<polyline class="st0" points="584.4,500.9 584.4,562.3 560,562.3 			"/>
			<line class="st0" x1="584.4" y1="534.2" x2="560" y2="534.2"/>
			<line class="st0" x1="537.8" y1="537.9" x2="502.7" y2="537.9"/>
			<line class="st0" x1="540.7" y1="529.1" x2="528.1" y2="529.1"/>
			<line class="st0" x1="537.8" y1="566.1" x2="502.7" y2="566.1"/>
			<line class="st0" x1="540.7" y1="557.4" x2="528.1" y2="557.4"/>
			<rect x="546.7" y="526" class="st3" width="16.1" height="16.1"/>
			<rect x="546.7" y="554.2" class="st3" width="16.1" height="16.1"/>
			<rect x="544.4" y="522.9" class="st0" width="16.1" height="16.1"/>
			<rect x="544.4" y="551.2" class="st0" width="16.1" height="16.1"/>
		</g>
		<g>
			<path class="st2" d="M973.1,418.5c0,0-10.6-30.5-10.6-33.7c0-4.3,6.1-6.9,9.9-4.9c5.4,3,13.8,40.5,13.8,40.5L973.1,418.5z"/>
			<path class="st0" d="M973.1,418.5c0,0-10.6-30.5-10.6-33.7c0-4.3,6.1-6.9,9.9-4.9c5.4,3,13.8,40.5,13.8,40.5L973.1,418.5z"/>
			<path class="st2" d="M996.1,429.2c-13.1,10.8-29.4,12.1-36.2,12c-2.6-13.1-4.4-23.5-4.4-23.5l32.2-7
				C987.7,410.7,991.1,418,996.1,429.2z"/>
			<path class="st0" d="M996.1,429.2c-13.1,10.8-29.4,12.1-36.2,12c-2.6-13.1-4.4-23.5-4.4-23.5l32.2-7
				C987.7,410.7,991.1,418,996.1,429.2z"/>
			<path class="st2" d="M957.8,409.5c0,0,1.1-4.6,6.1-6.1c5-1.5,9.6,8,10.7,13.3c1.1,5.2,0.2,9.8-4.6,9.9c-4.9,0.1-6.2-5.7-7.2-9.1
				C961.9,414,957.8,409.5,957.8,409.5z"/>
			<path class="st0" d="M957.8,409.5c0,0,1.1-4.6,6.1-6.1c5-1.5,9.6,8,10.7,13.3c1.1,5.2,0.2,9.8-4.6,9.9c-4.9,0.1-6.2-5.7-7.2-9.1
				C961.9,414,957.8,409.5,957.8,409.5z"/>
			<path class="st1" d="M1076.1,451.3l-47.9,44.4l0,0l-2.8,3.5c-3.8,3.9-11.6,9.5-25.2,9.1c-20.3-0.5-29.2-18.1-34.3-39.5l9.7-7.6
				c5.5-11.3,13.9-19.8,23.3-26.2c27.9-18.8,65.1-18.9,65.1-18.9L1076.1,451.3z"/>
			<path class="st0" d="M1076.1,451.3l-47.9,44.4l0,0l-2.8,3.5c-3.8,3.9-11.6,9.5-25.2,9.1c-20.3-0.5-29.2-18.1-34.3-39.5l9.7-7.6
				c5.5-11.3,13.9-19.8,23.3-26.2c27.9-18.8,65.1-18.9,65.1-18.9L1076.1,451.3z"/>
			<path class="st1" d="M1025.4,499.2c-3.8,3.9-11.6,9.5-25.2,9.1c-20.3-0.5-29.2-18.1-34.3-39.5c-0.1-0.4-0.2-0.8-0.3-1.2
				c-0.4-1.7-0.8-3.5-1.2-5.3c-0.2-1-0.4-2-0.7-3c-0.2-0.8-0.4-1.6-0.5-2.4c-0.2-0.9-0.4-1.8-0.6-2.6c-0.4-1.7-0.7-3.4-1-5
				c-0.1-0.5-0.2-1.1-0.3-1.6c0-0.2-0.1-0.5-0.1-0.7c-0.1-0.3-0.1-0.7-0.2-1c-0.1-0.6-0.3-1.3-0.4-1.9c-0.1-0.5-0.2-0.9-0.3-1.3
				c-0.1-0.5-0.2-1.1-0.3-1.6c-0.1-0.5-0.2-0.9-0.3-1.4c-0.1-0.3-0.1-0.7-0.2-1c0-0.1,0-0.2-0.1-0.3c-0.1-0.3-0.1-0.6-0.2-0.9
				c0,0,0,0,0-0.1c-0.1-0.4-0.1-0.8-0.2-1.2c-0.1-0.3-0.1-0.7-0.2-1c-0.1-0.4-0.1-0.8-0.2-1.1c7.2,0.4,19.6-1.2,34.1-12.9h0
				c0.1,0.2,0.2,0.4,0.3,0.6c0.1,0.3,0.3,0.6,0.4,0.9c0.1,0.2,0.2,0.5,0.3,0.7c0.8,1.7,1.6,3.6,2.5,5.6c0.8,1.9,1.7,3.9,2.7,6
				C1006.8,453.1,1017.5,478,1025.4,499.2z"/>
			<path class="st0" d="M1025.4,499.2c-3.8,3.9-11.6,9.5-25.2,9.1c-20.3-0.5-29.2-18.1-34.3-39.5c-0.1-0.4-0.2-0.8-0.3-1.2
				c-0.4-1.7-0.8-3.5-1.2-5.3c-0.2-1-0.4-2-0.7-3c-0.2-0.8-0.4-1.6-0.5-2.4c-0.2-0.9-0.4-1.8-0.6-2.6c-0.4-1.7-0.7-3.4-1-5
				c-0.1-0.5-0.2-1.1-0.3-1.6c0-0.2-0.1-0.5-0.1-0.7c-0.1-0.3-0.1-0.7-0.2-1c-0.1-0.6-0.3-1.3-0.4-1.9c-0.1-0.5-0.2-0.9-0.3-1.3
				c-0.1-0.5-0.2-1.1-0.3-1.6c-0.5-2.4-0.9-4.7-1.3-6.9c7.2,0.4,19.6-1.2,34.1-12.9c1.7,3.8,3.8,8.5,6.2,13.7
				c2.7,6.1,5.7,13,8.8,20.2"/>
			<path class="st3" d="M996.1,429.2c-13.1,10.8-29.4,12.1-36.2,12c-0.1-0.5-0.2-0.9-0.3-1.4c-0.1-0.3-0.1-0.7-0.2-1
				c0-0.1,0-0.2-0.1-0.3c-0.1-0.3-0.1-0.6-0.2-0.9c0,0,0,0,0-0.1c-0.1-0.4-0.1-0.8-0.2-1.2c-0.1-0.3-0.1-0.7-0.2-1
				c-0.1-0.4-0.1-0.8-0.2-1.1c7.2,0.4,19.6-1.2,34.1-12.9c0.1,0.2,0.2,0.4,0.3,0.6c0.1,0.3,0.3,0.6,0.4,0.9c0.1,0.2,0.2,0.5,0.3,0.7
				C994.4,425.3,995.3,427.2,996.1,429.2z"/>
			<path class="st0" d="M996.1,429.2c-13.1,10.8-29.4,12.1-36.2,12c-0.1-0.5-0.2-0.9-0.3-1.4c-0.1-0.3-0.1-0.7-0.2-1
				c0-0.1,0-0.2-0.1-0.3c-0.1-0.3-0.1-0.6-0.2-0.9c0,0,0,0,0-0.1c-0.1-0.4-0.1-0.8-0.2-1.2c-0.1-0.3-0.1-0.7-0.2-1
				c-0.1-0.4-0.1-0.8-0.2-1.1c7.2,0.4,19.6-1.2,34.1-12.9c0.1,0.2,0.2,0.4,0.3,0.6c0.1,0.3,0.3,0.6,0.4,0.9c0.1,0.2,0.2,0.5,0.3,0.7
				C994.4,425.3,995.3,427.2,996.1,429.2z"/>
			<path class="st2" d="M952,412.3c-1,3.5,2.4,16.7,10,15.1c7.6-1.6,0.9-16.6-3.3-18.8C956.1,407.3,952.6,410.2,952,412.3z"/>
			<path class="st0" d="M952,412.3c-1,3.5,2.4,16.7,10,15.1c7.6-1.6,0.9-16.6-3.3-18.8C956.1,407.3,952.6,410.2,952,412.3z"/>
			<path class="st2" d="M988.4,412.2c0,0-1.1-6.5-5.1-7c-4-0.5-17.7,7.7-16.9,11.1c0.9,3.4,3.6,6.3,8.6,4.8
				C980.1,419.6,988.4,412.2,988.4,412.2z"/>
			<path class="st0" d="M988.4,412.2c0,0-1.1-6.5-5.1-7c-4-0.5-17.7,7.7-16.9,11.1c0.9,3.4,3.6,6.3,8.6,4.8c2.5-0.7,5.7-2.9,8.4-4.9
				"/>
			<path class="st1" d="M1063.9,416.2c0,0,37-5.9,59.7,21.7c22.7,27.6,24.7,64.9,25.2,75.4l-134.7,0c0,0-6.1-23.4,3.4-49.7
				C1026.9,437.1,1063.9,416.2,1063.9,416.2z"/>
			<path class="st0" d="M1063.9,416.2c0,0,37-5.9,59.7,21.7c22.7,27.6,24.7,64.9,25.2,75.4l-134.7,0c0,0-6.1-23.4,3.4-49.7"/>
			<path class="st0" d="M1110.1,464.9c0,0,3.9,17.5,2.5,49.4"/>
			<path class="st3" d="M1076.1,402.2v18.4c0,0-3.3,6-11.8,6c-8.4,0-11.8-6-11.8-6v-18.4H1076.1z"/>
			<path class="st0" d="M1076.1,402.2v18.4c0,0-3.3,6-11.8,6c-8.4,0-11.8-6-11.8-6v-18.4H1076.1z"/>
			<path class="st2" d="M1074.3,400.4V416c0,0-2.8,5-10,5c-7.2,0-10-5-10-5v-15.6H1074.3z"/>
			<path class="st0" d="M1074.3,400.4V416c0,0-2.8,5-10,5c-7.2,0-10-5-10-5v-15.6H1074.3z"/>
			<path class="st1" d="M1107,430.9c-8.3,9.4-26.3,9.8-33.1-3.4c-6.7-13.2,0.5-43.9,0.5-43.9l-26.1,0.2c0,0,14.1,19.2,6.1,38.7
				c-6.1,14.9-19.5,19.9-28.1,14.3c0,0,0,0,0,0c-2.7-1.8-4.9-4.6-6.3-8.4c-5.9-16.3,9.6-23.6,15.3-29.6c5.7-6,2.8-18.7,2.4-29.4
				c-0.3-10.7,6.5-30.7,24.8-31.5c16.8-0.8,29.7,15,27.9,37.7c-1.8,22.8,5.5,26.5,10.1,30.1C1105,409.1,1115.3,421.5,1107,430.9z"/>
			<path class="st2" d="M1039.8,390.1c1.2,11.6-11.4,17.6-15.3,23.2s-4.6,15,1.8,23.4c-2.7-1.8-4.9-4.6-6.3-8.4
				c-5.9-16.3,9.6-23.6,15.3-29.6c5.7-6,2.8-18.7,2.4-29.4c-0.3-10.7,6.5-30.7,24.8-31.5C1037.3,343,1038.6,378.5,1039.8,390.1z"/>
			<path class="st0" d="M1062.5,337.8c-18.3,0.9-25.1,20.8-24.8,31.5s3.3,23.4-2.4,29.4c-5.7,6-21.1,13.3-15.3,29.6
				c5.9,16.3,26.4,13.7,34.4-5.9c8-19.5-6.1-38.7-6.1-38.7l26.1-0.2c0,0-7.2,30.7-0.4,43.9c6.7,13.2,24.8,12.8,33.1,3.4
				c8.3-9.4-2-21.8-6.5-25.4c-4.6-3.6-11.9-7.3-10.1-30.1C1092.2,352.7,1079.3,337,1062.5,337.8z"/>
			<path class="st2" d="M1083.9,381.7c0,14.2-9,25-20.1,25c-11.1,0-20.1-10.8-20.1-25c0-14.2,9-27.9,20.1-27.9
				C1075,353.8,1083.9,367.5,1083.9,381.7z"/>
			<path class="st0" d="M1083.9,381.7c0,14.2-9,25-20.1,25c-11.1,0-20.1-10.8-20.1-25c0-14.2,9-27.9,20.1-27.9
				C1075,353.8,1083.9,367.5,1083.9,381.7z"/>
			<path class="st1" d="M1056.4,380.9h-2.2v-3.4c0-0.6,0.5-1.1,1.1-1.1l0,0c0.6,0,1.1,0.5,1.1,1.1V380.9z"/>
			<path class="st1" d="M1068.9,371.7c0.1,1.3,6.6,2,6.8,0.6C1075.9,370.9,1068.8,370,1068.9,371.7z"/>
			<path class="st1" d="M1072,380.9h-2.2v-3.4c0-0.6,0.5-1.1,1.1-1.1l0,0c0.6,0,1.1,0.5,1.1,1.1V380.9z"/>
			<path class="st0" d="M1069.5,380.9c0,0,1.2-0.9,2.8,0"/>
			<path class="st6" d="M1057.2,371.5c0,1.3-6.4,2.5-6.8,1.1C1050.2,371.2,1057.3,369.7,1057.2,371.5z"/>
			<path class="st0" d="M1056.7,380.9c0,0-1.2-0.9-2.8,0"/>
			<path class="st0" d="M1062.2,387.4c0,0-0.5,2.3,1.8,2.1c2.3-0.2,2.3-2.7,0.7-2.8"/>
			<path class="st1" d="M1070.5,355.5c0,0-7.9,22.4-27.9,24.8c0,0-5-33.2,19.9-35s23.2,34.7,23.2,34.7S1078.5,379.2,1070.5,355.5z"
				/>
			<path class="st0" d="M1070.5,355.5c0,0-7.9,22.4-27.9,24.8c0,0-5-33.2,19.9-35s23.2,34.7,23.2,34.7S1078.5,379.2,1070.5,355.5z"
				/>
			<path class="st2" d="M1082,380c0,0,1.8-3,6.9-1.5c5.1,1.5,3.7,14.6-6.9,11.8V380z"/>
			<path class="st0" d="M1083.3,378.8c1.1-0.6,2.9-1.1,5.6-0.3c5,1.5,3.7,14.1-6.2,12"/>
			<path class="st0" d="M1085,382.9c0,0,2.9-2,4.6,1.4"/>
			<line class="st0" x1="1086.8" y1="386.1" x2="1086.8" y2="382.3"/>
			<path class="st1" d="M1070.1,398c-0.6,0.2-1.3,0.2-2,0.2c-2.1-0.1-4.3-1.1-4.2-2.7c0.2-2.6,4.9-1.8,6.2-3.7c1.3-2,3.8-2.4,4.2,0
				c0,0,0,0.1,0,0.1C1074.7,394.2,1073.7,397,1070.1,398z"/>
			<path class="st0" d="M1070.1,398c-0.6,0.2-1.3,0.2-2,0.2c-2.1-0.1-4.3-1.1-4.2-2.7c0.2-2.6,4.9-1.8,6.2-3.7c1.3-2,3.8-2.4,4.2,0
				c0,0,0,0.1,0,0.1C1074.7,394.2,1073.7,397,1070.1,398z"/>
			<path class="st2" d="M1070.1,398c-0.6,0.2-1.3,0.2-2,0.2c-0.3-1.9-0.5-4.2,1.4-4.8c1.5-0.5,2.3-2.6,4.9-1.6
				C1074.7,394.2,1073.7,397,1070.1,398z"/>
			<path class="st2" d="M1045.5,380c0,0-1.8-3-6.9-1.5c-5.1,1.5-3.7,14.6,6.9,11.8V380z"/>
			<path class="st0" d="M1045.2,380c0,0-1.8-3-6.9-1.5c-5.1,1.5-3.7,14.6,6.9,11.8"/>
			<path class="st0" d="M1042.5,382.9c0,0-2.9-2-4.6,1.4"/>
			<line class="st0" x1="1040.8" y1="386.1" x2="1040.8" y2="382.3"/>
		</g>
		<g>
			<path class="st3" d="M644,455.2v54.2h-87.3v-51.8c0-2.7,1-5.2,2.6-7.2c2-2.4,5.1-4,8.5-4h65.4c5.2,0,9.6,3.6,10.8,8.4
				C644,455,644,455.1,644,455.2z"/>
			<path class="st0" d="M644,455.2v54.2h-87.6v-54.2c0-2.7,1-5.2,2.6-7.2c2-2.4,5.1-4,8.5-4h65.4c6,0,10.9,4.8,11.1,10.8
				C644,455,644,455.1,644,455.2z"/>
			<path d="M597.9,509.5h-41.5v-23.6c8.7-23.4,27.1-26.4,27.1-26.4s2.9,7,8,13.3c5.1,6.3,2.5,13.3,5.1,26.7
				C597.5,503.8,597.8,507,597.9,509.5z"/>
			<path d="M600.1,446.5v11.6c-6.8-2.8-9.9-7.4-11.3-11.6H600.1z"/>
		</g>
		<g>
			<path class="st2" d="M588.2,477.8v31.7h-10.1c-3.3,0-6.4-1.8-7.9-4.8c-0.6-1.3-1.1-2.9-1.2-4.8c0-0.1,0-0.3,0-0.4
				c0-7,0-21.6,0-21.6H588.2z"/>
			<path class="st0" d="M588.2,509.5h-10.1c-3.3,0-6.4-1.8-7.9-4.8c-0.6-1.3-1.1-2.9-1.2-4.8c0-0.1,0-0.3,0-0.4c0-3.7,0-9.4,0-14.1"
				/>
			<path class="st2" d="M589.3,509.3H578c-3,0-5.8-1.5-7.4-4c0,0,0-0.1-0.1-0.1c-0.9-1.4-1.4-3-1.4-4.7v-21l14.5,0.1l5,0
				L589.3,509.3z"/>
			<path class="st2" d="M710.3,497.5c0,0,4-1.5,6.4-0.3c2.4,1.1,6.3,6.4,6.3,7.6s-2.8,2.4-5.1,0.4
				C715.6,503.2,710.3,497.5,710.3,497.5z"/>
			<path class="st0" d="M710.3,497.5c0,0,4-1.5,6.4-0.3c2.4,1.1,6.3,6.4,6.3,7.6s-2.8,2.4-5.1,0.4
				C715.6,503.2,710.3,497.5,710.3,497.5z"/>
			<path class="st2" d="M703.1,497.7c0,0,1.9-3.3,5-2.8s10,7.1,10.8,8.3c1.4,2.1-1.6,5.1-4.7,4.7c-3.1-0.4-10.4-7-10.4-7
				L703.1,497.7z"/>
			<path class="st0" d="M703.1,497.7c0,0,1.9-3.3,5-2.8s10,7.1,10.8,8.3c1.4,2.1-1.6,5.1-4.7,4.7c-3.1-0.4-10.4-7-10.4-7
				L703.1,497.7z"/>
			<path class="st3" d="M665.7,509.5h-77.2l-0.5-12.5c-8.3-11.1-21.5-12-21.5-12c-0.2-3.3,3.9-17.9,15.8-27c6.2-4.7,16.2-6.4,24.4-7
				c7.6-0.5,13.6,0,13.6,0c5.1,0.6,9.7,1.5,13.8,2.8C673.7,466.2,665.7,509.5,665.7,509.5z"/>
			<path class="st0" d="M665.7,509.5h-77.2l-0.5-12.5c-8.3-11.1-21.5-12-21.5-12c-0.2-3.3,3.9-17.9,15.8-27c6.2-4.7,16.2-6.4,24.4-7
				c7.6-0.5,13.6,0,13.6,0c5.1,0.6,9.7,1.5,13.8,2.8C673.7,466.2,665.7,509.5,665.7,509.5z"/>
			<path class="st2" d="M644,499.4c0,0-1.5,8.3-1.5,10.1h44.1l13.5-6.7c0,0,6.8,4.6,9.3,5.2c0,0,5,0.8,3.9-4.4
				c0,0-12.1-9.5-14.5-10.5c-2.4-1-10.4,1.5-15.5,4.6l-17.9-5.4L644,499.4z"/>
			<path class="st0" d="M644,499.4c0,0-1.5,8.3-1.5,10.1h44.1l13.5-6.7c0,0,6.8,4.6,9.3,5.2c0,0,5,0.8,3.9-4.4
				c0,0-12.1-9.5-14.5-10.5c-2.4-1-10.4,1.5-15.5,4.6l-17.9-5.4L644,499.4z"/>
			<line class="st0" x1="642.5" y1="485.4" x2="644" y2="499.4"/>
			<path d="M634,453.7v5.6c0,2.5-1,4.9-2.7,6.7c-2.1,2.2-5.7,4.5-11,4.5c-5.8,0-9.2-2.1-11.1-4.2c-1.6-1.7-2.4-4.1-2.4-6.4v-9
				c7.6-0.5,13.6,0,13.6,0C625.4,451.5,630,452.4,634,453.7z"/>
			<path class="st2" d="M678.4,505.5c0,0,5.4,4.7,10,5.7c4.6,1,9.4-2.3,9.1-4.6c-0.3-2.3-12.9-4.9-12.9-4.9L678.4,505.5z"/>
			<path class="st0" d="M680.4,507c2,1.5,5.1,3.5,8,4.1c4.6,1,9.4-2.3,9.1-4.6c-0.2-1.4-4.7-2.9-8.4-3.8"/>
			<path class="st2" d="M629.1,444.1v14.1c0,1.5-0.7,2.9-1.9,3.8c-2.7,1.8-7.8,4.1-14.2-0.1c-1.3-0.9-2.1-2.3-2.1-3.9v-13.9H629.1z"
				/>
			<path class="st5" d="M629.1,444.1v14.1c0,1.5-0.7,2.9-1.9,3.8c-2.7,1.8-7.8,4.1-14.2-0.1c-1.3-0.9-2.1-2.3-2.1-3.9v-13.9H629.1z"
				/>
			<path class="st2" d="M635.4,430.1c0,11.4-7.2,20-16.1,20c-8.9,0-16.1-8.6-16.1-20s7.2-22.3,16.1-22.3
				C628.2,407.8,635.4,418.7,635.4,430.1z"/>
			<path class="st0" d="M635.4,430.1c0,11.4-7.2,20-16.1,20c-8.9,0-16.1-8.6-16.1-20s7.2-22.3,16.1-22.3
				C628.2,407.8,635.4,418.7,635.4,430.1z"/>
			<path d="M624,426.8c0.8,0.6,4.9-2.6,4.2-3.5C627.5,422.4,622.9,425.9,624,426.8z"/>
			<path d="M625.8,432.2H624v-2.7c0-0.5,0.4-0.9,0.9-0.9l0,0c0.5,0,0.9,0.4,0.9,0.9V432.2z"/>
			<path d="M613.3,432.2h-1.8v-2.7c0-0.5,0.4-0.9,0.9-0.9l0,0c0.5,0,0.9,0.4,0.9,0.9V432.2z"/>
			<path class="st5" d="M623.8,432.2c0,0,1-0.8,2.3,0"/>
			<path d="M613.5,426.6c-0.7,0.7-5.1-2.2-4.5-3.2C609.7,422.5,614.5,425.6,613.5,426.6z"/>
			<path class="st5" d="M613.5,432.2c0,0-1-0.8-2.3,0"/>
			<path class="st5" d="M618,434.6c0,0-0.4,1.9,1.5,1.7c1.8-0.2,1.9-2.2,0.6-2.2"/>
			<path class="st0" d="M639.3,426c3.3,1.7,2.4,10.2-4.4,9.6"/>
			<path class="st0" d="M635.6,431.3c0,0,1.7-1.7,3.3,0.4"/>
			<path d="M613.1,437.7c0,0,2.4,3.5,6.8,3.4c0,0-3.2,3.7-6.3,1.6C611.5,441.4,613.1,437.7,613.1,437.7z"/>
			<path class="st0" d="M613.1,437.7c0,0,2.4,3.5,6.8,3.4c0,0-3.2,3.7-6.3,1.6C611.5,441.4,613.1,437.7,613.1,437.7z"/>
			
				<ellipse transform="matrix(0.7071 -0.7071 0.7071 0.7071 -119.1347 569.4637)" class="st0" cx="627.8" cy="428.5" rx="7.5" ry="7.5"/>
			
				<ellipse transform="matrix(0.1602 -0.9871 0.9871 0.1602 89.9572 962.8123)" class="st0" cx="610.8" cy="428.5" rx="7.5" ry="7.5"/>
			<path class="st2" d="M613.6,455.8c-0.8,6.5-5.7,23.2-12.4,37.9c-6.7,14.6-11.9,15.6-11.9,15.6H578c-3,0-5.8-1.5-7.4-4
				c0,0,0-0.1-0.1-0.1c-0.9-1.4-1.4-3-1.4-4.7v-1.6c4.3-5.9,9.6-12.9,14.5-19.3c7.4-9.7,13.7-17.8,13.7-17.8s0.5-7.7,0-9
				c-0.5-1.3-5-8.1-5.9-10.1c-0.9-2-1.7-12.5-0.6-14.7c1.1-2.2,2.9-1.2,2.9-1.2l3.3,5.9c0,0,3.5-4.3,5-6.3c1.5-2,4.5-1.8,5.1,1.7
				c0.7,3.5-2.1,5.8-2,6.9c0.1,1.1,0.3,3.6,4,7.7S614.4,449.3,613.6,455.8z"/>
			<path class="st0" d="M573.1,493.6c3.4-4.6,7.1-9.4,10.5-13.9c7.4-9.7,13.7-17.8,13.7-17.8s0.5-7.7,0-9c-0.5-1.3-5-8.1-5.9-10.1
				c-0.9-2-1.7-12.5-0.6-14.7c1.1-2.2,2.9-1.2,2.9-1.2l3.3,5.9c0,0,3.5-4.3,5-6.3c1.5-2,4.5-1.8,5.1,1.7c0.7,3.5-2.1,5.8-2,6.9
				c0.1,1.1,0.3,3.6,4,7.7s5.1,6.6,4.3,13.1c-0.8,6.5-5.7,23.2-12.4,37.9c-6.7,14.6-11.9,15.6-11.9,15.6H578c-3,0-5.8-1.5-7.4-4
				c0,0,0-0.1-0.1-0.1c-0.9-1.4-1.4-3-1.4-4.7v-1.6"/>
			<path d="M636.4,430.2l-0.9-3.2c-6.9-4.1-8.2-8.7-8.2-8.7s-3.4,6.5-7.8,6.5c-4.4,0-4.8-3.3-4.8-3.3c-8.8,6.3-18.4,5.4-20.6-0.1h0
				c-0.4-1-0.6-2.1-0.5-3.4c0.7-8.4,8.8-9.3,8.8-9.3s-2.8-3.2-3.1-6.4c-0.1-2,0.7-4.1,4-5.3c8.4-3.3,16.7,2.4,16.9,2.6v0
				c-0.1-0.2-1.1-3.9,2.1-4.6c3.3-0.7,6.6,7.4,6.6,7.4s2.8-4,4.4-3.5c1.6,0.5-1.5,4.1-1.5,4.1c5.9-0.9,8.7,1.2,9.8,12.2
				C642.9,426.2,636.4,430.2,636.4,430.2z"/>
			<path class="st2" d="M620.5,399.6c-14.6-4.3-21,2.8-21,2.8c-0.1-2,0.7-4.1,4-5.3C612,393.8,620.3,399.5,620.5,399.6L620.5,399.6z
				"/>
			<path class="st2" d="M594.2,421.5L594.2,421.5c-0.4-1-0.6-2.1-0.5-3.4c0.7-8.4,8.8-9.3,8.8-9.3l0.7,0.4
				C593.6,411.8,594.2,421.5,594.2,421.5z"/>
			<path class="st0" d="M636.4,430.2c0,0,6.5-4,5.4-15c-1.1-11-3.9-13-9.8-12.2c0,0,3-3.7,1.5-4.1c-1.6-0.5-4.4,3.5-4.4,3.5
				s-3.3-8.1-6.6-7.4c-3.3,0.7-2.1,4.6-2.1,4.6s-8.4-5.9-16.9-2.6c-8.5,3.3-1,11.7-1,11.7s-8,0.9-8.8,9.3c-0.7,8.4,10.7,11,21.1,3.5
				c0,0,0.4,3.3,4.8,3.3c4.4,0,7.8-6.5,7.8-6.5s1.2,4.5,8.2,8.7L636.4,430.2z"/>
			<path class="st2" d="M596.3,441.4c0,0-2.6-3.7-2.9-6.3c-0.3-2.6-0.1-10.3,0.6-11.8c0.6-1.4,3-2.6,4.7-1c0.5,0.5,0.7,1.1,0.7,1.7
				c-0.1,2.6-0.3,10.7,0,12c0.4,1.5,2,2.7,2,2.7L596.3,441.4z"/>
			<path class="st0" d="M596.3,441.4c0,0-2.6-3.7-2.9-6.3c-0.3-2.6-0.1-10.3,0.6-11.8c0.6-1.4,3-2.6,4.7-1c0.5,0.5,0.7,1.1,0.7,1.7
				c-0.1,2.6-0.3,10.7,0,12c0.4,1.5,2,2.7,2,2.7"/>
			<path class="st0" d="M589.3,509.3H578c-3,0-5.8-1.5-7.4-4c0,0,0-0.1-0.1-0.1c-0.9-1.4-1.4-3-1.4-4.7v-15.2"/>
		</g>
		<g>
			<path class="st3" d="M1194.4,592.2H1028c-3.9,0-7-3.1-7-7v-85.8c0-3.9,3.1-7,7-7h166.4c3.9,0,7,3.1,7,7v85.8
				C1201.5,589,1198.3,592.2,1194.4,592.2z"/>
			<path class="st0" d="M1186.3,587.8h-166.4c-3.9,0-7-3.1-7-7v-85.8c0-3.9,3.1-7,7-7H1174h12.3c3.9,0,7,3.1,7,7v85.8
				C1193.3,584.6,1190.2,587.8,1186.3,587.8z"/>
			<line class="st7" x1="1057.7" y1="519.7" x2="1164.9" y2="519.7"/>
			<line class="st7" x1="1057.7" y1="544.5" x2="1164.9" y2="544.5"/>
			<line class="st7" x1="1057.7" y1="569.4" x2="1164.9" y2="569.4"/>
		</g>
	</g>
</g>
</svg>
