<?xml version="1.0" encoding="utf-8"?>
<!-- Generator: Adobe Illustrator 26.0.1, SVG Export Plug-In . SVG Version: 6.00 Build 0)  -->
<svg version="1.1" id="Layer_1" xmlns="http://www.w3.org/2000/svg" xmlns:xlink="http://www.w3.org/1999/xlink" x="0px" y="0px"
	 viewBox="0 0 57 100" style="enable-background:new 0 0 57 100;" xml:space="preserve">
<style type="text/css">
	.st0{fill:#EEDA36;}
	.st1{fill:#1A71B9;}
	.st2{fill:#FFFFFF;}
	.st3{fill:#DB7294;}
	.st4{fill:#AAF2FF;}
	.st5{fill:#E4B0C8;stroke:#211F21;stroke-width:0.9283;stroke-miterlimit:10;}
	.st6{fill:none;stroke:#211F21;stroke-width:0.9283;stroke-miterlimit:10;}
	.st7{fill:#B4AAF9;}
</style>
<g>
	<g>
		<g>
			<g>
				<path class="st0" d="M24.2,79.6L24.2,79.6c-3.7,0.8-7,0.4-7.3-1.1L8.2,40.5c-0.3-1.4,2.4-3.3,6.1-4.1l0,0c3.7-0.8,7.6-0.4,7.9,1
					l8.2,38.2C30.6,76.9,27.9,78.8,24.2,79.6z"/>
				<g>
					<path d="M24,79c-1.4,0.3-5.9,1.2-6.6-0.8c-0.2-0.7-0.3-1.4-0.5-2.1c-0.7-3.2-1.5-6.5-2.2-9.8c-1.7-7.7-3.5-15.4-5.3-23.1
						c-0.2-0.8-0.4-1.7-0.6-2.5c-0.3-1.6,1.9-2.5,3.1-3c1.8-0.7,3.8-1.1,5.8-1.2c1,0,3.2-0.1,3.8,1c0.2,0.4,0.2,1,0.3,1.5
						c1.5,7.2,3,14.4,4.7,21.7c0.8,3.6,1.6,7.4,2.3,11c0.2,1,0.4,2.1,0.7,3.1c0.2,0.9,0.3,1.3-0.6,2C27.6,78,25.7,78.6,24,79
						c-0.8,0.2-0.5,1.4,0.3,1.2c2-0.5,6.6-1.7,6.6-4.6c0-0.6-0.2-1.2-0.3-1.8c-0.7-3.3-1.4-6.6-2.1-9.9c-1.7-8.2-3.5-16.4-5.3-24.7
						c-0.2-0.7-0.2-1.5-0.5-2.1c-0.6-2.1-3.9-2-5.7-1.9c-2.9,0.2-7.3,1-9.1,3.6c-0.6,0.8-0.5,1.5-0.3,2.4c1.7,7.5,3.4,15,5.2,22.5
						c0.9,3.8,1.8,7.8,2.6,11.6c0.2,0.9,0.4,1.9,0.7,2.8c0.3,1.4,1.5,1.9,2.9,2.2c1.7,0.3,3.5,0,5.3-0.3C25.1,80.1,24.8,78.9,24,79z
						"/>
				</g>
			</g>
			<g>
				
					<rect x="14.6" y="65.9" transform="matrix(0.9747 -0.2234 0.2234 0.9747 -14.6656 6.5339)" class="st1" width="13.9" height="4.5"/>
			</g>
			<g>
				<g>
					<path class="st2" d="M8.4,39.8L11.8,25l9.8,11.8c0.3,0.3-0.4,0.8-1.3,1L10,40.1C9.1,40.3,8.3,40.2,8.4,39.8z"/>
					<g>
						<path d="M9.1,40c1-4.3,1.9-8.6,2.9-12.9c0.1-0.6,0.3-1.2,0.4-1.8c-0.3,0.1-0.7,0.2-1,0.3c2.4,2.9,5,6,7.4,8.9
							c0.6,0.7,1.2,1.4,1.8,2.1c0.2,0.2,0.3,0.4,0.5,0.6l0.1,0.1l0,0c-0.1,0-0.1-0.3-0.2-0.3c-0.1,0-0.3,0.2-0.4,0.2
							c-0.6,0.2-1.2,0.3-1.8,0.4c-1.1,0.2-2.3,0.5-3.4,0.7c-1.3,0.3-2.6,0.6-3.9,0.8c-0.4,0.1-0.8,0.2-1.2,0.3c-0.1,0-0.2,0-0.3,0.1
							l0,0c-0.1,0-0.3,0.1-0.5,0.1c-0.3,0-0.3-0.1-0.3,0.2c0-0.8-1.2-0.8-1.2,0c0,2,4.8,0.4,5.8,0.2c2.2-0.5,4.5-0.9,6.7-1.4
							c0.9-0.2,2.5-0.9,1.7-2.1c-0.3-0.4-0.7-0.8-1-1.2c-1.6-2-3.3-4-5-6.1c-1.2-1.5-2.5-3-3.7-4.6c-0.3-0.4-0.9-0.2-1,0.3
							c-1,4.3-1.9,8.6-2.9,12.9c-0.1,0.6-0.3,1.2-0.4,1.8C7.6,40.4,8.8,40.8,9.1,40z"/>
					</g>
				</g>
				<polygon points="10.6,32.7 16.9,31.3 11.8,25 				"/>
			</g>
			<g>
				<path class="st3" d="M15.7,73.5l1.5,6.5c0.4,1.8,3.7,2.6,7.5,1.8l0,0c3.7-0.8,6.4-3,6-4.9l-1.4-6.6L15.7,73.5z"/>
				<g>
					<path d="M15.1,73.6c0.4,1.6,0.7,3.2,1.1,5c0.1,0.6,0.2,1.2,0.4,1.7c0.4,1.2,1.6,1.8,2.7,2.1c3.1,0.9,7.2,0,9.9-1.9
						c0.9-0.7,1.8-1.6,2-2.7c0.1-0.6-0.1-1.3-0.2-1.9c-0.4-1.9-0.8-3.7-1.2-5.7c-0.1-0.3-0.5-0.5-0.8-0.4c-3.9,0.9-7.9,1.8-11.8,2.7
						c-0.6,0.1-1.1,0.3-1.7,0.4c-0.8,0.2-0.5,1.4,0.3,1.2c3.9-0.9,7.9-1.8,11.8-2.7c0.6-0.1,1.1-0.3,1.7-0.4
						c-0.3-0.1-0.5-0.3-0.8-0.4c0.3,1.4,0.6,2.8,0.9,4.3c0.2,0.7,0.3,1.4,0.5,2.1c0.1,0.8-0.2,1.3-0.8,1.9c-2.1,2.1-6,3-8.9,2.5
						c-1-0.2-2.2-0.5-2.5-1.5c-0.1-0.5-0.2-1-0.3-1.5c-0.4-1.6-0.8-3.3-1.1-5C16.1,72.5,14.9,72.8,15.1,73.6z"/>
				</g>
			</g>
			<g>
				
					<rect x="15.6" y="70.2" transform="matrix(0.9747 -0.2234 0.2234 0.9747 -15.6005 6.8678)" class="st1" width="13.9" height="4.4"/>
			</g>
		</g>
		<g>
			<g>
				<path class="st4" d="M35.7,72.3L35.7,72.3c-3.7-0.7-6.5-2.5-6.3-3.9l7.7-38.3c0.3-1.4,3.5-2,7.3-1.3l0,0
					c3.7,0.7,7.1,2.7,6.8,4.1L43,71C42.7,72.5,39.4,73.1,35.7,72.3z"/>
				<g>
					<path d="M35.8,71.6c-1.7-0.4-3.5-0.9-5-2c-0.4-0.4-0.8-0.7-0.8-1.3c0-0.7,0.3-1.4,0.4-2c0.6-3.2,1.3-6.5,1.9-9.7
						c1.5-7.8,3.1-15.5,4.7-23.3c0.2-0.9,0.3-1.8,0.5-2.7c0.3-1.5,2.1-1.6,3.4-1.6c2,0,4,0.4,5.9,1.1c1,0.4,3.4,1.3,3.5,2.5
						c0,0.4-0.2,1-0.3,1.4c-1.5,7.2-3.1,14.4-4.7,21.6c-0.8,3.6-1.6,7.3-2.4,11c-0.2,1.1-0.5,2.1-0.7,3.2C42,70.7,42,71.1,41,71.5
						C39.6,72.3,37.6,72.1,35.8,71.6c-0.8-0.1-1.1,1.1-0.3,1.2c2,0.4,6.9,1.1,8-1.5c0.2-0.5,0.3-1.1,0.4-1.7c0.7-3.3,1.4-6.7,2.1-10
						c1.7-8.2,3.5-16.4,5.3-24.5c0.1-0.7,0.3-1.3,0.4-2c0.3-2.2-2.6-3.4-4.3-4.1c-1.8-0.7-3.8-1.1-5.8-1.2c-1.4,0-3.1,0-4.3,0.8
						c-0.8,0.5-0.9,1.2-1.1,2c-1.5,7.6-3,15.3-4.6,22.9c-0.8,3.8-1.5,7.7-2.3,11.5c-0.2,0.9-0.4,1.8-0.6,2.8
						c-0.3,1.4,0.5,2.4,1.7,3.1c1.4,1,3.2,1.5,5,1.9C36.3,73.1,36.6,71.9,35.8,71.6z"/>
				</g>
			</g>
			<g>
				
					<rect x="35.7" y="53.8" transform="matrix(0.1969 -0.9804 0.9804 0.1969 -29.0379 85.9928)" class="st1" width="4.5" height="13.9"/>
			</g>
			<g>
				<g>
					<path class="st2" d="M37.7,29.4l9.1-12l4,14.8c0.1,0.4-0.7,0.6-1.6,0.4l-10.3-2.2C38,30.3,37.5,29.8,37.7,29.4z"/>
					<g>
						<path d="M38.2,29.8c2.6-3.5,5.4-7.1,8-10.5c0.4-0.5,0.7-1,1.1-1.5c-0.4,0-0.8-0.1-1.1-0.1c1,3.7,2,7.5,3,11.2
							c0.2,0.9,0.5,1.8,0.7,2.6c0.1,0.2,0.1,0.5,0.2,0.7c0,0,0,0.1,0,0.2l0,0c0-0.1,0-0.1,0-0.2c0.1-0.2,0-0.2-0.1-0.2s-0.4,0-0.5,0
							c-1.7-0.2-3.4-0.7-5.2-1.1c-1.3-0.3-2.5-0.5-3.8-0.8c-0.4-0.1-0.8-0.2-1.2-0.2c-0.1,0-0.2,0-0.2-0.1c-0.1,0-0.2,0-0.3-0.1
							c-0.1,0-0.2-0.1-0.4-0.1c-0.1,0-0.1-0.1-0.2-0.1C38.1,29.3,38.1,29.4,38.2,29.8c0.3-0.7-0.7-1.4-1.1-0.6
							c-0.9,1.9,3.9,2.3,5.1,2.6c2.2,0.5,4.5,1,6.8,1.4c0.9,0.2,2.7,0.3,2.5-1.1c-0.1-0.5-0.3-1.1-0.4-1.6c-0.7-2.5-1.4-5.1-2-7.6
							c-0.5-1.9-1-3.7-1.5-5.7c-0.2-0.6-0.8-0.6-1.1-0.1c-2.6,3.5-5.4,7.1-8,10.5c-0.4,0.5-0.7,1-1.1,1.5
							C36.7,29.8,37.7,30.5,38.2,29.8z"/>
					</g>
				</g>
				<polygon points="42.5,23.9 48.9,25.2 46.8,17.4 				"/>
			</g>
			<g>
				<path class="st3" d="M30.5,63.1l-1.3,6.6c-0.4,1.8,2.3,3.9,6.1,4.7l0,0c3.7,0.7,7.1-0.1,7.4-2l1.4-6.6L30.5,63.1z"/>
				<g>
					<path d="M29.9,62.9c-0.3,1.6-0.7,3.3-1,5c-0.1,0.6-0.3,1.1-0.3,1.7c-0.2,1.2,0.5,2.2,1.4,3c2.5,2.1,6.5,3,9.6,2.5
						c1.2-0.2,2.5-0.6,3.3-1.7c0.4-0.5,0.5-1.2,0.6-1.8c0.4-1.9,0.8-3.7,1.2-5.7c0.1-0.3-0.1-0.7-0.4-0.8c-3.9-0.8-7.9-1.6-11.8-2.4
						c-0.6-0.1-1.1-0.2-1.7-0.3c-0.8-0.2-1.1,1-0.3,1.2c3.9,0.8,7.9,1.6,11.8,2.4c0.6,0.1,1.1,0.2,1.7,0.3c-0.1-0.3-0.3-0.5-0.4-0.8
						c-0.3,1.4-0.6,2.8-0.9,4.3c-0.1,0.7-0.3,1.4-0.4,2.1c-0.2,0.8-0.8,1.2-1.6,1.5c-2.8,1-6.7,0.2-9.1-1.4
						c-0.7-0.5-1.7-1.3-1.6-2.3c0.1-0.5,0.2-1,0.3-1.5c0.3-1.7,0.7-3.3,1-5.1C31.2,62.4,30,62.1,29.9,62.9z"/>
				</g>
			</g>
			<g>
				
					<rect x="35" y="58.1" transform="matrix(0.1969 -0.9804 0.9804 0.1969 -33.958 88.6417)" class="st1" width="4.4" height="13.9"/>
			</g>
		</g>
		<g>
			<path class="st5" d="M26.7,77.9L26.7,77.9c-2.4,0-4.5-2-4.5-4.5V7.4c0-2.4,2-4.5,4.5-4.5l0,0c2.4,0,4.5,2,4.5,4.5v66.1
				C31.1,75.9,29.1,77.9,26.7,77.9z"/>
			<line class="st6" x1="22.2" y1="21.2" x2="31.1" y2="21.2"/>
			<path class="st5" d="M31.7,36.2L31.7,36.2c-1.3,0-2.3-1-2.3-2.3V14.1c0-1.3,1-2.3,2.3-2.3l0,0c1.3,0,2.3,1,2.3,2.3v19.7
				C34,35.1,33,36.2,31.7,36.2z"/>
		</g>
	</g>
	<g>
		<rect x="5.8" y="57.5" class="st7" width="48.4" height="39.4"/>
		<g>
			<path class="st2" d="M54.2,77.9v-1.4c-4.6-3.2-11-9.5-11.5-19h-1C42.1,68,49.3,74.6,54.2,77.9z"/>
			<path class="st2" d="M48.9,96.8c0.5-8.1-1.3-14.9-4.8-18c-2-1.8-5.6-3.2-10.8,0.2c-4.5,2.9-7.9,8.9-9.7,17.3
				c0,0.2-0.1,0.3-0.1,0.5h1c1.4-6.3,4-13.4,9.3-16.7c3.8-2.5,7.3-2.6,9.8-0.3c3.2,2.9,4.9,9.3,4.4,17L48.9,96.8L48.9,96.8z"/>
			<path class="st2" d="M10.4,96.8c0.5-5.9,4.5-11.3,11.5-19.2c6.2-6.9,10.2-13.6,12.1-20.1h-1c-1.9,6.2-5.8,12.7-11.7,19.2
				C14.1,84.8,10,90.6,9.5,96.8H10.4z"/>
			<path class="st2" d="M5.8,72c3.2-0.1,7.7-1,10.6-4.8c1.9-2.4,2.8-5.7,2.9-9.8h-1c-0.1,3.7-1,6.8-2.7,8.9
				c-2.7,3.4-6.9,4.3-9.9,4.4V72H5.8z"/>
		</g>
		<rect x="5.8" y="57.5" class="st6" width="48.4" height="39.4"/>
	</g>
</g>
</svg>
