<?xml version="1.0" encoding="utf-8"?>
<!-- Generator: Adobe Illustrator 26.0.1, SVG Export Plug-In . SVG Version: 6.00 Build 0)  -->
<svg version="1.1" id="Layer_1" xmlns="http://www.w3.org/2000/svg" xmlns:xlink="http://www.w3.org/1999/xlink" x="0px" y="0px"
	 viewBox="0 0 205 162" style="enable-background:new 0 0 205 162;" xml:space="preserve">
<style type="text/css">
	.st0{fill:#BCA862;stroke:#2B2E49;stroke-width:2.9393;stroke-linecap:round;stroke-linejoin:round;stroke-miterlimit:10;}
	.st1{fill:#0EA7FD;}
	
		.st2{clip-path:url(#SVGID_00000013175452880090689890000015180728189797294502_);fill:#FFFFFF;stroke:#2B2E49;stroke-width:2.9393;stroke-linecap:round;stroke-linejoin:round;stroke-miterlimit:10;}
	
		.st3{clip-path:url(#SVGID_00000013175452880090689890000015180728189797294502_);fill:#22B385;stroke:#2B2E49;stroke-width:2.9393;stroke-linecap:round;stroke-linejoin:round;stroke-miterlimit:10;}
	
		.st4{clip-path:url(#SVGID_00000013175452880090689890000015180728189797294502_);fill:#546E7A;stroke:#2B2E49;stroke-width:2.9393;stroke-linecap:round;stroke-linejoin:round;stroke-miterlimit:10;}
	
		.st5{clip-path:url(#SVGID_00000013175452880090689890000015180728189797294502_);fill:#1AF0B3;stroke:#2B2E49;stroke-width:2.9393;stroke-linecap:round;stroke-linejoin:round;stroke-miterlimit:10;}
	.st6{fill:#2B2E49;}
</style>
<g>
	<rect x="3.8" y="3.6" class="st0" width="197.3" height="154.8"/>
	<g>
		<rect x="20" y="18.8" class="st1" width="164.9" height="124.3"/>
		<g>
			<defs>
				<rect id="SVGID_1_" x="20" y="16.3" width="164.9" height="129.4"/>
			</defs>
			<clipPath id="SVGID_00000082343859312960170020000004308186245430475164_">
				<use xlink:href="#SVGID_1_"  style="overflow:visible;"/>
			</clipPath>
			
				<path style="clip-path:url(#SVGID_00000082343859312960170020000004308186245430475164_);fill:#FFFFFF;stroke:#2B2E49;stroke-width:2.9393;stroke-linecap:round;stroke-linejoin:round;stroke-miterlimit:10;" d="
				M118.6,48.9c-0.5,0-1.1,0.1-1.5,0.3c-0.5-2.9-2.9-5-5.9-5c-0.6,0-1.2,0.1-1.7,0.3c-0.8-4.7-4.9-8.3-9.9-8.3c-4.5,0-8.3,3-9.6,7.1
				c-0.8-0.3-1.7-0.5-2.6-0.5c-3.7,0-6.7,3-6.7,6.7c0,3.7,3,6.7,6.7,6.7h31.2c2,0,3.6-1.6,3.6-3.6C122.3,50.5,120.7,48.9,118.6,48.9
				z"/>
			
				<path style="clip-path:url(#SVGID_00000082343859312960170020000004308186245430475164_);fill:#FFFFFF;stroke:#2B2E49;stroke-width:2.9393;stroke-linecap:round;stroke-linejoin:round;stroke-miterlimit:10;" d="
				M93.6,43.1c-0.5,0-1.1,0.1-1.5,0.3c-0.5-2.9-2.9-5-5.9-5c-0.6,0-1.2,0.1-1.7,0.3c-0.8-4.7-4.9-8.3-9.9-8.3c-4.5,0-8.3,3-9.6,7.1
				c-0.8-0.3-1.7-0.5-2.6-0.5c-3.7,0-6.7,3-6.7,6.7c0,3.7,3,6.7,6.7,6.7h31.2c2,0,3.6-1.6,3.6-3.6C97.3,44.7,95.6,43.1,93.6,43.1z"
				/>
			
				<path style="clip-path:url(#SVGID_00000082343859312960170020000004308186245430475164_);fill:#22B385;stroke:#2B2E49;stroke-width:2.9393;stroke-linecap:round;stroke-linejoin:round;stroke-miterlimit:10;" d="
				M116,145.7c0,0,32.6-72,76.6-72l-2.8,72H116z"/>
			
				<path style="clip-path:url(#SVGID_00000082343859312960170020000004308186245430475164_);fill:#FFFFFF;stroke:#2B2E49;stroke-width:2.9393;stroke-linecap:round;stroke-linejoin:round;stroke-miterlimit:10;" d="
				M84.5,101.2c0,0-0.1,7.6,25.7,10L84.5,73.7l-25.8,37.7C70.9,110.4,84.5,107.9,84.5,101.2z"/>
			
				<path style="clip-path:url(#SVGID_00000082343859312960170020000004308186245430475164_);fill:#546E7A;stroke:#2B2E49;stroke-width:2.9393;stroke-linecap:round;stroke-linejoin:round;stroke-miterlimit:10;" d="
				M133.9,145.7l-23.6-34.5c-25.8-2.4-25.7-10-25.7-10c0,6.7-13.7,9.2-25.8,10.2l-23.5,34.3H133.9z"/>
			
				<path style="clip-path:url(#SVGID_00000082343859312960170020000004308186245430475164_);fill:#FFFFFF;stroke:#2B2E49;stroke-width:2.9393;stroke-linecap:round;stroke-linejoin:round;stroke-miterlimit:10;" d="
				M35.3,88.6c0,0-0.1,9.7,33,12.8l-33-48.2L2.1,101.6C17.7,100.4,35.3,97.2,35.3,88.6z"/>
			
				<path style="clip-path:url(#SVGID_00000082343859312960170020000004308186245430475164_);fill:#546E7A;stroke:#2B2E49;stroke-width:2.9393;stroke-linecap:round;stroke-linejoin:round;stroke-miterlimit:10;" d="
				M98.6,145.7l-30.3-44.3c-33.1-3.1-33-12.8-33-12.8c0,8.6-17.5,11.9-33.1,13.1L-28,145.7H98.6z"/>
			
				<ellipse style="clip-path:url(#SVGID_00000082343859312960170020000004308186245430475164_);fill:#1AF0B3;stroke:#2B2E49;stroke-width:2.9393;stroke-linecap:round;stroke-linejoin:round;stroke-miterlimit:10;" cx="131.3" cy="130.2" rx="12.8" ry="15.5"/>
			
				<ellipse style="clip-path:url(#SVGID_00000082343859312960170020000004308186245430475164_);fill:#1AF0B3;stroke:#2B2E49;stroke-width:2.9393;stroke-linecap:round;stroke-linejoin:round;stroke-miterlimit:10;" cx="147.9" cy="130.2" rx="12.8" ry="15.5"/>
			
				<path style="clip-path:url(#SVGID_00000082343859312960170020000004308186245430475164_);fill:#1AF0B3;stroke:#2B2E49;stroke-width:2.9393;stroke-linecap:round;stroke-linejoin:round;stroke-miterlimit:10;" d="
				M177.7,130.2c0,8.5-5.8,15.5-12.8,15.5c-7.1,0-12.8-6.9-12.8-15.5s5.8-15.5,12.8-15.5C171.9,114.8,177.7,121.7,177.7,130.2z"/>
			
				<path style="clip-path:url(#SVGID_00000082343859312960170020000004308186245430475164_);fill:#1AF0B3;stroke:#2B2E49;stroke-width:2.9393;stroke-linecap:round;stroke-linejoin:round;stroke-miterlimit:10;" d="
				M194.9,130.2c0,8.5-5.8,15.5-12.8,15.5c-7.1,0-12.8-6.9-12.8-15.5s5.8-15.5,12.8-15.5C189.1,114.8,194.9,121.7,194.9,130.2z"/>
		</g>
		<path class="st6" d="M185,145.2H20c-1.1,0-2.1-0.9-2.1-2.1V18.8c0-1.1,0.9-2.1,2.1-2.1H185c1.1,0,2.1,0.9,2.1,2.1v124.3
			C187,144.3,186.1,145.2,185,145.2z M22.1,141.1h160.8V20.9H22.1V141.1z"/>
	</g>
</g>
</svg>
