<?xml version="1.0" encoding="utf-8"?>
<!-- Generator: Adobe Illustrator 26.0.1, SVG Export Plug-In . SVG Version: 6.00 Build 0)  -->
<svg version="1.1" id="Layer_1" xmlns="http://www.w3.org/2000/svg" xmlns:xlink="http://www.w3.org/1999/xlink" x="0px" y="0px"
	 viewBox="0 0 54 74" style="enable-background:new 0 0 54 74;" xml:space="preserve">
<style type="text/css">
	.st0{fill:#93FF7F;stroke:#000000;stroke-miterlimit:10;}
	.st1{fill:#EF5A24;stroke:#2B2E49;stroke-width:1.5;stroke-linecap:round;stroke-linejoin:round;stroke-miterlimit:10;}
	.st2{fill:#CACACA;}
</style>
<g>
	<g>
		<g>
			<path class="st0" d="M38,25.6c0-9.5-4.4-17.8-11-22.3C20.4,7.7,16,16,16,25.5c0,9.5,4.4,17.8,11,22.3
				C33.5,43.4,37.9,35.1,38,25.6z"/>
		</g>
		<g>
			<path class="st0" d="M42,32.3c3.5-6.1,3.8-13,1.3-18.3c-5.8,0.4-11.8,4-15.3,10.1c-3.5,6.1-3.8,13-1.3,18.3
				C32.6,42,38.5,38.4,42,32.3z"/>
		</g>
		<path class="st0" d="M46.9,38.2c3.6-5,4.4-11,2.6-15.9c-5.1-0.2-10.6,2.5-14.2,7.5c-3.6,5-4.4,11-2.6,15.9
			C37.9,45.9,43.3,43.2,46.9,38.2z"/>
		<g>
			<path class="st0" d="M12,32.3c-3.5-6.1-3.8-13-1.3-18.3c5.8,0.4,11.8,4,15.3,10.1c3.5,6.1,3.8,13,1.3,18.3
				C21.4,42,15.5,38.4,12,32.3z"/>
		</g>
		<path class="st0" d="M7.1,38.2c-3.6-5-4.4-11-2.6-15.9c5.1-0.2,10.6,2.5,14.2,7.5c3.6,5,4.4,11,2.6,15.9
			C16.1,45.9,10.7,43.2,7.1,38.2z"/>
		<g>
			<path class="st0" d="M35.7,37.4c0-7.6-3.5-14.2-8.7-17.8c-5.3,3.5-8.8,10.2-8.8,17.7c0,7.6,3.5,14.2,8.7,17.8
				C32.2,51.6,35.7,45,35.7,37.4z"/>
		</g>
	</g>
	<polygon class="st1" points="44.2,46.4 9.8,46.4 12.5,70.3 41.5,70.3 	"/>
	<rect x="6.1" y="41.1" class="st1" width="41.8" height="7.9"/>
	<polygon class="st2" points="10,56.2 44.1,56.2 45,50.3 9,50.3 	"/>
</g>
</svg>
