<?xml version="1.0" encoding="utf-8"?>
<!-- Generator: Adobe Illustrator 26.0.1, SVG Export Plug-In . SVG Version: 6.00 Build 0)  -->
<svg version="1.1" id="Layer_1" xmlns="http://www.w3.org/2000/svg" xmlns:xlink="http://www.w3.org/1999/xlink" x="0px" y="0px"
	 viewBox="0 0 258 177.7" style="enable-background:new 0 0 258 177.7;" xml:space="preserve">
<style type="text/css">
	.st0{fill:#B4AAF9;}
	.st1{fill:#FFFFFF;stroke:#000000;stroke-width:1.7178;stroke-miterlimit:10;}
	.st2{fill:none;stroke:#000000;stroke-width:1.7178;stroke-miterlimit:10;}
</style>
<g>
	<path class="st0" d="M239.4,174.9H19c-8.9,0-16.1-7.2-16.1-16.1V16.9C2.9,8,10.1,0.9,19,0.9h220.5c8.9,0,16.1,7.2,16.1,16.1v141.9
		C255.5,167.7,248.3,174.9,239.4,174.9z"/>
	<g>
		<g>
			<path d="M135.4,158.8c0,2.4-1.5,4.6-3.8,5.5c-2.3,0.8-5,0.1-6.5-1.8c-1.5-1.9-1.7-4.6-0.5-6.6c1.2-2,3.7-3.2,6-2.7
				C133.4,153.6,135.3,156,135.4,158.8c0,1.4,2.2,1.4,2.1,0c0-3.3-2.1-6.3-5.2-7.5c-3.1-1.2-6.8-0.2-8.9,2.4
				c-2.1,2.6-2.5,6.3-0.7,9.2c1.7,2.9,5.1,4.3,8.4,3.7c3.7-0.7,6.4-4.1,6.4-7.8C137.6,157.4,135.4,157.4,135.4,158.8z"/>
		</g>
	</g>
</g>
<path class="st1" d="M222.7,143.6h-187c-8.9,0-16.1-7.2-16.1-16.1V27c0-8.9,7.2-16.1,16.1-16.1h187c8.9,0,16.1,7.2,16.1,16.1v100.5
	C238.8,136.4,231.6,143.6,222.7,143.6z"/>
<path class="st2" d="M222.7,143.6h-187c-8.9,0-16.1-7.2-16.1-16.1V27c0-8.9,7.2-16.1,16.1-16.1h187c8.9,0,16.1,7.2,16.1,16.1v100.5
	C238.8,136.4,231.6,143.6,222.7,143.6z"/>
</svg>
