<?xml version="1.0" encoding="utf-8"?>
<!-- Generator: Adobe Illustrator 26.0.1, SVG Export Plug-In . SVG Version: 6.00 Build 0)  -->
<svg version="1.1" id="Layer_1" xmlns="http://www.w3.org/2000/svg" xmlns:xlink="http://www.w3.org/1999/xlink" x="0px" y="0px"
	 viewBox="0 0 60 117" style="enable-background:new 0 0 60 117;" xml:space="preserve">
<style type="text/css">
	.st0{fill:#546E7A;}
	.st1{fill:#C4C4C4;}
	.st2{fill:#2B2E49;}
	.st3{fill:#788E9A;stroke:#2B2E49;stroke-width:0.4585;stroke-linecap:round;stroke-linejoin:round;stroke-miterlimit:10;}
	.st4{fill:#36474F;stroke:#2B2E49;stroke-width:0.4585;stroke-linecap:round;stroke-linejoin:round;stroke-miterlimit:10;}
</style>
<g>
	<g>
		<path class="st0" d="M57.5,17.4c0-3.6-1.4-7.3-4.2-10.1c-2.8-2.8-6.4-4.2-10.1-4.2H16.7c-3.6,0-7.3,1.4-10.1,4.2
			c-2.8,2.8-4.2,6.4-4.2,10.1v96.4h55V17.4z"/>
		<rect x="2.5" y="98.7" class="st1" width="55" height="15.1"/>
		<path class="st2" d="M57.5,115.4h-55c-0.9,0-1.6-0.7-1.6-1.6V17.4c0-4.2,1.6-8.2,4.6-11.2c3-3,7-4.6,11.2-4.6h26.6
			c4.2,0,8.2,1.6,11.2,4.6c3,3,4.6,7,4.6,11.2v96.4C59.1,114.7,58.4,115.4,57.5,115.4z M4,112.3H56V17.4c0-3.4-1.3-6.6-3.7-9
			c-2.4-2.4-5.6-3.7-9-3.7H16.7c-3.4,0-6.6,1.3-9,3.7C5.4,10.8,4,14,4,17.4V112.3z"/>
	</g>
	<circle class="st3" cx="30" cy="31" r="15.1"/>
	<ellipse transform="matrix(0.161 -0.987 0.987 0.161 -48.8792 92.5592)" class="st3" cx="30" cy="75" rx="15.1" ry="15.1"/>
	<path class="st4" d="M24.8,75c0-2.9,2.3-5.2,5.2-5.2s5.2,2.3,5.2,5.2c0,2.9-2.3,5.2-5.2,5.2S24.8,77.9,24.8,75z"/>
	<circle class="st4" cx="30" cy="31" r="5.2"/>
</g>
</svg>
