<?xml version="1.0" encoding="utf-8"?>
<!-- Generator: Adobe Illustrator 26.0.1, SVG Export Plug-In . SVG Version: 6.00 Build 0)  -->
<svg version="1.1" id="Layer_1" xmlns="http://www.w3.org/2000/svg" xmlns:xlink="http://www.w3.org/1999/xlink" x="0px" y="0px"
	 viewBox="0 0 122 129" style="enable-background:new 0 0 122 129;" xml:space="preserve">
<style type="text/css">
	.st0{fill:#FBB03B;}
	.st1{fill:#F5F5F5;}
	.st2{fill:none;stroke:#302D2D;stroke-width:0.75;stroke-linecap:round;stroke-linejoin:round;stroke-miterlimit:10;}
	.st3{fill:#04C4D5;stroke:#302D2D;stroke-width:0.75;stroke-linecap:round;stroke-linejoin:round;stroke-miterlimit:10;}
</style>
<g>
	<g id="XMLID_3_">
		<g>
			<polygon class="st0" points="115.1,17.3 115.1,91.2 84.8,91.2 84.8,121.4 10.9,121.4 10.9,17.3 			"/>
			<polygon class="st1" points="115.1,91.2 84.8,121.4 84.8,91.2 			"/>
		</g>
		<g>
			<polygon class="st2" points="115.1,91.2 115.1,17.3 10.9,17.3 10.9,121.4 84.8,121.4 84.8,91.2 			"/>
			<line class="st2" x1="84.8" y1="121.4" x2="115.1" y2="91.2"/>
		</g>
	</g>
	<path class="st3" d="M48.1,17.3C48.1,9,54.8,2.4,63,2.4c8.2,0,14.9,6.7,14.9,14.9S71.2,32.2,63,32.2C54.8,32.2,48.1,25.5,48.1,17.3
		z"/>
</g>
</svg>
